<?xml version="1.0" encoding="utf-8" standalone="no"?>
<!DOCTYPE svg PUBLIC "-//W3C//DTD SVG 1.1//EN"
  "http://www.w3.org/Graphics/SVG/1.1/DTD/svg11.dtd">
<!-- Created with matplotlib (https://matplotlib.org/) -->
<svg height="648pt" version="1.1" viewBox="0 0 1152 648" width="1152pt" xmlns="http://www.w3.org/2000/svg" xmlns:xlink="http://www.w3.org/1999/xlink">
 <metadata>
  <rdf:RDF xmlns:cc="http://creativecommons.org/ns#" xmlns:dc="http://purl.org/dc/elements/1.1/" xmlns:rdf="http://www.w3.org/1999/02/22-rdf-syntax-ns#">
   <cc:Work>
    <dc:type rdf:resource="http://purl.org/dc/dcmitype/StillImage"/>
    <dc:date>2024-09-13T16:24:24.617462</dc:date>
    <dc:format>image/svg+xml</dc:format>
    <dc:creator>
     <cc:Agent>
      <dc:title>Matplotlib v3.3.4, https://matplotlib.org/</dc:title>
     </cc:Agent>
    </dc:creator>
   </cc:Work>
  </rdf:RDF>
 </metadata>
 <defs>
  <style type="text/css">*{stroke-linecap:butt;stroke-linejoin:round;}</style>
 </defs>
 <g id="figure_1">
  <g id="patch_1">
   <path d="M 0 648 
L 1152 648 
L 1152 0 
L 0 0 
z
" style="fill:#ffffff;"/>
  </g>
  <g id="axes_1">
   <g id="patch_2">
    <path d="M 63.56 606.04 
L 1141.2 606.04 
L 1141.2 25.44 
L 63.56 25.44 
z
" style="fill:#ffffff;"/>
   </g>
   <g id="matplotlib.axis_1">
    <g id="xtick_1">
     <g id="line2d_1">
      <defs>
       <path d="M 0 0 
L 0 3.5 
" id="m50eadb5dcc" style="stroke:#000000;stroke-width:0.8;"/>
      </defs>
      <g>
       <use style="stroke:#000000;stroke-width:0.8;" x="112.543636" xlink:href="#m50eadb5dcc" y="606.04"/>
      </g>
     </g>
     <g id="text_1">
      <!-- Jan -->
      <g transform="translate(104.835824 620.638438)scale(0.1 -0.1)">
       <defs>
        <path d="M 9.8125 72.90625 
L 19.671875 72.90625 
L 19.671875 5.078125 
Q 19.671875 -8.109375 14.671875 -14.0625 
Q 9.671875 -20.015625 -1.421875 -20.015625 
L -5.171875 -20.015625 
L -5.171875 -11.71875 
L -2.09375 -11.71875 
Q 4.4375 -11.71875 7.125 -8.046875 
Q 9.8125 -4.390625 9.8125 5.078125 
z
" id="DejaVuSans-74"/>
        <path d="M 34.28125 27.484375 
Q 23.390625 27.484375 19.1875 25 
Q 14.984375 22.515625 14.984375 16.5 
Q 14.984375 11.71875 18.140625 8.90625 
Q 21.296875 6.109375 26.703125 6.109375 
Q 34.1875 6.109375 38.703125 11.40625 
Q 43.21875 16.703125 43.21875 25.484375 
L 43.21875 27.484375 
z
M 52.203125 31.203125 
L 52.203125 0 
L 43.21875 0 
L 43.21875 8.296875 
Q 40.140625 3.328125 35.546875 0.953125 
Q 30.953125 -1.421875 24.3125 -1.421875 
Q 15.921875 -1.421875 10.953125 3.296875 
Q 6 8.015625 6 15.921875 
Q 6 25.140625 12.171875 29.828125 
Q 18.359375 34.515625 30.609375 34.515625 
L 43.21875 34.515625 
L 43.21875 35.40625 
Q 43.21875 41.609375 39.140625 45 
Q 35.0625 48.390625 27.6875 48.390625 
Q 23 48.390625 18.546875 47.265625 
Q 14.109375 46.140625 10.015625 43.890625 
L 10.015625 52.203125 
Q 14.9375 54.109375 19.578125 55.046875 
Q 24.21875 56 28.609375 56 
Q 40.484375 56 46.34375 49.84375 
Q 52.203125 43.703125 52.203125 31.203125 
z
" id="DejaVuSans-97"/>
        <path d="M 54.890625 33.015625 
L 54.890625 0 
L 45.90625 0 
L 45.90625 32.71875 
Q 45.90625 40.484375 42.875 44.328125 
Q 39.84375 48.1875 33.796875 48.1875 
Q 26.515625 48.1875 22.3125 43.546875 
Q 18.109375 38.921875 18.109375 30.90625 
L 18.109375 0 
L 9.078125 0 
L 9.078125 54.6875 
L 18.109375 54.6875 
L 18.109375 46.1875 
Q 21.34375 51.125 25.703125 53.5625 
Q 30.078125 56 35.796875 56 
Q 45.21875 56 50.046875 50.171875 
Q 54.890625 44.34375 54.890625 33.015625 
z
" id="DejaVuSans-110"/>
       </defs>
       <use xlink:href="#DejaVuSans-74"/>
       <use x="29.492188" xlink:href="#DejaVuSans-97"/>
       <use x="90.771484" xlink:href="#DejaVuSans-110"/>
      </g>
     </g>
    </g>
    <g id="xtick_2">
     <g id="line2d_2">
      <g>
       <use style="stroke:#000000;stroke-width:0.8;" x="201.604793" xlink:href="#m50eadb5dcc" y="606.04"/>
      </g>
     </g>
     <g id="text_2">
      <!-- Feb -->
      <g transform="translate(192.753231 620.638438)scale(0.1 -0.1)">
       <defs>
        <path d="M 9.8125 72.90625 
L 51.703125 72.90625 
L 51.703125 64.59375 
L 19.671875 64.59375 
L 19.671875 43.109375 
L 48.578125 43.109375 
L 48.578125 34.8125 
L 19.671875 34.8125 
L 19.671875 0 
L 9.8125 0 
z
" id="DejaVuSans-70"/>
        <path d="M 56.203125 29.59375 
L 56.203125 25.203125 
L 14.890625 25.203125 
Q 15.484375 15.921875 20.484375 11.0625 
Q 25.484375 6.203125 34.421875 6.203125 
Q 39.59375 6.203125 44.453125 7.46875 
Q 49.3125 8.734375 54.109375 11.28125 
L 54.109375 2.78125 
Q 49.265625 0.734375 44.1875 -0.34375 
Q 39.109375 -1.421875 33.890625 -1.421875 
Q 20.796875 -1.421875 13.15625 6.1875 
Q 5.515625 13.8125 5.515625 26.8125 
Q 5.515625 40.234375 12.765625 48.109375 
Q 20.015625 56 32.328125 56 
Q 43.359375 56 49.78125 48.890625 
Q 56.203125 41.796875 56.203125 29.59375 
z
M 47.21875 32.234375 
Q 47.125 39.59375 43.09375 43.984375 
Q 39.0625 48.390625 32.421875 48.390625 
Q 24.90625 48.390625 20.390625 44.140625 
Q 15.875 39.890625 15.1875 32.171875 
z
" id="DejaVuSans-101"/>
        <path d="M 48.6875 27.296875 
Q 48.6875 37.203125 44.609375 42.84375 
Q 40.53125 48.484375 33.40625 48.484375 
Q 26.265625 48.484375 22.1875 42.84375 
Q 18.109375 37.203125 18.109375 27.296875 
Q 18.109375 17.390625 22.1875 11.75 
Q 26.265625 6.109375 33.40625 6.109375 
Q 40.53125 6.109375 44.609375 11.75 
Q 48.6875 17.390625 48.6875 27.296875 
z
M 18.109375 46.390625 
Q 20.953125 51.265625 25.265625 53.625 
Q 29.59375 56 35.59375 56 
Q 45.5625 56 51.78125 48.09375 
Q 58.015625 40.1875 58.015625 27.296875 
Q 58.015625 14.40625 51.78125 6.484375 
Q 45.5625 -1.421875 35.59375 -1.421875 
Q 29.59375 -1.421875 25.265625 0.953125 
Q 20.953125 3.328125 18.109375 8.203125 
L 18.109375 0 
L 9.078125 0 
L 9.078125 75.984375 
L 18.109375 75.984375 
z
" id="DejaVuSans-98"/>
       </defs>
       <use xlink:href="#DejaVuSans-70"/>
       <use x="52.019531" xlink:href="#DejaVuSans-101"/>
       <use x="113.542969" xlink:href="#DejaVuSans-98"/>
      </g>
     </g>
    </g>
    <g id="xtick_3">
     <g id="line2d_3">
      <g>
       <use style="stroke:#000000;stroke-width:0.8;" x="290.66595" xlink:href="#m50eadb5dcc" y="606.04"/>
      </g>
     </g>
     <g id="text_3">
      <!-- Mar -->
      <g transform="translate(281.232357 620.638438)scale(0.1 -0.1)">
       <defs>
        <path d="M 9.8125 72.90625 
L 24.515625 72.90625 
L 43.109375 23.296875 
L 61.8125 72.90625 
L 76.515625 72.90625 
L 76.515625 0 
L 66.890625 0 
L 66.890625 64.015625 
L 48.09375 14.015625 
L 38.1875 14.015625 
L 19.390625 64.015625 
L 19.390625 0 
L 9.8125 0 
z
" id="DejaVuSans-77"/>
        <path d="M 41.109375 46.296875 
Q 39.59375 47.171875 37.8125 47.578125 
Q 36.03125 48 33.890625 48 
Q 26.265625 48 22.1875 43.046875 
Q 18.109375 38.09375 18.109375 28.8125 
L 18.109375 0 
L 9.078125 0 
L 9.078125 54.6875 
L 18.109375 54.6875 
L 18.109375 46.1875 
Q 20.953125 51.171875 25.484375 53.578125 
Q 30.03125 56 36.53125 56 
Q 37.453125 56 38.578125 55.875 
Q 39.703125 55.765625 41.0625 55.515625 
z
" id="DejaVuSans-114"/>
       </defs>
       <use xlink:href="#DejaVuSans-77"/>
       <use x="86.279297" xlink:href="#DejaVuSans-97"/>
       <use x="147.558594" xlink:href="#DejaVuSans-114"/>
      </g>
     </g>
    </g>
    <g id="xtick_4">
     <g id="line2d_4">
      <g>
       <use style="stroke:#000000;stroke-width:0.8;" x="379.727107" xlink:href="#m50eadb5dcc" y="606.04"/>
      </g>
     </g>
     <g id="text_4">
      <!-- Apr -->
      <g transform="translate(371.077107 620.638438)scale(0.1 -0.1)">
       <defs>
        <path d="M 34.1875 63.1875 
L 20.796875 26.90625 
L 47.609375 26.90625 
z
M 28.609375 72.90625 
L 39.796875 72.90625 
L 67.578125 0 
L 57.328125 0 
L 50.6875 18.703125 
L 17.828125 18.703125 
L 11.1875 0 
L 0.78125 0 
z
" id="DejaVuSans-65"/>
        <path d="M 18.109375 8.203125 
L 18.109375 -20.796875 
L 9.078125 -20.796875 
L 9.078125 54.6875 
L 18.109375 54.6875 
L 18.109375 46.390625 
Q 20.953125 51.265625 25.265625 53.625 
Q 29.59375 56 35.59375 56 
Q 45.5625 56 51.78125 48.09375 
Q 58.015625 40.1875 58.015625 27.296875 
Q 58.015625 14.40625 51.78125 6.484375 
Q 45.5625 -1.421875 35.59375 -1.421875 
Q 29.59375 -1.421875 25.265625 0.953125 
Q 20.953125 3.328125 18.109375 8.203125 
z
M 48.6875 27.296875 
Q 48.6875 37.203125 44.609375 42.84375 
Q 40.53125 48.484375 33.40625 48.484375 
Q 26.265625 48.484375 22.1875 42.84375 
Q 18.109375 37.203125 18.109375 27.296875 
Q 18.109375 17.390625 22.1875 11.75 
Q 26.265625 6.109375 33.40625 6.109375 
Q 40.53125 6.109375 44.609375 11.75 
Q 48.6875 17.390625 48.6875 27.296875 
z
" id="DejaVuSans-112"/>
       </defs>
       <use xlink:href="#DejaVuSans-65"/>
       <use x="68.408203" xlink:href="#DejaVuSans-112"/>
       <use x="131.884766" xlink:href="#DejaVuSans-114"/>
      </g>
     </g>
    </g>
    <g id="xtick_5">
     <g id="line2d_5">
      <g>
       <use style="stroke:#000000;stroke-width:0.8;" x="468.788264" xlink:href="#m50eadb5dcc" y="606.04"/>
      </g>
     </g>
     <g id="text_5">
      <!-- May -->
      <g transform="translate(458.450764 620.638438)scale(0.1 -0.1)">
       <defs>
        <path d="M 32.171875 -5.078125 
Q 28.375 -14.84375 24.75 -17.8125 
Q 21.140625 -20.796875 15.09375 -20.796875 
L 7.90625 -20.796875 
L 7.90625 -13.28125 
L 13.1875 -13.28125 
Q 16.890625 -13.28125 18.9375 -11.515625 
Q 21 -9.765625 23.484375 -3.21875 
L 25.09375 0.875 
L 2.984375 54.6875 
L 12.5 54.6875 
L 29.59375 11.921875 
L 46.6875 54.6875 
L 56.203125 54.6875 
z
" id="DejaVuSans-121"/>
       </defs>
       <use xlink:href="#DejaVuSans-77"/>
       <use x="86.279297" xlink:href="#DejaVuSans-97"/>
       <use x="147.558594" xlink:href="#DejaVuSans-121"/>
      </g>
     </g>
    </g>
    <g id="xtick_6">
     <g id="line2d_6">
      <g>
       <use style="stroke:#000000;stroke-width:0.8;" x="557.849421" xlink:href="#m50eadb5dcc" y="606.04"/>
      </g>
     </g>
     <g id="text_6">
      <!-- Jun -->
      <g transform="translate(550.036921 620.638438)scale(0.1 -0.1)">
       <defs>
        <path d="M 8.5 21.578125 
L 8.5 54.6875 
L 17.484375 54.6875 
L 17.484375 21.921875 
Q 17.484375 14.15625 20.5 10.265625 
Q 23.53125 6.390625 29.59375 6.390625 
Q 36.859375 6.390625 41.078125 11.03125 
Q 45.3125 15.671875 45.3125 23.6875 
L 45.3125 54.6875 
L 54.296875 54.6875 
L 54.296875 0 
L 45.3125 0 
L 45.3125 8.40625 
Q 42.046875 3.421875 37.71875 1 
Q 33.40625 -1.421875 27.6875 -1.421875 
Q 18.265625 -1.421875 13.375 4.4375 
Q 8.5 10.296875 8.5 21.578125 
z
M 31.109375 56 
z
" id="DejaVuSans-117"/>
       </defs>
       <use xlink:href="#DejaVuSans-74"/>
       <use x="29.492188" xlink:href="#DejaVuSans-117"/>
       <use x="92.871094" xlink:href="#DejaVuSans-110"/>
      </g>
     </g>
    </g>
    <g id="xtick_7">
     <g id="line2d_7">
      <g>
       <use style="stroke:#000000;stroke-width:0.8;" x="646.910579" xlink:href="#m50eadb5dcc" y="606.04"/>
      </g>
     </g>
     <g id="text_7">
      <!-- Jul -->
      <g transform="translate(640.877766 620.638438)scale(0.1 -0.1)">
       <defs>
        <path d="M 9.421875 75.984375 
L 18.40625 75.984375 
L 18.40625 0 
L 9.421875 0 
z
" id="DejaVuSans-108"/>
       </defs>
       <use xlink:href="#DejaVuSans-74"/>
       <use x="29.492188" xlink:href="#DejaVuSans-117"/>
       <use x="92.871094" xlink:href="#DejaVuSans-108"/>
      </g>
     </g>
    </g>
    <g id="xtick_8">
     <g id="line2d_8">
      <g>
       <use style="stroke:#000000;stroke-width:0.8;" x="735.971736" xlink:href="#m50eadb5dcc" y="606.04"/>
      </g>
     </g>
     <g id="text_8">
      <!-- Aug -->
      <g transform="translate(726.208454 620.638438)scale(0.1 -0.1)">
       <defs>
        <path d="M 45.40625 27.984375 
Q 45.40625 37.75 41.375 43.109375 
Q 37.359375 48.484375 30.078125 48.484375 
Q 22.859375 48.484375 18.828125 43.109375 
Q 14.796875 37.75 14.796875 27.984375 
Q 14.796875 18.265625 18.828125 12.890625 
Q 22.859375 7.515625 30.078125 7.515625 
Q 37.359375 7.515625 41.375 12.890625 
Q 45.40625 18.265625 45.40625 27.984375 
z
M 54.390625 6.78125 
Q 54.390625 -7.171875 48.1875 -13.984375 
Q 42 -20.796875 29.203125 -20.796875 
Q 24.46875 -20.796875 20.265625 -20.09375 
Q 16.0625 -19.390625 12.109375 -17.921875 
L 12.109375 -9.1875 
Q 16.0625 -11.328125 19.921875 -12.34375 
Q 23.78125 -13.375 27.78125 -13.375 
Q 36.625 -13.375 41.015625 -8.765625 
Q 45.40625 -4.15625 45.40625 5.171875 
L 45.40625 9.625 
Q 42.625 4.78125 38.28125 2.390625 
Q 33.9375 0 27.875 0 
Q 17.828125 0 11.671875 7.65625 
Q 5.515625 15.328125 5.515625 27.984375 
Q 5.515625 40.671875 11.671875 48.328125 
Q 17.828125 56 27.875 56 
Q 33.9375 56 38.28125 53.609375 
Q 42.625 51.21875 45.40625 46.390625 
L 45.40625 54.6875 
L 54.390625 54.6875 
z
" id="DejaVuSans-103"/>
       </defs>
       <use xlink:href="#DejaVuSans-65"/>
       <use x="68.408203" xlink:href="#DejaVuSans-117"/>
       <use x="131.787109" xlink:href="#DejaVuSans-103"/>
      </g>
     </g>
    </g>
    <g id="xtick_9">
     <g id="line2d_9">
      <g>
       <use style="stroke:#000000;stroke-width:0.8;" x="825.032893" xlink:href="#m50eadb5dcc" y="606.04"/>
      </g>
     </g>
     <g id="text_9">
      <!-- Sep -->
      <g transform="translate(815.607893 620.638438)scale(0.1 -0.1)">
       <defs>
        <path d="M 53.515625 70.515625 
L 53.515625 60.890625 
Q 47.90625 63.578125 42.921875 64.890625 
Q 37.9375 66.21875 33.296875 66.21875 
Q 25.25 66.21875 20.875 63.09375 
Q 16.5 59.96875 16.5 54.203125 
Q 16.5 49.359375 19.40625 46.890625 
Q 22.3125 44.4375 30.421875 42.921875 
L 36.375 41.703125 
Q 47.40625 39.59375 52.65625 34.296875 
Q 57.90625 29 57.90625 20.125 
Q 57.90625 9.515625 50.796875 4.046875 
Q 43.703125 -1.421875 29.984375 -1.421875 
Q 24.8125 -1.421875 18.96875 -0.25 
Q 13.140625 0.921875 6.890625 3.21875 
L 6.890625 13.375 
Q 12.890625 10.015625 18.65625 8.296875 
Q 24.421875 6.59375 29.984375 6.59375 
Q 38.421875 6.59375 43.015625 9.90625 
Q 47.609375 13.234375 47.609375 19.390625 
Q 47.609375 24.75 44.3125 27.78125 
Q 41.015625 30.8125 33.5 32.328125 
L 27.484375 33.5 
Q 16.453125 35.6875 11.515625 40.375 
Q 6.59375 45.0625 6.59375 53.421875 
Q 6.59375 63.09375 13.40625 68.65625 
Q 20.21875 74.21875 32.171875 74.21875 
Q 37.3125 74.21875 42.625 73.28125 
Q 47.953125 72.359375 53.515625 70.515625 
z
" id="DejaVuSans-83"/>
       </defs>
       <use xlink:href="#DejaVuSans-83"/>
       <use x="63.476562" xlink:href="#DejaVuSans-101"/>
       <use x="125" xlink:href="#DejaVuSans-112"/>
      </g>
     </g>
    </g>
    <g id="xtick_10">
     <g id="line2d_10">
      <g>
       <use style="stroke:#000000;stroke-width:0.8;" x="914.09405" xlink:href="#m50eadb5dcc" y="606.04"/>
      </g>
     </g>
     <g id="text_10">
      <!-- Oct -->
      <g transform="translate(905.448737 620.638438)scale(0.1 -0.1)">
       <defs>
        <path d="M 39.40625 66.21875 
Q 28.65625 66.21875 22.328125 58.203125 
Q 16.015625 50.203125 16.015625 36.375 
Q 16.015625 22.609375 22.328125 14.59375 
Q 28.65625 6.59375 39.40625 6.59375 
Q 50.140625 6.59375 56.421875 14.59375 
Q 62.703125 22.609375 62.703125 36.375 
Q 62.703125 50.203125 56.421875 58.203125 
Q 50.140625 66.21875 39.40625 66.21875 
z
M 39.40625 74.21875 
Q 54.734375 74.21875 63.90625 63.9375 
Q 73.09375 53.65625 73.09375 36.375 
Q 73.09375 19.140625 63.90625 8.859375 
Q 54.734375 -1.421875 39.40625 -1.421875 
Q 24.03125 -1.421875 14.8125 8.828125 
Q 5.609375 19.09375 5.609375 36.375 
Q 5.609375 53.65625 14.8125 63.9375 
Q 24.03125 74.21875 39.40625 74.21875 
z
" id="DejaVuSans-79"/>
        <path d="M 48.78125 52.59375 
L 48.78125 44.1875 
Q 44.96875 46.296875 41.140625 47.34375 
Q 37.3125 48.390625 33.40625 48.390625 
Q 24.65625 48.390625 19.8125 42.84375 
Q 14.984375 37.3125 14.984375 27.296875 
Q 14.984375 17.28125 19.8125 11.734375 
Q 24.65625 6.203125 33.40625 6.203125 
Q 37.3125 6.203125 41.140625 7.25 
Q 44.96875 8.296875 48.78125 10.40625 
L 48.78125 2.09375 
Q 45.015625 0.34375 40.984375 -0.53125 
Q 36.96875 -1.421875 32.421875 -1.421875 
Q 20.0625 -1.421875 12.78125 6.34375 
Q 5.515625 14.109375 5.515625 27.296875 
Q 5.515625 40.671875 12.859375 48.328125 
Q 20.21875 56 33.015625 56 
Q 37.15625 56 41.109375 55.140625 
Q 45.0625 54.296875 48.78125 52.59375 
z
" id="DejaVuSans-99"/>
        <path d="M 18.3125 70.21875 
L 18.3125 54.6875 
L 36.8125 54.6875 
L 36.8125 47.703125 
L 18.3125 47.703125 
L 18.3125 18.015625 
Q 18.3125 11.328125 20.140625 9.421875 
Q 21.96875 7.515625 27.59375 7.515625 
L 36.8125 7.515625 
L 36.8125 0 
L 27.59375 0 
Q 17.1875 0 13.234375 3.875 
Q 9.28125 7.765625 9.28125 18.015625 
L 9.28125 47.703125 
L 2.6875 47.703125 
L 2.6875 54.6875 
L 9.28125 54.6875 
L 9.28125 70.21875 
z
" id="DejaVuSans-116"/>
       </defs>
       <use xlink:href="#DejaVuSans-79"/>
       <use x="78.710938" xlink:href="#DejaVuSans-99"/>
       <use x="133.691406" xlink:href="#DejaVuSans-116"/>
      </g>
     </g>
    </g>
    <g id="xtick_11">
     <g id="line2d_11">
      <g>
       <use style="stroke:#000000;stroke-width:0.8;" x="1003.155207" xlink:href="#m50eadb5dcc" y="606.04"/>
      </g>
     </g>
     <g id="text_11">
      <!-- Nov -->
      <g transform="translate(993.395832 620.638438)scale(0.1 -0.1)">
       <defs>
        <path d="M 9.8125 72.90625 
L 23.09375 72.90625 
L 55.421875 11.921875 
L 55.421875 72.90625 
L 64.984375 72.90625 
L 64.984375 0 
L 51.703125 0 
L 19.390625 60.984375 
L 19.390625 0 
L 9.8125 0 
z
" id="DejaVuSans-78"/>
        <path d="M 30.609375 48.390625 
Q 23.390625 48.390625 19.1875 42.75 
Q 14.984375 37.109375 14.984375 27.296875 
Q 14.984375 17.484375 19.15625 11.84375 
Q 23.34375 6.203125 30.609375 6.203125 
Q 37.796875 6.203125 41.984375 11.859375 
Q 46.1875 17.53125 46.1875 27.296875 
Q 46.1875 37.015625 41.984375 42.703125 
Q 37.796875 48.390625 30.609375 48.390625 
z
M 30.609375 56 
Q 42.328125 56 49.015625 48.375 
Q 55.71875 40.765625 55.71875 27.296875 
Q 55.71875 13.875 49.015625 6.21875 
Q 42.328125 -1.421875 30.609375 -1.421875 
Q 18.84375 -1.421875 12.171875 6.21875 
Q 5.515625 13.875 5.515625 27.296875 
Q 5.515625 40.765625 12.171875 48.375 
Q 18.84375 56 30.609375 56 
z
" id="DejaVuSans-111"/>
        <path d="M 2.984375 54.6875 
L 12.5 54.6875 
L 29.59375 8.796875 
L 46.6875 54.6875 
L 56.203125 54.6875 
L 35.6875 0 
L 23.484375 0 
z
" id="DejaVuSans-118"/>
       </defs>
       <use xlink:href="#DejaVuSans-78"/>
       <use x="74.804688" xlink:href="#DejaVuSans-111"/>
       <use x="135.986328" xlink:href="#DejaVuSans-118"/>
      </g>
     </g>
    </g>
    <g id="xtick_12">
     <g id="line2d_12">
      <g>
       <use style="stroke:#000000;stroke-width:0.8;" x="1092.216364" xlink:href="#m50eadb5dcc" y="606.04"/>
      </g>
     </g>
     <g id="text_12">
      <!-- Dec -->
      <g transform="translate(1082.540582 620.638438)scale(0.1 -0.1)">
       <defs>
        <path d="M 19.671875 64.796875 
L 19.671875 8.109375 
L 31.59375 8.109375 
Q 46.6875 8.109375 53.6875 14.9375 
Q 60.6875 21.78125 60.6875 36.53125 
Q 60.6875 51.171875 53.6875 57.984375 
Q 46.6875 64.796875 31.59375 64.796875 
z
M 9.8125 72.90625 
L 30.078125 72.90625 
Q 51.265625 72.90625 61.171875 64.09375 
Q 71.09375 55.28125 71.09375 36.53125 
Q 71.09375 17.671875 61.125 8.828125 
Q 51.171875 0 30.078125 0 
L 9.8125 0 
z
" id="DejaVuSans-68"/>
       </defs>
       <use xlink:href="#DejaVuSans-68"/>
       <use x="77.001953" xlink:href="#DejaVuSans-101"/>
       <use x="138.525391" xlink:href="#DejaVuSans-99"/>
      </g>
     </g>
    </g>
    <g id="text_13">
     <!-- Month -->
     <g transform="translate(586.708906 634.316563)scale(0.1 -0.1)">
      <defs>
       <path d="M 54.890625 33.015625 
L 54.890625 0 
L 45.90625 0 
L 45.90625 32.71875 
Q 45.90625 40.484375 42.875 44.328125 
Q 39.84375 48.1875 33.796875 48.1875 
Q 26.515625 48.1875 22.3125 43.546875 
Q 18.109375 38.921875 18.109375 30.90625 
L 18.109375 0 
L 9.078125 0 
L 9.078125 75.984375 
L 18.109375 75.984375 
L 18.109375 46.1875 
Q 21.34375 51.125 25.703125 53.5625 
Q 30.078125 56 35.796875 56 
Q 45.21875 56 50.046875 50.171875 
Q 54.890625 44.34375 54.890625 33.015625 
z
" id="DejaVuSans-104"/>
      </defs>
      <use xlink:href="#DejaVuSans-77"/>
      <use x="86.279297" xlink:href="#DejaVuSans-111"/>
      <use x="147.460938" xlink:href="#DejaVuSans-110"/>
      <use x="210.839844" xlink:href="#DejaVuSans-116"/>
      <use x="250.048828" xlink:href="#DejaVuSans-104"/>
     </g>
    </g>
   </g>
   <g id="matplotlib.axis_2">
    <g id="ytick_1">
     <g id="line2d_13">
      <defs>
       <path d="M 0 0 
L -3.5 0 
" id="m9af4656629" style="stroke:#000000;stroke-width:0.8;"/>
      </defs>
      <g>
       <use style="stroke:#000000;stroke-width:0.8;" x="63.56" xlink:href="#m9af4656629" y="589.213515"/>
      </g>
     </g>
     <g id="text_14">
      <!-- 6000 -->
      <g transform="translate(31.11 593.012734)scale(0.1 -0.1)">
       <defs>
        <path d="M 33.015625 40.375 
Q 26.375 40.375 22.484375 35.828125 
Q 18.609375 31.296875 18.609375 23.390625 
Q 18.609375 15.53125 22.484375 10.953125 
Q 26.375 6.390625 33.015625 6.390625 
Q 39.65625 6.390625 43.53125 10.953125 
Q 47.40625 15.53125 47.40625 23.390625 
Q 47.40625 31.296875 43.53125 35.828125 
Q 39.65625 40.375 33.015625 40.375 
z
M 52.59375 71.296875 
L 52.59375 62.3125 
Q 48.875 64.0625 45.09375 64.984375 
Q 41.3125 65.921875 37.59375 65.921875 
Q 27.828125 65.921875 22.671875 59.328125 
Q 17.53125 52.734375 16.796875 39.40625 
Q 19.671875 43.65625 24.015625 45.921875 
Q 28.375 48.1875 33.59375 48.1875 
Q 44.578125 48.1875 50.953125 41.515625 
Q 57.328125 34.859375 57.328125 23.390625 
Q 57.328125 12.15625 50.6875 5.359375 
Q 44.046875 -1.421875 33.015625 -1.421875 
Q 20.359375 -1.421875 13.671875 8.265625 
Q 6.984375 17.96875 6.984375 36.375 
Q 6.984375 53.65625 15.1875 63.9375 
Q 23.390625 74.21875 37.203125 74.21875 
Q 40.921875 74.21875 44.703125 73.484375 
Q 48.484375 72.75 52.59375 71.296875 
z
" id="DejaVuSans-54"/>
        <path d="M 31.78125 66.40625 
Q 24.171875 66.40625 20.328125 58.90625 
Q 16.5 51.421875 16.5 36.375 
Q 16.5 21.390625 20.328125 13.890625 
Q 24.171875 6.390625 31.78125 6.390625 
Q 39.453125 6.390625 43.28125 13.890625 
Q 47.125 21.390625 47.125 36.375 
Q 47.125 51.421875 43.28125 58.90625 
Q 39.453125 66.40625 31.78125 66.40625 
z
M 31.78125 74.21875 
Q 44.046875 74.21875 50.515625 64.515625 
Q 56.984375 54.828125 56.984375 36.375 
Q 56.984375 17.96875 50.515625 8.265625 
Q 44.046875 -1.421875 31.78125 -1.421875 
Q 19.53125 -1.421875 13.0625 8.265625 
Q 6.59375 17.96875 6.59375 36.375 
Q 6.59375 54.828125 13.0625 64.515625 
Q 19.53125 74.21875 31.78125 74.21875 
z
" id="DejaVuSans-48"/>
       </defs>
       <use xlink:href="#DejaVuSans-54"/>
       <use x="63.623047" xlink:href="#DejaVuSans-48"/>
       <use x="127.246094" xlink:href="#DejaVuSans-48"/>
       <use x="190.869141" xlink:href="#DejaVuSans-48"/>
      </g>
     </g>
    </g>
    <g id="ytick_2">
     <g id="line2d_14">
      <g>
       <use style="stroke:#000000;stroke-width:0.8;" x="63.56" xlink:href="#m9af4656629" y="490.611202"/>
      </g>
     </g>
     <g id="text_15">
      <!-- 8000 -->
      <g transform="translate(31.11 494.410421)scale(0.1 -0.1)">
       <defs>
        <path d="M 31.78125 34.625 
Q 24.75 34.625 20.71875 30.859375 
Q 16.703125 27.09375 16.703125 20.515625 
Q 16.703125 13.921875 20.71875 10.15625 
Q 24.75 6.390625 31.78125 6.390625 
Q 38.8125 6.390625 42.859375 10.171875 
Q 46.921875 13.96875 46.921875 20.515625 
Q 46.921875 27.09375 42.890625 30.859375 
Q 38.875 34.625 31.78125 34.625 
z
M 21.921875 38.8125 
Q 15.578125 40.375 12.03125 44.71875 
Q 8.5 49.078125 8.5 55.328125 
Q 8.5 64.0625 14.71875 69.140625 
Q 20.953125 74.21875 31.78125 74.21875 
Q 42.671875 74.21875 48.875 69.140625 
Q 55.078125 64.0625 55.078125 55.328125 
Q 55.078125 49.078125 51.53125 44.71875 
Q 48 40.375 41.703125 38.8125 
Q 48.828125 37.15625 52.796875 32.3125 
Q 56.78125 27.484375 56.78125 20.515625 
Q 56.78125 9.90625 50.3125 4.234375 
Q 43.84375 -1.421875 31.78125 -1.421875 
Q 19.734375 -1.421875 13.25 4.234375 
Q 6.78125 9.90625 6.78125 20.515625 
Q 6.78125 27.484375 10.78125 32.3125 
Q 14.796875 37.15625 21.921875 38.8125 
z
M 18.3125 54.390625 
Q 18.3125 48.734375 21.84375 45.5625 
Q 25.390625 42.390625 31.78125 42.390625 
Q 38.140625 42.390625 41.71875 45.5625 
Q 45.3125 48.734375 45.3125 54.390625 
Q 45.3125 60.0625 41.71875 63.234375 
Q 38.140625 66.40625 31.78125 66.40625 
Q 25.390625 66.40625 21.84375 63.234375 
Q 18.3125 60.0625 18.3125 54.390625 
z
" id="DejaVuSans-56"/>
       </defs>
       <use xlink:href="#DejaVuSans-56"/>
       <use x="63.623047" xlink:href="#DejaVuSans-48"/>
       <use x="127.246094" xlink:href="#DejaVuSans-48"/>
       <use x="190.869141" xlink:href="#DejaVuSans-48"/>
      </g>
     </g>
    </g>
    <g id="ytick_3">
     <g id="line2d_15">
      <g>
       <use style="stroke:#000000;stroke-width:0.8;" x="63.56" xlink:href="#m9af4656629" y="392.008889"/>
      </g>
     </g>
     <g id="text_16">
      <!-- 10000 -->
      <g transform="translate(24.7475 395.808108)scale(0.1 -0.1)">
       <defs>
        <path d="M 12.40625 8.296875 
L 28.515625 8.296875 
L 28.515625 63.921875 
L 10.984375 60.40625 
L 10.984375 69.390625 
L 28.421875 72.90625 
L 38.28125 72.90625 
L 38.28125 8.296875 
L 54.390625 8.296875 
L 54.390625 0 
L 12.40625 0 
z
" id="DejaVuSans-49"/>
       </defs>
       <use xlink:href="#DejaVuSans-49"/>
       <use x="63.623047" xlink:href="#DejaVuSans-48"/>
       <use x="127.246094" xlink:href="#DejaVuSans-48"/>
       <use x="190.869141" xlink:href="#DejaVuSans-48"/>
       <use x="254.492188" xlink:href="#DejaVuSans-48"/>
      </g>
     </g>
    </g>
    <g id="ytick_4">
     <g id="line2d_16">
      <g>
       <use style="stroke:#000000;stroke-width:0.8;" x="63.56" xlink:href="#m9af4656629" y="293.406576"/>
      </g>
     </g>
     <g id="text_17">
      <!-- 12000 -->
      <g transform="translate(24.7475 297.205795)scale(0.1 -0.1)">
       <defs>
        <path d="M 19.1875 8.296875 
L 53.609375 8.296875 
L 53.609375 0 
L 7.328125 0 
L 7.328125 8.296875 
Q 12.9375 14.109375 22.625 23.890625 
Q 32.328125 33.6875 34.8125 36.53125 
Q 39.546875 41.84375 41.421875 45.53125 
Q 43.3125 49.21875 43.3125 52.78125 
Q 43.3125 58.59375 39.234375 62.25 
Q 35.15625 65.921875 28.609375 65.921875 
Q 23.96875 65.921875 18.8125 64.3125 
Q 13.671875 62.703125 7.8125 59.421875 
L 7.8125 69.390625 
Q 13.765625 71.78125 18.9375 73 
Q 24.125 74.21875 28.421875 74.21875 
Q 39.75 74.21875 46.484375 68.546875 
Q 53.21875 62.890625 53.21875 53.421875 
Q 53.21875 48.921875 51.53125 44.890625 
Q 49.859375 40.875 45.40625 35.40625 
Q 44.1875 33.984375 37.640625 27.21875 
Q 31.109375 20.453125 19.1875 8.296875 
z
" id="DejaVuSans-50"/>
       </defs>
       <use xlink:href="#DejaVuSans-49"/>
       <use x="63.623047" xlink:href="#DejaVuSans-50"/>
       <use x="127.246094" xlink:href="#DejaVuSans-48"/>
       <use x="190.869141" xlink:href="#DejaVuSans-48"/>
       <use x="254.492188" xlink:href="#DejaVuSans-48"/>
      </g>
     </g>
    </g>
    <g id="ytick_5">
     <g id="line2d_17">
      <g>
       <use style="stroke:#000000;stroke-width:0.8;" x="63.56" xlink:href="#m9af4656629" y="194.804263"/>
      </g>
     </g>
     <g id="text_18">
      <!-- 14000 -->
      <g transform="translate(24.7475 198.603482)scale(0.1 -0.1)">
       <defs>
        <path d="M 37.796875 64.3125 
L 12.890625 25.390625 
L 37.796875 25.390625 
z
M 35.203125 72.90625 
L 47.609375 72.90625 
L 47.609375 25.390625 
L 58.015625 25.390625 
L 58.015625 17.1875 
L 47.609375 17.1875 
L 47.609375 0 
L 37.796875 0 
L 37.796875 17.1875 
L 4.890625 17.1875 
L 4.890625 26.703125 
z
" id="DejaVuSans-52"/>
       </defs>
       <use xlink:href="#DejaVuSans-49"/>
       <use x="63.623047" xlink:href="#DejaVuSans-52"/>
       <use x="127.246094" xlink:href="#DejaVuSans-48"/>
       <use x="190.869141" xlink:href="#DejaVuSans-48"/>
       <use x="254.492188" xlink:href="#DejaVuSans-48"/>
      </g>
     </g>
    </g>
    <g id="ytick_6">
     <g id="line2d_18">
      <g>
       <use style="stroke:#000000;stroke-width:0.8;" x="63.56" xlink:href="#m9af4656629" y="96.20195"/>
      </g>
     </g>
     <g id="text_19">
      <!-- 16000 -->
      <g transform="translate(24.7475 100.001169)scale(0.1 -0.1)">
       <use xlink:href="#DejaVuSans-49"/>
       <use x="63.623047" xlink:href="#DejaVuSans-54"/>
       <use x="127.246094" xlink:href="#DejaVuSans-48"/>
       <use x="190.869141" xlink:href="#DejaVuSans-48"/>
       <use x="254.492188" xlink:href="#DejaVuSans-48"/>
      </g>
     </g>
    </g>
    <g id="text_20">
     <!-- Drug Usage (Number of Prescriptions) -->
     <g transform="translate(18.667812 410.832188)rotate(-90)scale(0.1 -0.1)">
      <defs>
       <path id="DejaVuSans-32"/>
       <path d="M 8.6875 72.90625 
L 18.609375 72.90625 
L 18.609375 28.609375 
Q 18.609375 16.890625 22.84375 11.734375 
Q 27.09375 6.59375 36.625 6.59375 
Q 46.09375 6.59375 50.34375 11.734375 
Q 54.59375 16.890625 54.59375 28.609375 
L 54.59375 72.90625 
L 64.5 72.90625 
L 64.5 27.390625 
Q 64.5 13.140625 57.4375 5.859375 
Q 50.390625 -1.421875 36.625 -1.421875 
Q 22.796875 -1.421875 15.734375 5.859375 
Q 8.6875 13.140625 8.6875 27.390625 
z
" id="DejaVuSans-85"/>
       <path d="M 44.28125 53.078125 
L 44.28125 44.578125 
Q 40.484375 46.53125 36.375 47.5 
Q 32.28125 48.484375 27.875 48.484375 
Q 21.1875 48.484375 17.84375 46.4375 
Q 14.5 44.390625 14.5 40.28125 
Q 14.5 37.15625 16.890625 35.375 
Q 19.28125 33.59375 26.515625 31.984375 
L 29.59375 31.296875 
Q 39.15625 29.25 43.1875 25.515625 
Q 47.21875 21.78125 47.21875 15.09375 
Q 47.21875 7.46875 41.1875 3.015625 
Q 35.15625 -1.421875 24.609375 -1.421875 
Q 20.21875 -1.421875 15.453125 -0.5625 
Q 10.6875 0.296875 5.421875 2 
L 5.421875 11.28125 
Q 10.40625 8.6875 15.234375 7.390625 
Q 20.0625 6.109375 24.8125 6.109375 
Q 31.15625 6.109375 34.5625 8.28125 
Q 37.984375 10.453125 37.984375 14.40625 
Q 37.984375 18.0625 35.515625 20.015625 
Q 33.0625 21.96875 24.703125 23.78125 
L 21.578125 24.515625 
Q 13.234375 26.265625 9.515625 29.90625 
Q 5.8125 33.546875 5.8125 39.890625 
Q 5.8125 47.609375 11.28125 51.796875 
Q 16.75 56 26.8125 56 
Q 31.78125 56 36.171875 55.265625 
Q 40.578125 54.546875 44.28125 53.078125 
z
" id="DejaVuSans-115"/>
       <path d="M 31 75.875 
Q 24.46875 64.65625 21.28125 53.65625 
Q 18.109375 42.671875 18.109375 31.390625 
Q 18.109375 20.125 21.3125 9.0625 
Q 24.515625 -2 31 -13.1875 
L 23.1875 -13.1875 
Q 15.875 -1.703125 12.234375 9.375 
Q 8.59375 20.453125 8.59375 31.390625 
Q 8.59375 42.28125 12.203125 53.3125 
Q 15.828125 64.359375 23.1875 75.875 
z
" id="DejaVuSans-40"/>
       <path d="M 52 44.1875 
Q 55.375 50.25 60.0625 53.125 
Q 64.75 56 71.09375 56 
Q 79.640625 56 84.28125 50.015625 
Q 88.921875 44.046875 88.921875 33.015625 
L 88.921875 0 
L 79.890625 0 
L 79.890625 32.71875 
Q 79.890625 40.578125 77.09375 44.375 
Q 74.3125 48.1875 68.609375 48.1875 
Q 61.625 48.1875 57.5625 43.546875 
Q 53.515625 38.921875 53.515625 30.90625 
L 53.515625 0 
L 44.484375 0 
L 44.484375 32.71875 
Q 44.484375 40.625 41.703125 44.40625 
Q 38.921875 48.1875 33.109375 48.1875 
Q 26.21875 48.1875 22.15625 43.53125 
Q 18.109375 38.875 18.109375 30.90625 
L 18.109375 0 
L 9.078125 0 
L 9.078125 54.6875 
L 18.109375 54.6875 
L 18.109375 46.1875 
Q 21.1875 51.21875 25.484375 53.609375 
Q 29.78125 56 35.6875 56 
Q 41.65625 56 45.828125 52.96875 
Q 50 49.953125 52 44.1875 
z
" id="DejaVuSans-109"/>
       <path d="M 37.109375 75.984375 
L 37.109375 68.5 
L 28.515625 68.5 
Q 23.6875 68.5 21.796875 66.546875 
Q 19.921875 64.59375 19.921875 59.515625 
L 19.921875 54.6875 
L 34.71875 54.6875 
L 34.71875 47.703125 
L 19.921875 47.703125 
L 19.921875 0 
L 10.890625 0 
L 10.890625 47.703125 
L 2.296875 47.703125 
L 2.296875 54.6875 
L 10.890625 54.6875 
L 10.890625 58.5 
Q 10.890625 67.625 15.140625 71.796875 
Q 19.390625 75.984375 28.609375 75.984375 
z
" id="DejaVuSans-102"/>
       <path d="M 19.671875 64.796875 
L 19.671875 37.40625 
L 32.078125 37.40625 
Q 38.96875 37.40625 42.71875 40.96875 
Q 46.484375 44.53125 46.484375 51.125 
Q 46.484375 57.671875 42.71875 61.234375 
Q 38.96875 64.796875 32.078125 64.796875 
z
M 9.8125 72.90625 
L 32.078125 72.90625 
Q 44.34375 72.90625 50.609375 67.359375 
Q 56.890625 61.8125 56.890625 51.125 
Q 56.890625 40.328125 50.609375 34.8125 
Q 44.34375 29.296875 32.078125 29.296875 
L 19.671875 29.296875 
L 19.671875 0 
L 9.8125 0 
z
" id="DejaVuSans-80"/>
       <path d="M 9.421875 54.6875 
L 18.40625 54.6875 
L 18.40625 0 
L 9.421875 0 
z
M 9.421875 75.984375 
L 18.40625 75.984375 
L 18.40625 64.59375 
L 9.421875 64.59375 
z
" id="DejaVuSans-105"/>
       <path d="M 8.015625 75.875 
L 15.828125 75.875 
Q 23.140625 64.359375 26.78125 53.3125 
Q 30.421875 42.28125 30.421875 31.390625 
Q 30.421875 20.453125 26.78125 9.375 
Q 23.140625 -1.703125 15.828125 -13.1875 
L 8.015625 -13.1875 
Q 14.5 -2 17.703125 9.0625 
Q 20.90625 20.125 20.90625 31.390625 
Q 20.90625 42.671875 17.703125 53.65625 
Q 14.5 64.65625 8.015625 75.875 
z
" id="DejaVuSans-41"/>
      </defs>
      <use xlink:href="#DejaVuSans-68"/>
      <use x="77.001953" xlink:href="#DejaVuSans-114"/>
      <use x="118.115234" xlink:href="#DejaVuSans-117"/>
      <use x="181.494141" xlink:href="#DejaVuSans-103"/>
      <use x="244.970703" xlink:href="#DejaVuSans-32"/>
      <use x="276.757812" xlink:href="#DejaVuSans-85"/>
      <use x="349.951172" xlink:href="#DejaVuSans-115"/>
      <use x="402.050781" xlink:href="#DejaVuSans-97"/>
      <use x="463.330078" xlink:href="#DejaVuSans-103"/>
      <use x="526.806641" xlink:href="#DejaVuSans-101"/>
      <use x="588.330078" xlink:href="#DejaVuSans-32"/>
      <use x="620.117188" xlink:href="#DejaVuSans-40"/>
      <use x="659.130859" xlink:href="#DejaVuSans-78"/>
      <use x="733.935547" xlink:href="#DejaVuSans-117"/>
      <use x="797.314453" xlink:href="#DejaVuSans-109"/>
      <use x="894.726562" xlink:href="#DejaVuSans-98"/>
      <use x="958.203125" xlink:href="#DejaVuSans-101"/>
      <use x="1019.726562" xlink:href="#DejaVuSans-114"/>
      <use x="1060.839844" xlink:href="#DejaVuSans-32"/>
      <use x="1092.626953" xlink:href="#DejaVuSans-111"/>
      <use x="1153.808594" xlink:href="#DejaVuSans-102"/>
      <use x="1189.013672" xlink:href="#DejaVuSans-32"/>
      <use x="1220.800781" xlink:href="#DejaVuSans-80"/>
      <use x="1279.353516" xlink:href="#DejaVuSans-114"/>
      <use x="1318.216797" xlink:href="#DejaVuSans-101"/>
      <use x="1379.740234" xlink:href="#DejaVuSans-115"/>
      <use x="1431.839844" xlink:href="#DejaVuSans-99"/>
      <use x="1486.820312" xlink:href="#DejaVuSans-114"/>
      <use x="1527.933594" xlink:href="#DejaVuSans-105"/>
      <use x="1555.716797" xlink:href="#DejaVuSans-112"/>
      <use x="1619.193359" xlink:href="#DejaVuSans-116"/>
      <use x="1658.402344" xlink:href="#DejaVuSans-105"/>
      <use x="1686.185547" xlink:href="#DejaVuSans-111"/>
      <use x="1747.367188" xlink:href="#DejaVuSans-110"/>
      <use x="1810.746094" xlink:href="#DejaVuSans-115"/>
      <use x="1862.845703" xlink:href="#DejaVuSans-41"/>
     </g>
    </g>
   </g>
   <g id="line2d_19">
    <path clip-path="url(#pbf745c7745)" d="M 112.543636 340.784988 
L 201.604793 382.395164 
L 290.66595 340.094771 
L 379.727107 353.455385 
L 468.788264 349.018281 
L 557.849421 371.006596 
L 646.910579 340.242675 
L 735.971736 302.823097 
L 825.032893 387.76899 
L 914.09405 351.384736 
L 1003.155207 344.137466 
L 1092.216364 340.735686 
" style="fill:none;stroke:#1f77b4;stroke-linecap:square;stroke-width:1.5;"/>
    <defs>
     <path d="M 0 3 
C 0.795609 3 1.55874 2.683901 2.12132 2.12132 
C 2.683901 1.55874 3 0.795609 3 0 
C 3 -0.795609 2.683901 -1.55874 2.12132 -2.12132 
C 1.55874 -2.683901 0.795609 -3 0 -3 
C -0.795609 -3 -1.55874 -2.683901 -2.12132 -2.12132 
C -2.683901 -1.55874 -3 -0.795609 -3 0 
C -3 0.795609 -2.683901 1.55874 -2.12132 2.12132 
C -1.55874 2.683901 -0.795609 3 0 3 
z
" id="mbb760480d6" style="stroke:#1f77b4;"/>
    </defs>
    <g clip-path="url(#pbf745c7745)">
     <use style="fill:#1f77b4;stroke:#1f77b4;" x="112.543636" xlink:href="#mbb760480d6" y="340.784988"/>
     <use style="fill:#1f77b4;stroke:#1f77b4;" x="201.604793" xlink:href="#mbb760480d6" y="382.395164"/>
     <use style="fill:#1f77b4;stroke:#1f77b4;" x="290.66595" xlink:href="#mbb760480d6" y="340.094771"/>
     <use style="fill:#1f77b4;stroke:#1f77b4;" x="379.727107" xlink:href="#mbb760480d6" y="353.455385"/>
     <use style="fill:#1f77b4;stroke:#1f77b4;" x="468.788264" xlink:href="#mbb760480d6" y="349.018281"/>
     <use style="fill:#1f77b4;stroke:#1f77b4;" x="557.849421" xlink:href="#mbb760480d6" y="371.006596"/>
     <use style="fill:#1f77b4;stroke:#1f77b4;" x="646.910579" xlink:href="#mbb760480d6" y="340.242675"/>
     <use style="fill:#1f77b4;stroke:#1f77b4;" x="735.971736" xlink:href="#mbb760480d6" y="302.823097"/>
     <use style="fill:#1f77b4;stroke:#1f77b4;" x="825.032893" xlink:href="#mbb760480d6" y="387.76899"/>
     <use style="fill:#1f77b4;stroke:#1f77b4;" x="914.09405" xlink:href="#mbb760480d6" y="351.384736"/>
     <use style="fill:#1f77b4;stroke:#1f77b4;" x="1003.155207" xlink:href="#mbb760480d6" y="344.137466"/>
     <use style="fill:#1f77b4;stroke:#1f77b4;" x="1092.216364" xlink:href="#mbb760480d6" y="340.735686"/>
    </g>
   </g>
   <g id="line2d_20">
    <path clip-path="url(#pbf745c7745)" d="M 112.543636 549.723289 
L 201.604793 579.649091 
L 290.66595 549.821891 
L 379.727107 562.935999 
L 468.788264 548.04705 
L 557.849421 574.817578 
L 646.910579 565.499659 
L 735.971736 556.625451 
L 825.032893 572.79623 
L 914.09405 558.844003 
L 1003.155207 559.435617 
L 1092.216364 558.696099 
" style="fill:none;stroke:#ff7f0e;stroke-linecap:square;stroke-width:1.5;"/>
    <defs>
     <path d="M 0 3 
C 0.795609 3 1.55874 2.683901 2.12132 2.12132 
C 2.683901 1.55874 3 0.795609 3 0 
C 3 -0.795609 2.683901 -1.55874 2.12132 -2.12132 
C 1.55874 -2.683901 0.795609 -3 0 -3 
C -0.795609 -3 -1.55874 -2.683901 -2.12132 -2.12132 
C -2.683901 -1.55874 -3 -0.795609 -3 0 
C -3 0.795609 -2.683901 1.55874 -2.12132 2.12132 
C -1.55874 2.683901 -0.795609 3 0 3 
z
" id="mf2bbc72cb6" style="stroke:#ff7f0e;"/>
    </defs>
    <g clip-path="url(#pbf745c7745)">
     <use style="fill:#ff7f0e;stroke:#ff7f0e;" x="112.543636" xlink:href="#mf2bbc72cb6" y="549.723289"/>
     <use style="fill:#ff7f0e;stroke:#ff7f0e;" x="201.604793" xlink:href="#mf2bbc72cb6" y="579.649091"/>
     <use style="fill:#ff7f0e;stroke:#ff7f0e;" x="290.66595" xlink:href="#mf2bbc72cb6" y="549.821891"/>
     <use style="fill:#ff7f0e;stroke:#ff7f0e;" x="379.727107" xlink:href="#mf2bbc72cb6" y="562.935999"/>
     <use style="fill:#ff7f0e;stroke:#ff7f0e;" x="468.788264" xlink:href="#mf2bbc72cb6" y="548.04705"/>
     <use style="fill:#ff7f0e;stroke:#ff7f0e;" x="557.849421" xlink:href="#mf2bbc72cb6" y="574.817578"/>
     <use style="fill:#ff7f0e;stroke:#ff7f0e;" x="646.910579" xlink:href="#mf2bbc72cb6" y="565.499659"/>
     <use style="fill:#ff7f0e;stroke:#ff7f0e;" x="735.971736" xlink:href="#mf2bbc72cb6" y="556.625451"/>
     <use style="fill:#ff7f0e;stroke:#ff7f0e;" x="825.032893" xlink:href="#mf2bbc72cb6" y="572.79623"/>
     <use style="fill:#ff7f0e;stroke:#ff7f0e;" x="914.09405" xlink:href="#mf2bbc72cb6" y="558.844003"/>
     <use style="fill:#ff7f0e;stroke:#ff7f0e;" x="1003.155207" xlink:href="#mf2bbc72cb6" y="559.435617"/>
     <use style="fill:#ff7f0e;stroke:#ff7f0e;" x="1092.216364" xlink:href="#mf2bbc72cb6" y="558.696099"/>
    </g>
   </g>
   <g id="line2d_21">
    <path clip-path="url(#pbf745c7745)" d="M 112.543636 254.261458 
L 201.604793 302.823097 
L 290.66595 284.778874 
L 379.727107 315.986506 
L 468.788264 332.403791 
L 557.849421 334.91815 
L 646.910579 339.108748 
L 735.971736 290.251302 
L 825.032893 304.154228 
L 914.09405 302.132881 
L 1003.155207 296.512549 
L 1092.216364 250.268064 
" style="fill:none;stroke:#2ca02c;stroke-linecap:square;stroke-width:1.5;"/>
    <defs>
     <path d="M 0 3 
C 0.795609 3 1.55874 2.683901 2.12132 2.12132 
C 2.683901 1.55874 3 0.795609 3 0 
C 3 -0.795609 2.683901 -1.55874 2.12132 -2.12132 
C 1.55874 -2.683901 0.795609 -3 0 -3 
C -0.795609 -3 -1.55874 -2.683901 -2.12132 -2.12132 
C -2.683901 -1.55874 -3 -0.795609 -3 0 
C -3 0.795609 -2.683901 1.55874 -2.12132 2.12132 
C -1.55874 2.683901 -0.795609 3 0 3 
z
" id="m244f39b51b" style="stroke:#2ca02c;"/>
    </defs>
    <g clip-path="url(#pbf745c7745)">
     <use style="fill:#2ca02c;stroke:#2ca02c;" x="112.543636" xlink:href="#m244f39b51b" y="254.261458"/>
     <use style="fill:#2ca02c;stroke:#2ca02c;" x="201.604793" xlink:href="#m244f39b51b" y="302.823097"/>
     <use style="fill:#2ca02c;stroke:#2ca02c;" x="290.66595" xlink:href="#m244f39b51b" y="284.778874"/>
     <use style="fill:#2ca02c;stroke:#2ca02c;" x="379.727107" xlink:href="#m244f39b51b" y="315.986506"/>
     <use style="fill:#2ca02c;stroke:#2ca02c;" x="468.788264" xlink:href="#m244f39b51b" y="332.403791"/>
     <use style="fill:#2ca02c;stroke:#2ca02c;" x="557.849421" xlink:href="#m244f39b51b" y="334.91815"/>
     <use style="fill:#2ca02c;stroke:#2ca02c;" x="646.910579" xlink:href="#m244f39b51b" y="339.108748"/>
     <use style="fill:#2ca02c;stroke:#2ca02c;" x="735.971736" xlink:href="#m244f39b51b" y="290.251302"/>
     <use style="fill:#2ca02c;stroke:#2ca02c;" x="825.032893" xlink:href="#m244f39b51b" y="304.154228"/>
     <use style="fill:#2ca02c;stroke:#2ca02c;" x="914.09405" xlink:href="#m244f39b51b" y="302.132881"/>
     <use style="fill:#2ca02c;stroke:#2ca02c;" x="1003.155207" xlink:href="#m244f39b51b" y="296.512549"/>
     <use style="fill:#2ca02c;stroke:#2ca02c;" x="1092.216364" xlink:href="#m244f39b51b" y="250.268064"/>
    </g>
   </g>
   <g id="line2d_22">
    <path clip-path="url(#pbf745c7745)" d="M 112.543636 302.52729 
L 201.604793 351.088929 
L 290.66595 289.31458 
L 379.727107 326.191845 
L 468.788264 344.088165 
L 557.849421 355.526033 
L 646.910579 371.894017 
L 735.971736 326.980664 
L 825.032893 369.182454 
L 914.09405 335.904173 
L 1003.155207 358.484103 
L 1092.216364 326.487652 
" style="fill:none;stroke:#d62728;stroke-linecap:square;stroke-width:1.5;"/>
    <defs>
     <path d="M 0 3 
C 0.795609 3 1.55874 2.683901 2.12132 2.12132 
C 2.683901 1.55874 3 0.795609 3 0 
C 3 -0.795609 2.683901 -1.55874 2.12132 -2.12132 
C 1.55874 -2.683901 0.795609 -3 0 -3 
C -0.795609 -3 -1.55874 -2.683901 -2.12132 -2.12132 
C -2.683901 -1.55874 -3 -0.795609 -3 0 
C -3 0.795609 -2.683901 1.55874 -2.12132 2.12132 
C -1.55874 2.683901 -0.795609 3 0 3 
z
" id="me9a6415f4f" style="stroke:#d62728;"/>
    </defs>
    <g clip-path="url(#pbf745c7745)">
     <use style="fill:#d62728;stroke:#d62728;" x="112.543636" xlink:href="#me9a6415f4f" y="302.52729"/>
     <use style="fill:#d62728;stroke:#d62728;" x="201.604793" xlink:href="#me9a6415f4f" y="351.088929"/>
     <use style="fill:#d62728;stroke:#d62728;" x="290.66595" xlink:href="#me9a6415f4f" y="289.31458"/>
     <use style="fill:#d62728;stroke:#d62728;" x="379.727107" xlink:href="#me9a6415f4f" y="326.191845"/>
     <use style="fill:#d62728;stroke:#d62728;" x="468.788264" xlink:href="#me9a6415f4f" y="344.088165"/>
     <use style="fill:#d62728;stroke:#d62728;" x="557.849421" xlink:href="#me9a6415f4f" y="355.526033"/>
     <use style="fill:#d62728;stroke:#d62728;" x="646.910579" xlink:href="#me9a6415f4f" y="371.894017"/>
     <use style="fill:#d62728;stroke:#d62728;" x="735.971736" xlink:href="#me9a6415f4f" y="326.980664"/>
     <use style="fill:#d62728;stroke:#d62728;" x="825.032893" xlink:href="#me9a6415f4f" y="369.182454"/>
     <use style="fill:#d62728;stroke:#d62728;" x="914.09405" xlink:href="#me9a6415f4f" y="335.904173"/>
     <use style="fill:#d62728;stroke:#d62728;" x="1003.155207" xlink:href="#me9a6415f4f" y="358.484103"/>
     <use style="fill:#d62728;stroke:#d62728;" x="1092.216364" xlink:href="#me9a6415f4f" y="326.487652"/>
    </g>
   </g>
   <g id="line2d_23">
    <path clip-path="url(#pbf745c7745)" d="M 112.543636 260.3255 
L 201.604793 297.153464 
L 290.66595 286.553715 
L 379.727107 305.485359 
L 468.788264 296.11814 
L 557.849421 304.055626 
L 646.910579 317.120432 
L 735.971736 282.658924 
L 825.032893 319.191081 
L 914.09405 299.815726 
L 1003.155207 303.464012 
L 1092.216364 275.559557 
" style="fill:none;stroke:#9467bd;stroke-linecap:square;stroke-width:1.5;"/>
    <defs>
     <path d="M 0 3 
C 0.795609 3 1.55874 2.683901 2.12132 2.12132 
C 2.683901 1.55874 3 0.795609 3 0 
C 3 -0.795609 2.683901 -1.55874 2.12132 -2.12132 
C 1.55874 -2.683901 0.795609 -3 0 -3 
C -0.795609 -3 -1.55874 -2.683901 -2.12132 -2.12132 
C -2.683901 -1.55874 -3 -0.795609 -3 0 
C -3 0.795609 -2.683901 1.55874 -2.12132 2.12132 
C -1.55874 2.683901 -0.795609 3 0 3 
z
" id="med788274bb" style="stroke:#9467bd;"/>
    </defs>
    <g clip-path="url(#pbf745c7745)">
     <use style="fill:#9467bd;stroke:#9467bd;" x="112.543636" xlink:href="#med788274bb" y="260.3255"/>
     <use style="fill:#9467bd;stroke:#9467bd;" x="201.604793" xlink:href="#med788274bb" y="297.153464"/>
     <use style="fill:#9467bd;stroke:#9467bd;" x="290.66595" xlink:href="#med788274bb" y="286.553715"/>
     <use style="fill:#9467bd;stroke:#9467bd;" x="379.727107" xlink:href="#med788274bb" y="305.485359"/>
     <use style="fill:#9467bd;stroke:#9467bd;" x="468.788264" xlink:href="#med788274bb" y="296.11814"/>
     <use style="fill:#9467bd;stroke:#9467bd;" x="557.849421" xlink:href="#med788274bb" y="304.055626"/>
     <use style="fill:#9467bd;stroke:#9467bd;" x="646.910579" xlink:href="#med788274bb" y="317.120432"/>
     <use style="fill:#9467bd;stroke:#9467bd;" x="735.971736" xlink:href="#med788274bb" y="282.658924"/>
     <use style="fill:#9467bd;stroke:#9467bd;" x="825.032893" xlink:href="#med788274bb" y="319.191081"/>
     <use style="fill:#9467bd;stroke:#9467bd;" x="914.09405" xlink:href="#med788274bb" y="299.815726"/>
     <use style="fill:#9467bd;stroke:#9467bd;" x="1003.155207" xlink:href="#med788274bb" y="303.464012"/>
     <use style="fill:#9467bd;stroke:#9467bd;" x="1092.216364" xlink:href="#med788274bb" y="275.559557"/>
    </g>
   </g>
   <g id="line2d_24">
    <path clip-path="url(#pbf745c7745)" d="M 112.543636 509.641449 
L 201.604793 544.941077 
L 290.66595 516.247804 
L 379.727107 529.904224 
L 468.788264 518.417054 
L 557.849421 527.833575 
L 646.910579 523.297869 
L 735.971736 504.021117 
L 825.032893 541.588598 
L 914.09405 547.849845 
L 1003.155207 537.891011 
L 1092.216364 529.164707 
" style="fill:none;stroke:#8c564b;stroke-linecap:square;stroke-width:1.5;"/>
    <defs>
     <path d="M 0 3 
C 0.795609 3 1.55874 2.683901 2.12132 2.12132 
C 2.683901 1.55874 3 0.795609 3 0 
C 3 -0.795609 2.683901 -1.55874 2.12132 -2.12132 
C 1.55874 -2.683901 0.795609 -3 0 -3 
C -0.795609 -3 -1.55874 -2.683901 -2.12132 -2.12132 
C -2.683901 -1.55874 -3 -0.795609 -3 0 
C -3 0.795609 -2.683901 1.55874 -2.12132 2.12132 
C -1.55874 2.683901 -0.795609 3 0 3 
z
" id="m7da7ea8008" style="stroke:#8c564b;"/>
    </defs>
    <g clip-path="url(#pbf745c7745)">
     <use style="fill:#8c564b;stroke:#8c564b;" x="112.543636" xlink:href="#m7da7ea8008" y="509.641449"/>
     <use style="fill:#8c564b;stroke:#8c564b;" x="201.604793" xlink:href="#m7da7ea8008" y="544.941077"/>
     <use style="fill:#8c564b;stroke:#8c564b;" x="290.66595" xlink:href="#m7da7ea8008" y="516.247804"/>
     <use style="fill:#8c564b;stroke:#8c564b;" x="379.727107" xlink:href="#m7da7ea8008" y="529.904224"/>
     <use style="fill:#8c564b;stroke:#8c564b;" x="468.788264" xlink:href="#m7da7ea8008" y="518.417054"/>
     <use style="fill:#8c564b;stroke:#8c564b;" x="557.849421" xlink:href="#m7da7ea8008" y="527.833575"/>
     <use style="fill:#8c564b;stroke:#8c564b;" x="646.910579" xlink:href="#m7da7ea8008" y="523.297869"/>
     <use style="fill:#8c564b;stroke:#8c564b;" x="735.971736" xlink:href="#m7da7ea8008" y="504.021117"/>
     <use style="fill:#8c564b;stroke:#8c564b;" x="825.032893" xlink:href="#m7da7ea8008" y="541.588598"/>
     <use style="fill:#8c564b;stroke:#8c564b;" x="914.09405" xlink:href="#m7da7ea8008" y="547.849845"/>
     <use style="fill:#8c564b;stroke:#8c564b;" x="1003.155207" xlink:href="#m7da7ea8008" y="537.891011"/>
     <use style="fill:#8c564b;stroke:#8c564b;" x="1092.216364" xlink:href="#m7da7ea8008" y="529.164707"/>
    </g>
   </g>
   <g id="line2d_25">
    <path clip-path="url(#pbf745c7745)" d="M 112.543636 496.576642 
L 201.604793 517.825441 
L 290.66595 491.646527 
L 379.727107 513.684143 
L 468.788264 510.528869 
L 557.849421 530.988849 
L 646.910579 524.530398 
L 735.971736 511.514893 
L 825.032893 527.044757 
L 914.09405 527.537768 
L 1003.155207 510.676773 
L 1092.216364 499.48541 
" style="fill:none;stroke:#e377c2;stroke-linecap:square;stroke-width:1.5;"/>
    <defs>
     <path d="M 0 3 
C 0.795609 3 1.55874 2.683901 2.12132 2.12132 
C 2.683901 1.55874 3 0.795609 3 0 
C 3 -0.795609 2.683901 -1.55874 2.12132 -2.12132 
C 1.55874 -2.683901 0.795609 -3 0 -3 
C -0.795609 -3 -1.55874 -2.683901 -2.12132 -2.12132 
C -2.683901 -1.55874 -3 -0.795609 -3 0 
C -3 0.795609 -2.683901 1.55874 -2.12132 2.12132 
C -1.55874 2.683901 -0.795609 3 0 3 
z
" id="m10648a5bbb" style="stroke:#e377c2;"/>
    </defs>
    <g clip-path="url(#pbf745c7745)">
     <use style="fill:#e377c2;stroke:#e377c2;" x="112.543636" xlink:href="#m10648a5bbb" y="496.576642"/>
     <use style="fill:#e377c2;stroke:#e377c2;" x="201.604793" xlink:href="#m10648a5bbb" y="517.825441"/>
     <use style="fill:#e377c2;stroke:#e377c2;" x="290.66595" xlink:href="#m10648a5bbb" y="491.646527"/>
     <use style="fill:#e377c2;stroke:#e377c2;" x="379.727107" xlink:href="#m10648a5bbb" y="513.684143"/>
     <use style="fill:#e377c2;stroke:#e377c2;" x="468.788264" xlink:href="#m10648a5bbb" y="510.528869"/>
     <use style="fill:#e377c2;stroke:#e377c2;" x="557.849421" xlink:href="#m10648a5bbb" y="530.988849"/>
     <use style="fill:#e377c2;stroke:#e377c2;" x="646.910579" xlink:href="#m10648a5bbb" y="524.530398"/>
     <use style="fill:#e377c2;stroke:#e377c2;" x="735.971736" xlink:href="#m10648a5bbb" y="511.514893"/>
     <use style="fill:#e377c2;stroke:#e377c2;" x="825.032893" xlink:href="#m10648a5bbb" y="527.044757"/>
     <use style="fill:#e377c2;stroke:#e377c2;" x="914.09405" xlink:href="#m10648a5bbb" y="527.537768"/>
     <use style="fill:#e377c2;stroke:#e377c2;" x="1003.155207" xlink:href="#m10648a5bbb" y="510.676773"/>
     <use style="fill:#e377c2;stroke:#e377c2;" x="1092.216364" xlink:href="#m10648a5bbb" y="499.48541"/>
    </g>
   </g>
   <g id="line2d_26">
    <path clip-path="url(#pbf745c7745)" d="M 112.543636 317.958552 
L 201.604793 371.1545 
L 290.66595 348.328064 
L 379.727107 368.886647 
L 468.788264 356.758562 
L 557.849421 381.951453 
L 646.910579 349.560593 
L 735.971736 306.37278 
L 825.032893 339.946868 
L 914.09405 383.874198 
L 1003.155207 357.202273 
L 1092.216364 342.362625 
" style="fill:none;stroke:#7f7f7f;stroke-linecap:square;stroke-width:1.5;"/>
    <defs>
     <path d="M 0 3 
C 0.795609 3 1.55874 2.683901 2.12132 2.12132 
C 2.683901 1.55874 3 0.795609 3 0 
C 3 -0.795609 2.683901 -1.55874 2.12132 -2.12132 
C 1.55874 -2.683901 0.795609 -3 0 -3 
C -0.795609 -3 -1.55874 -2.683901 -2.12132 -2.12132 
C -2.683901 -1.55874 -3 -0.795609 -3 0 
C -3 0.795609 -2.683901 1.55874 -2.12132 2.12132 
C -1.55874 2.683901 -0.795609 3 0 3 
z
" id="maec9a82c52" style="stroke:#7f7f7f;"/>
    </defs>
    <g clip-path="url(#pbf745c7745)">
     <use style="fill:#7f7f7f;stroke:#7f7f7f;" x="112.543636" xlink:href="#maec9a82c52" y="317.958552"/>
     <use style="fill:#7f7f7f;stroke:#7f7f7f;" x="201.604793" xlink:href="#maec9a82c52" y="371.1545"/>
     <use style="fill:#7f7f7f;stroke:#7f7f7f;" x="290.66595" xlink:href="#maec9a82c52" y="348.328064"/>
     <use style="fill:#7f7f7f;stroke:#7f7f7f;" x="379.727107" xlink:href="#maec9a82c52" y="368.886647"/>
     <use style="fill:#7f7f7f;stroke:#7f7f7f;" x="468.788264" xlink:href="#maec9a82c52" y="356.758562"/>
     <use style="fill:#7f7f7f;stroke:#7f7f7f;" x="557.849421" xlink:href="#maec9a82c52" y="381.951453"/>
     <use style="fill:#7f7f7f;stroke:#7f7f7f;" x="646.910579" xlink:href="#maec9a82c52" y="349.560593"/>
     <use style="fill:#7f7f7f;stroke:#7f7f7f;" x="735.971736" xlink:href="#maec9a82c52" y="306.37278"/>
     <use style="fill:#7f7f7f;stroke:#7f7f7f;" x="825.032893" xlink:href="#maec9a82c52" y="339.946868"/>
     <use style="fill:#7f7f7f;stroke:#7f7f7f;" x="914.09405" xlink:href="#maec9a82c52" y="383.874198"/>
     <use style="fill:#7f7f7f;stroke:#7f7f7f;" x="1003.155207" xlink:href="#maec9a82c52" y="357.202273"/>
     <use style="fill:#7f7f7f;stroke:#7f7f7f;" x="1092.216364" xlink:href="#maec9a82c52" y="342.362625"/>
    </g>
   </g>
   <g id="line2d_27">
    <path clip-path="url(#pbf745c7745)" d="M 112.543636 51.830909 
L 201.604793 108.231432 
L 290.66595 60.40931 
L 379.727107 99.160019 
L 468.788264 74.755947 
L 557.849421 115.478702 
L 646.910579 98.026093 
L 735.971736 62.97297 
L 825.032893 123.366887 
L 914.09405 115.232196 
L 1003.155207 122.824574 
L 1092.216364 73.079708 
" style="fill:none;stroke:#bcbd22;stroke-linecap:square;stroke-width:1.5;"/>
    <defs>
     <path d="M 0 3 
C 0.795609 3 1.55874 2.683901 2.12132 2.12132 
C 2.683901 1.55874 3 0.795609 3 0 
C 3 -0.795609 2.683901 -1.55874 2.12132 -2.12132 
C 1.55874 -2.683901 0.795609 -3 0 -3 
C -0.795609 -3 -1.55874 -2.683901 -2.12132 -2.12132 
C -2.683901 -1.55874 -3 -0.795609 -3 0 
C -3 0.795609 -2.683901 1.55874 -2.12132 2.12132 
C -1.55874 2.683901 -0.795609 3 0 3 
z
" id="m4d655c891f" style="stroke:#bcbd22;"/>
    </defs>
    <g clip-path="url(#pbf745c7745)">
     <use style="fill:#bcbd22;stroke:#bcbd22;" x="112.543636" xlink:href="#m4d655c891f" y="51.830909"/>
     <use style="fill:#bcbd22;stroke:#bcbd22;" x="201.604793" xlink:href="#m4d655c891f" y="108.231432"/>
     <use style="fill:#bcbd22;stroke:#bcbd22;" x="290.66595" xlink:href="#m4d655c891f" y="60.40931"/>
     <use style="fill:#bcbd22;stroke:#bcbd22;" x="379.727107" xlink:href="#m4d655c891f" y="99.160019"/>
     <use style="fill:#bcbd22;stroke:#bcbd22;" x="468.788264" xlink:href="#m4d655c891f" y="74.755947"/>
     <use style="fill:#bcbd22;stroke:#bcbd22;" x="557.849421" xlink:href="#m4d655c891f" y="115.478702"/>
     <use style="fill:#bcbd22;stroke:#bcbd22;" x="646.910579" xlink:href="#m4d655c891f" y="98.026093"/>
     <use style="fill:#bcbd22;stroke:#bcbd22;" x="735.971736" xlink:href="#m4d655c891f" y="62.97297"/>
     <use style="fill:#bcbd22;stroke:#bcbd22;" x="825.032893" xlink:href="#m4d655c891f" y="123.366887"/>
     <use style="fill:#bcbd22;stroke:#bcbd22;" x="914.09405" xlink:href="#m4d655c891f" y="115.232196"/>
     <use style="fill:#bcbd22;stroke:#bcbd22;" x="1003.155207" xlink:href="#m4d655c891f" y="122.824574"/>
     <use style="fill:#bcbd22;stroke:#bcbd22;" x="1092.216364" xlink:href="#m4d655c891f" y="73.079708"/>
    </g>
   </g>
   <g id="line2d_28">
    <path clip-path="url(#pbf745c7745)" d="M 112.543636 549.230277 
L 201.604793 569.443752 
L 290.66595 547.20893 
L 379.727107 536.658482 
L 468.788264 527.291263 
L 557.849421 531.038151 
L 646.910579 519.304475 
L 735.971736 517.578935 
L 825.032893 545.9271 
L 914.09405 546.715918 
L 1003.155207 563.182505 
L 1092.216364 555.343621 
" style="fill:none;stroke:#17becf;stroke-linecap:square;stroke-width:1.5;"/>
    <defs>
     <path d="M 0 3 
C 0.795609 3 1.55874 2.683901 2.12132 2.12132 
C 2.683901 1.55874 3 0.795609 3 0 
C 3 -0.795609 2.683901 -1.55874 2.12132 -2.12132 
C 1.55874 -2.683901 0.795609 -3 0 -3 
C -0.795609 -3 -1.55874 -2.683901 -2.12132 -2.12132 
C -2.683901 -1.55874 -3 -0.795609 -3 0 
C -3 0.795609 -2.683901 1.55874 -2.12132 2.12132 
C -1.55874 2.683901 -0.795609 3 0 3 
z
" id="m5ed115ad03" style="stroke:#17becf;"/>
    </defs>
    <g clip-path="url(#pbf745c7745)">
     <use style="fill:#17becf;stroke:#17becf;" x="112.543636" xlink:href="#m5ed115ad03" y="549.230277"/>
     <use style="fill:#17becf;stroke:#17becf;" x="201.604793" xlink:href="#m5ed115ad03" y="569.443752"/>
     <use style="fill:#17becf;stroke:#17becf;" x="290.66595" xlink:href="#m5ed115ad03" y="547.20893"/>
     <use style="fill:#17becf;stroke:#17becf;" x="379.727107" xlink:href="#m5ed115ad03" y="536.658482"/>
     <use style="fill:#17becf;stroke:#17becf;" x="468.788264" xlink:href="#m5ed115ad03" y="527.291263"/>
     <use style="fill:#17becf;stroke:#17becf;" x="557.849421" xlink:href="#m5ed115ad03" y="531.038151"/>
     <use style="fill:#17becf;stroke:#17becf;" x="646.910579" xlink:href="#m5ed115ad03" y="519.304475"/>
     <use style="fill:#17becf;stroke:#17becf;" x="735.971736" xlink:href="#m5ed115ad03" y="517.578935"/>
     <use style="fill:#17becf;stroke:#17becf;" x="825.032893" xlink:href="#m5ed115ad03" y="545.9271"/>
     <use style="fill:#17becf;stroke:#17becf;" x="914.09405" xlink:href="#m5ed115ad03" y="546.715918"/>
     <use style="fill:#17becf;stroke:#17becf;" x="1003.155207" xlink:href="#m5ed115ad03" y="563.182505"/>
     <use style="fill:#17becf;stroke:#17becf;" x="1092.216364" xlink:href="#m5ed115ad03" y="555.343621"/>
    </g>
   </g>
   <g id="patch_3">
    <path d="M 63.56 606.04 
L 63.56 25.44 
" style="fill:none;stroke:#000000;stroke-linecap:square;stroke-linejoin:miter;stroke-width:0.8;"/>
   </g>
   <g id="patch_4">
    <path d="M 1141.2 606.04 
L 1141.2 25.44 
" style="fill:none;stroke:#000000;stroke-linecap:square;stroke-linejoin:miter;stroke-width:0.8;"/>
   </g>
   <g id="patch_5">
    <path d="M 63.56 606.04 
L 1141.2 606.04 
" style="fill:none;stroke:#000000;stroke-linecap:square;stroke-linejoin:miter;stroke-width:0.8;"/>
   </g>
   <g id="patch_6">
    <path d="M 63.56 25.44 
L 1141.2 25.44 
" style="fill:none;stroke:#000000;stroke-linecap:square;stroke-linejoin:miter;stroke-width:0.8;"/>
   </g>
   <g id="text_21">
    <!-- Top 10 Drug Usage Across Different Months -->
    <g transform="translate(471.92125 19.44)scale(0.12 -0.12)">
     <defs>
      <path d="M -0.296875 72.90625 
L 61.375 72.90625 
L 61.375 64.59375 
L 35.5 64.59375 
L 35.5 0 
L 25.59375 0 
L 25.59375 64.59375 
L -0.296875 64.59375 
z
" id="DejaVuSans-84"/>
     </defs>
     <use xlink:href="#DejaVuSans-84"/>
     <use x="44.083984" xlink:href="#DejaVuSans-111"/>
     <use x="105.265625" xlink:href="#DejaVuSans-112"/>
     <use x="168.742188" xlink:href="#DejaVuSans-32"/>
     <use x="200.529297" xlink:href="#DejaVuSans-49"/>
     <use x="264.152344" xlink:href="#DejaVuSans-48"/>
     <use x="327.775391" xlink:href="#DejaVuSans-32"/>
     <use x="359.5625" xlink:href="#DejaVuSans-68"/>
     <use x="436.564453" xlink:href="#DejaVuSans-114"/>
     <use x="477.677734" xlink:href="#DejaVuSans-117"/>
     <use x="541.056641" xlink:href="#DejaVuSans-103"/>
     <use x="604.533203" xlink:href="#DejaVuSans-32"/>
     <use x="636.320312" xlink:href="#DejaVuSans-85"/>
     <use x="709.513672" xlink:href="#DejaVuSans-115"/>
     <use x="761.613281" xlink:href="#DejaVuSans-97"/>
     <use x="822.892578" xlink:href="#DejaVuSans-103"/>
     <use x="886.369141" xlink:href="#DejaVuSans-101"/>
     <use x="947.892578" xlink:href="#DejaVuSans-32"/>
     <use x="979.679688" xlink:href="#DejaVuSans-65"/>
     <use x="1046.337891" xlink:href="#DejaVuSans-99"/>
     <use x="1101.318359" xlink:href="#DejaVuSans-114"/>
     <use x="1140.181641" xlink:href="#DejaVuSans-111"/>
     <use x="1201.363281" xlink:href="#DejaVuSans-115"/>
     <use x="1253.462891" xlink:href="#DejaVuSans-115"/>
     <use x="1305.5625" xlink:href="#DejaVuSans-32"/>
     <use x="1337.349609" xlink:href="#DejaVuSans-68"/>
     <use x="1414.351562" xlink:href="#DejaVuSans-105"/>
     <use x="1442.134766" xlink:href="#DejaVuSans-102"/>
     <use x="1477.339844" xlink:href="#DejaVuSans-102"/>
     <use x="1512.544922" xlink:href="#DejaVuSans-101"/>
     <use x="1574.068359" xlink:href="#DejaVuSans-114"/>
     <use x="1612.931641" xlink:href="#DejaVuSans-101"/>
     <use x="1674.455078" xlink:href="#DejaVuSans-110"/>
     <use x="1737.833984" xlink:href="#DejaVuSans-116"/>
     <use x="1777.042969" xlink:href="#DejaVuSans-32"/>
     <use x="1808.830078" xlink:href="#DejaVuSans-77"/>
     <use x="1895.109375" xlink:href="#DejaVuSans-111"/>
     <use x="1956.291016" xlink:href="#DejaVuSans-110"/>
     <use x="2019.669922" xlink:href="#DejaVuSans-116"/>
     <use x="2058.878906" xlink:href="#DejaVuSans-104"/>
     <use x="2122.257812" xlink:href="#DejaVuSans-115"/>
    </g>
   </g>
   <g id="legend_1">
    <g id="patch_7">
     <path d="M 70.56 194.899375 
L 246.370937 194.899375 
Q 248.370937 194.899375 248.370937 192.899375 
L 248.370937 32.44 
Q 248.370937 30.44 246.370937 30.44 
L 70.56 30.44 
Q 68.56 30.44 68.56 32.44 
L 68.56 192.899375 
Q 68.56 194.899375 70.56 194.899375 
z
" style="fill:#ffffff;opacity:0.8;stroke:#cccccc;stroke-linejoin:miter;"/>
    </g>
    <g id="text_22">
     <!-- Drugs -->
     <g transform="translate(143.612344 42.038437)scale(0.1 -0.1)">
      <use xlink:href="#DejaVuSans-68"/>
      <use x="77.001953" xlink:href="#DejaVuSans-114"/>
      <use x="118.115234" xlink:href="#DejaVuSans-117"/>
      <use x="181.494141" xlink:href="#DejaVuSans-103"/>
      <use x="244.970703" xlink:href="#DejaVuSans-115"/>
     </g>
    </g>
    <g id="line2d_29">
     <path d="M 72.56 53.216563 
L 92.56 53.216563 
" style="fill:none;stroke:#1f77b4;stroke-linecap:square;stroke-width:1.5;"/>
    </g>
    <g id="line2d_30">
     <g>
      <use style="fill:#1f77b4;stroke:#1f77b4;" x="82.56" xlink:href="#mbb760480d6" y="53.216563"/>
     </g>
    </g>
    <g id="text_23">
     <!-- 0.9% Sodium Chloride -->
     <g transform="translate(100.56 56.716563)scale(0.1 -0.1)">
      <defs>
       <path d="M 10.6875 12.40625 
L 21 12.40625 
L 21 0 
L 10.6875 0 
z
" id="DejaVuSans-46"/>
       <path d="M 10.984375 1.515625 
L 10.984375 10.5 
Q 14.703125 8.734375 18.5 7.8125 
Q 22.3125 6.890625 25.984375 6.890625 
Q 35.75 6.890625 40.890625 13.453125 
Q 46.046875 20.015625 46.78125 33.40625 
Q 43.953125 29.203125 39.59375 26.953125 
Q 35.25 24.703125 29.984375 24.703125 
Q 19.046875 24.703125 12.671875 31.3125 
Q 6.296875 37.9375 6.296875 49.421875 
Q 6.296875 60.640625 12.9375 67.421875 
Q 19.578125 74.21875 30.609375 74.21875 
Q 43.265625 74.21875 49.921875 64.515625 
Q 56.59375 54.828125 56.59375 36.375 
Q 56.59375 19.140625 48.40625 8.859375 
Q 40.234375 -1.421875 26.421875 -1.421875 
Q 22.703125 -1.421875 18.890625 -0.6875 
Q 15.09375 0.046875 10.984375 1.515625 
z
M 30.609375 32.421875 
Q 37.25 32.421875 41.125 36.953125 
Q 45.015625 41.5 45.015625 49.421875 
Q 45.015625 57.28125 41.125 61.84375 
Q 37.25 66.40625 30.609375 66.40625 
Q 23.96875 66.40625 20.09375 61.84375 
Q 16.21875 57.28125 16.21875 49.421875 
Q 16.21875 41.5 20.09375 36.953125 
Q 23.96875 32.421875 30.609375 32.421875 
z
" id="DejaVuSans-57"/>
       <path d="M 72.703125 32.078125 
Q 68.453125 32.078125 66.03125 28.46875 
Q 63.625 24.859375 63.625 18.40625 
Q 63.625 12.0625 66.03125 8.421875 
Q 68.453125 4.78125 72.703125 4.78125 
Q 76.859375 4.78125 79.265625 8.421875 
Q 81.6875 12.0625 81.6875 18.40625 
Q 81.6875 24.8125 79.265625 28.4375 
Q 76.859375 32.078125 72.703125 32.078125 
z
M 72.703125 38.28125 
Q 80.421875 38.28125 84.953125 32.90625 
Q 89.5 27.546875 89.5 18.40625 
Q 89.5 9.28125 84.9375 3.921875 
Q 80.375 -1.421875 72.703125 -1.421875 
Q 64.890625 -1.421875 60.34375 3.921875 
Q 55.8125 9.28125 55.8125 18.40625 
Q 55.8125 27.59375 60.375 32.9375 
Q 64.9375 38.28125 72.703125 38.28125 
z
M 22.3125 68.015625 
Q 18.109375 68.015625 15.6875 64.375 
Q 13.28125 60.75 13.28125 54.390625 
Q 13.28125 47.953125 15.671875 44.328125 
Q 18.0625 40.71875 22.3125 40.71875 
Q 26.5625 40.71875 28.96875 44.328125 
Q 31.390625 47.953125 31.390625 54.390625 
Q 31.390625 60.6875 28.953125 64.34375 
Q 26.515625 68.015625 22.3125 68.015625 
z
M 66.40625 74.21875 
L 74.21875 74.21875 
L 28.609375 -1.421875 
L 20.796875 -1.421875 
z
M 22.3125 74.21875 
Q 30.03125 74.21875 34.609375 68.875 
Q 39.203125 63.53125 39.203125 54.390625 
Q 39.203125 45.171875 34.640625 39.84375 
Q 30.078125 34.515625 22.3125 34.515625 
Q 14.546875 34.515625 10.03125 39.859375 
Q 5.515625 45.21875 5.515625 54.390625 
Q 5.515625 63.484375 10.046875 68.84375 
Q 14.59375 74.21875 22.3125 74.21875 
z
" id="DejaVuSans-37"/>
       <path d="M 45.40625 46.390625 
L 45.40625 75.984375 
L 54.390625 75.984375 
L 54.390625 0 
L 45.40625 0 
L 45.40625 8.203125 
Q 42.578125 3.328125 38.25 0.953125 
Q 33.9375 -1.421875 27.875 -1.421875 
Q 17.96875 -1.421875 11.734375 6.484375 
Q 5.515625 14.40625 5.515625 27.296875 
Q 5.515625 40.1875 11.734375 48.09375 
Q 17.96875 56 27.875 56 
Q 33.9375 56 38.25 53.625 
Q 42.578125 51.265625 45.40625 46.390625 
z
M 14.796875 27.296875 
Q 14.796875 17.390625 18.875 11.75 
Q 22.953125 6.109375 30.078125 6.109375 
Q 37.203125 6.109375 41.296875 11.75 
Q 45.40625 17.390625 45.40625 27.296875 
Q 45.40625 37.203125 41.296875 42.84375 
Q 37.203125 48.484375 30.078125 48.484375 
Q 22.953125 48.484375 18.875 42.84375 
Q 14.796875 37.203125 14.796875 27.296875 
z
" id="DejaVuSans-100"/>
       <path d="M 64.40625 67.28125 
L 64.40625 56.890625 
Q 59.421875 61.53125 53.78125 63.8125 
Q 48.140625 66.109375 41.796875 66.109375 
Q 29.296875 66.109375 22.65625 58.46875 
Q 16.015625 50.828125 16.015625 36.375 
Q 16.015625 21.96875 22.65625 14.328125 
Q 29.296875 6.6875 41.796875 6.6875 
Q 48.140625 6.6875 53.78125 8.984375 
Q 59.421875 11.28125 64.40625 15.921875 
L 64.40625 5.609375 
Q 59.234375 2.09375 53.4375 0.328125 
Q 47.65625 -1.421875 41.21875 -1.421875 
Q 24.65625 -1.421875 15.125 8.703125 
Q 5.609375 18.84375 5.609375 36.375 
Q 5.609375 53.953125 15.125 64.078125 
Q 24.65625 74.21875 41.21875 74.21875 
Q 47.75 74.21875 53.53125 72.484375 
Q 59.328125 70.75 64.40625 67.28125 
z
" id="DejaVuSans-67"/>
      </defs>
      <use xlink:href="#DejaVuSans-48"/>
      <use x="63.623047" xlink:href="#DejaVuSans-46"/>
      <use x="95.410156" xlink:href="#DejaVuSans-57"/>
      <use x="159.033203" xlink:href="#DejaVuSans-37"/>
      <use x="254.052734" xlink:href="#DejaVuSans-32"/>
      <use x="285.839844" xlink:href="#DejaVuSans-83"/>
      <use x="349.316406" xlink:href="#DejaVuSans-111"/>
      <use x="410.498047" xlink:href="#DejaVuSans-100"/>
      <use x="473.974609" xlink:href="#DejaVuSans-105"/>
      <use x="501.757812" xlink:href="#DejaVuSans-117"/>
      <use x="565.136719" xlink:href="#DejaVuSans-109"/>
      <use x="662.548828" xlink:href="#DejaVuSans-32"/>
      <use x="694.335938" xlink:href="#DejaVuSans-67"/>
      <use x="764.160156" xlink:href="#DejaVuSans-104"/>
      <use x="827.539062" xlink:href="#DejaVuSans-108"/>
      <use x="855.322266" xlink:href="#DejaVuSans-111"/>
      <use x="916.503906" xlink:href="#DejaVuSans-114"/>
      <use x="957.617188" xlink:href="#DejaVuSans-105"/>
      <use x="985.400391" xlink:href="#DejaVuSans-100"/>
      <use x="1048.876953" xlink:href="#DejaVuSans-101"/>
     </g>
    </g>
    <g id="line2d_31">
     <path d="M 72.56 67.894688 
L 92.56 67.894688 
" style="fill:none;stroke:#ff7f0e;stroke-linecap:square;stroke-width:1.5;"/>
    </g>
    <g id="line2d_32">
     <g>
      <use style="fill:#ff7f0e;stroke:#ff7f0e;" x="82.56" xlink:href="#mf2bbc72cb6" y="67.894688"/>
     </g>
    </g>
    <g id="text_24">
     <!-- Acetaminophen -->
     <g transform="translate(100.56 71.394688)scale(0.1 -0.1)">
      <use xlink:href="#DejaVuSans-65"/>
      <use x="66.658203" xlink:href="#DejaVuSans-99"/>
      <use x="121.638672" xlink:href="#DejaVuSans-101"/>
      <use x="183.162109" xlink:href="#DejaVuSans-116"/>
      <use x="222.371094" xlink:href="#DejaVuSans-97"/>
      <use x="283.650391" xlink:href="#DejaVuSans-109"/>
      <use x="381.0625" xlink:href="#DejaVuSans-105"/>
      <use x="408.845703" xlink:href="#DejaVuSans-110"/>
      <use x="472.224609" xlink:href="#DejaVuSans-111"/>
      <use x="533.40625" xlink:href="#DejaVuSans-112"/>
      <use x="596.882812" xlink:href="#DejaVuSans-104"/>
      <use x="660.261719" xlink:href="#DejaVuSans-101"/>
      <use x="721.785156" xlink:href="#DejaVuSans-110"/>
     </g>
    </g>
    <g id="line2d_33">
     <path d="M 72.56 82.572813 
L 92.56 82.572813 
" style="fill:none;stroke:#2ca02c;stroke-linecap:square;stroke-width:1.5;"/>
    </g>
    <g id="line2d_34">
     <g>
      <use style="fill:#2ca02c;stroke:#2ca02c;" x="82.56" xlink:href="#m244f39b51b" y="82.572813"/>
     </g>
    </g>
    <g id="text_25">
     <!-- D5W -->
     <g transform="translate(100.56 86.072813)scale(0.1 -0.1)">
      <defs>
       <path d="M 10.796875 72.90625 
L 49.515625 72.90625 
L 49.515625 64.59375 
L 19.828125 64.59375 
L 19.828125 46.734375 
Q 21.96875 47.46875 24.109375 47.828125 
Q 26.265625 48.1875 28.421875 48.1875 
Q 40.625 48.1875 47.75 41.5 
Q 54.890625 34.8125 54.890625 23.390625 
Q 54.890625 11.625 47.5625 5.09375 
Q 40.234375 -1.421875 26.90625 -1.421875 
Q 22.3125 -1.421875 17.546875 -0.640625 
Q 12.796875 0.140625 7.71875 1.703125 
L 7.71875 11.625 
Q 12.109375 9.234375 16.796875 8.0625 
Q 21.484375 6.890625 26.703125 6.890625 
Q 35.15625 6.890625 40.078125 11.328125 
Q 45.015625 15.765625 45.015625 23.390625 
Q 45.015625 31 40.078125 35.4375 
Q 35.15625 39.890625 26.703125 39.890625 
Q 22.75 39.890625 18.8125 39.015625 
Q 14.890625 38.140625 10.796875 36.28125 
z
" id="DejaVuSans-53"/>
       <path d="M 3.328125 72.90625 
L 13.28125 72.90625 
L 28.609375 11.28125 
L 43.890625 72.90625 
L 54.984375 72.90625 
L 70.3125 11.28125 
L 85.59375 72.90625 
L 95.609375 72.90625 
L 77.296875 0 
L 64.890625 0 
L 49.515625 63.28125 
L 33.984375 0 
L 21.578125 0 
z
" id="DejaVuSans-87"/>
      </defs>
      <use xlink:href="#DejaVuSans-68"/>
      <use x="77.001953" xlink:href="#DejaVuSans-53"/>
      <use x="140.625" xlink:href="#DejaVuSans-87"/>
     </g>
    </g>
    <g id="line2d_35">
     <path d="M 72.56 97.250937 
L 92.56 97.250937 
" style="fill:none;stroke:#d62728;stroke-linecap:square;stroke-width:1.5;"/>
    </g>
    <g id="line2d_36">
     <g>
      <use style="fill:#d62728;stroke:#d62728;" x="82.56" xlink:href="#me9a6415f4f" y="97.250937"/>
     </g>
    </g>
    <g id="text_26">
     <!-- Furosemide -->
     <g transform="translate(100.56 100.750937)scale(0.1 -0.1)">
      <use xlink:href="#DejaVuSans-70"/>
      <use x="52.019531" xlink:href="#DejaVuSans-117"/>
      <use x="115.398438" xlink:href="#DejaVuSans-114"/>
      <use x="154.261719" xlink:href="#DejaVuSans-111"/>
      <use x="215.443359" xlink:href="#DejaVuSans-115"/>
      <use x="267.542969" xlink:href="#DejaVuSans-101"/>
      <use x="329.066406" xlink:href="#DejaVuSans-109"/>
      <use x="426.478516" xlink:href="#DejaVuSans-105"/>
      <use x="454.261719" xlink:href="#DejaVuSans-100"/>
      <use x="517.738281" xlink:href="#DejaVuSans-101"/>
     </g>
    </g>
    <g id="line2d_37">
     <path d="M 72.56 111.929062 
L 92.56 111.929062 
" style="fill:none;stroke:#9467bd;stroke-linecap:square;stroke-width:1.5;"/>
    </g>
    <g id="line2d_38">
     <g>
      <use style="fill:#9467bd;stroke:#9467bd;" x="82.56" xlink:href="#med788274bb" y="111.929062"/>
     </g>
    </g>
    <g id="text_27">
     <!-- Insulin -->
     <g transform="translate(100.56 115.429062)scale(0.1 -0.1)">
      <defs>
       <path d="M 9.8125 72.90625 
L 19.671875 72.90625 
L 19.671875 0 
L 9.8125 0 
z
" id="DejaVuSans-73"/>
      </defs>
      <use xlink:href="#DejaVuSans-73"/>
      <use x="29.492188" xlink:href="#DejaVuSans-110"/>
      <use x="92.871094" xlink:href="#DejaVuSans-115"/>
      <use x="144.970703" xlink:href="#DejaVuSans-117"/>
      <use x="208.349609" xlink:href="#DejaVuSans-108"/>
      <use x="236.132812" xlink:href="#DejaVuSans-105"/>
      <use x="263.916016" xlink:href="#DejaVuSans-110"/>
     </g>
    </g>
    <g id="line2d_39">
     <path d="M 72.56 126.607188 
L 92.56 126.607188 
" style="fill:none;stroke:#8c564b;stroke-linecap:square;stroke-width:1.5;"/>
    </g>
    <g id="line2d_40">
     <g>
      <use style="fill:#8c564b;stroke:#8c564b;" x="82.56" xlink:href="#m7da7ea8008" y="126.607188"/>
     </g>
    </g>
    <g id="text_28">
     <!-- Iso-Osmotic Dextrose -->
     <g transform="translate(100.56 130.107188)scale(0.1 -0.1)">
      <defs>
       <path d="M 4.890625 31.390625 
L 31.203125 31.390625 
L 31.203125 23.390625 
L 4.890625 23.390625 
z
" id="DejaVuSans-45"/>
       <path d="M 54.890625 54.6875 
L 35.109375 28.078125 
L 55.90625 0 
L 45.3125 0 
L 29.390625 21.484375 
L 13.484375 0 
L 2.875 0 
L 24.125 28.609375 
L 4.6875 54.6875 
L 15.28125 54.6875 
L 29.78125 35.203125 
L 44.28125 54.6875 
z
" id="DejaVuSans-120"/>
      </defs>
      <use xlink:href="#DejaVuSans-73"/>
      <use x="29.492188" xlink:href="#DejaVuSans-115"/>
      <use x="81.591797" xlink:href="#DejaVuSans-111"/>
      <use x="144.648438" xlink:href="#DejaVuSans-45"/>
      <use x="183.482422" xlink:href="#DejaVuSans-79"/>
      <use x="262.193359" xlink:href="#DejaVuSans-115"/>
      <use x="314.292969" xlink:href="#DejaVuSans-109"/>
      <use x="411.705078" xlink:href="#DejaVuSans-111"/>
      <use x="472.886719" xlink:href="#DejaVuSans-116"/>
      <use x="512.095703" xlink:href="#DejaVuSans-105"/>
      <use x="539.878906" xlink:href="#DejaVuSans-99"/>
      <use x="594.859375" xlink:href="#DejaVuSans-32"/>
      <use x="626.646484" xlink:href="#DejaVuSans-68"/>
      <use x="703.648438" xlink:href="#DejaVuSans-101"/>
      <use x="763.421875" xlink:href="#DejaVuSans-120"/>
      <use x="822.601562" xlink:href="#DejaVuSans-116"/>
      <use x="861.810547" xlink:href="#DejaVuSans-114"/>
      <use x="900.673828" xlink:href="#DejaVuSans-111"/>
      <use x="961.855469" xlink:href="#DejaVuSans-115"/>
      <use x="1013.955078" xlink:href="#DejaVuSans-101"/>
     </g>
    </g>
    <g id="line2d_41">
     <path d="M 72.56 141.285313 
L 92.56 141.285313 
" style="fill:none;stroke:#e377c2;stroke-linecap:square;stroke-width:1.5;"/>
    </g>
    <g id="line2d_42">
     <g>
      <use style="fill:#e377c2;stroke:#e377c2;" x="82.56" xlink:href="#m10648a5bbb" y="141.285313"/>
     </g>
    </g>
    <g id="text_29">
     <!-- Magnesium Sulfate -->
     <g transform="translate(100.56 144.785313)scale(0.1 -0.1)">
      <use xlink:href="#DejaVuSans-77"/>
      <use x="86.279297" xlink:href="#DejaVuSans-97"/>
      <use x="147.558594" xlink:href="#DejaVuSans-103"/>
      <use x="211.035156" xlink:href="#DejaVuSans-110"/>
      <use x="274.414062" xlink:href="#DejaVuSans-101"/>
      <use x="335.9375" xlink:href="#DejaVuSans-115"/>
      <use x="388.037109" xlink:href="#DejaVuSans-105"/>
      <use x="415.820312" xlink:href="#DejaVuSans-117"/>
      <use x="479.199219" xlink:href="#DejaVuSans-109"/>
      <use x="576.611328" xlink:href="#DejaVuSans-32"/>
      <use x="608.398438" xlink:href="#DejaVuSans-83"/>
      <use x="671.875" xlink:href="#DejaVuSans-117"/>
      <use x="735.253906" xlink:href="#DejaVuSans-108"/>
      <use x="763.037109" xlink:href="#DejaVuSans-102"/>
      <use x="798.242188" xlink:href="#DejaVuSans-97"/>
      <use x="859.521484" xlink:href="#DejaVuSans-116"/>
      <use x="898.730469" xlink:href="#DejaVuSans-101"/>
     </g>
    </g>
    <g id="line2d_43">
     <path d="M 72.56 155.963437 
L 92.56 155.963437 
" style="fill:none;stroke:#7f7f7f;stroke-linecap:square;stroke-width:1.5;"/>
    </g>
    <g id="line2d_44">
     <g>
      <use style="fill:#7f7f7f;stroke:#7f7f7f;" x="82.56" xlink:href="#maec9a82c52" y="155.963437"/>
     </g>
    </g>
    <g id="text_30">
     <!-- NS -->
     <g transform="translate(100.56 159.463437)scale(0.1 -0.1)">
      <use xlink:href="#DejaVuSans-78"/>
      <use x="74.804688" xlink:href="#DejaVuSans-83"/>
     </g>
    </g>
    <g id="line2d_45">
     <path d="M 72.56 170.641563 
L 92.56 170.641563 
" style="fill:none;stroke:#bcbd22;stroke-linecap:square;stroke-width:1.5;"/>
    </g>
    <g id="line2d_46">
     <g>
      <use style="fill:#bcbd22;stroke:#bcbd22;" x="82.56" xlink:href="#m4d655c891f" y="170.641563"/>
     </g>
    </g>
    <g id="text_31">
     <!-- Potassium Chloride -->
     <g transform="translate(100.56 174.141563)scale(0.1 -0.1)">
      <use xlink:href="#DejaVuSans-80"/>
      <use x="56.677734" xlink:href="#DejaVuSans-111"/>
      <use x="117.859375" xlink:href="#DejaVuSans-116"/>
      <use x="157.068359" xlink:href="#DejaVuSans-97"/>
      <use x="218.347656" xlink:href="#DejaVuSans-115"/>
      <use x="270.447266" xlink:href="#DejaVuSans-115"/>
      <use x="322.546875" xlink:href="#DejaVuSans-105"/>
      <use x="350.330078" xlink:href="#DejaVuSans-117"/>
      <use x="413.708984" xlink:href="#DejaVuSans-109"/>
      <use x="511.121094" xlink:href="#DejaVuSans-32"/>
      <use x="542.908203" xlink:href="#DejaVuSans-67"/>
      <use x="612.732422" xlink:href="#DejaVuSans-104"/>
      <use x="676.111328" xlink:href="#DejaVuSans-108"/>
      <use x="703.894531" xlink:href="#DejaVuSans-111"/>
      <use x="765.076172" xlink:href="#DejaVuSans-114"/>
      <use x="806.189453" xlink:href="#DejaVuSans-105"/>
      <use x="833.972656" xlink:href="#DejaVuSans-100"/>
      <use x="897.449219" xlink:href="#DejaVuSans-101"/>
     </g>
    </g>
    <g id="line2d_47">
     <path d="M 72.56 185.319687 
L 92.56 185.319687 
" style="fill:none;stroke:#17becf;stroke-linecap:square;stroke-width:1.5;"/>
    </g>
    <g id="line2d_48">
     <g>
      <use style="fill:#17becf;stroke:#17becf;" x="82.56" xlink:href="#m5ed115ad03" y="185.319687"/>
     </g>
    </g>
    <g id="text_32">
     <!-- Sodium Chloride 0.9%  Flush -->
     <g transform="translate(100.56 188.819687)scale(0.1 -0.1)">
      <use xlink:href="#DejaVuSans-83"/>
      <use x="63.476562" xlink:href="#DejaVuSans-111"/>
      <use x="124.658203" xlink:href="#DejaVuSans-100"/>
      <use x="188.134766" xlink:href="#DejaVuSans-105"/>
      <use x="215.917969" xlink:href="#DejaVuSans-117"/>
      <use x="279.296875" xlink:href="#DejaVuSans-109"/>
      <use x="376.708984" xlink:href="#DejaVuSans-32"/>
      <use x="408.496094" xlink:href="#DejaVuSans-67"/>
      <use x="478.320312" xlink:href="#DejaVuSans-104"/>
      <use x="541.699219" xlink:href="#DejaVuSans-108"/>
      <use x="569.482422" xlink:href="#DejaVuSans-111"/>
      <use x="630.664062" xlink:href="#DejaVuSans-114"/>
      <use x="671.777344" xlink:href="#DejaVuSans-105"/>
      <use x="699.560547" xlink:href="#DejaVuSans-100"/>
      <use x="763.037109" xlink:href="#DejaVuSans-101"/>
      <use x="824.560547" xlink:href="#DejaVuSans-32"/>
      <use x="856.347656" xlink:href="#DejaVuSans-48"/>
      <use x="919.970703" xlink:href="#DejaVuSans-46"/>
      <use x="951.757812" xlink:href="#DejaVuSans-57"/>
      <use x="1015.380859" xlink:href="#DejaVuSans-37"/>
      <use x="1110.400391" xlink:href="#DejaVuSans-32"/>
      <use x="1142.1875" xlink:href="#DejaVuSans-32"/>
      <use x="1173.974609" xlink:href="#DejaVuSans-70"/>
      <use x="1231.494141" xlink:href="#DejaVuSans-108"/>
      <use x="1259.277344" xlink:href="#DejaVuSans-117"/>
      <use x="1322.65625" xlink:href="#DejaVuSans-115"/>
      <use x="1374.755859" xlink:href="#DejaVuSans-104"/>
     </g>
    </g>
   </g>
  </g>
 </g>
 <defs>
  <clipPath id="pbf745c7745">
   <rect height="580.6" width="1077.64" x="63.56" y="25.44"/>
  </clipPath>
 </defs>
</svg>
