<?xml version="1.0" encoding="utf-8" standalone="no"?>
<!DOCTYPE svg PUBLIC "-//W3C//DTD SVG 1.1//EN"
  "http://www.w3.org/Graphics/SVG/1.1/DTD/svg11.dtd">
<!-- Created with matplotlib (https://matplotlib.org/) -->
<svg height="432pt" version="1.1" viewBox="0 0 720 432" width="720pt" xmlns="http://www.w3.org/2000/svg" xmlns:xlink="http://www.w3.org/1999/xlink">
 <metadata>
  <rdf:RDF xmlns:cc="http://creativecommons.org/ns#" xmlns:dc="http://purl.org/dc/elements/1.1/" xmlns:rdf="http://www.w3.org/1999/02/22-rdf-syntax-ns#">
   <cc:Work>
    <dc:type rdf:resource="http://purl.org/dc/dcmitype/StillImage"/>
    <dc:date>2024-10-28T15:58:19.583878</dc:date>
    <dc:format>image/svg+xml</dc:format>
    <dc:creator>
     <cc:Agent>
      <dc:title>Matplotlib v3.3.4, https://matplotlib.org/</dc:title>
     </cc:Agent>
    </dc:creator>
   </cc:Work>
  </rdf:RDF>
 </metadata>
 <defs>
  <style type="text/css">*{stroke-linecap:butt;stroke-linejoin:round;}</style>
 </defs>
 <g id="figure_1">
  <g id="patch_1">
   <path d="M 0 432 
L 720 432 
L 720 0 
L 0 0 
z
" style="fill:#ffffff;"/>
  </g>
  <g id="axes_1">
   <g id="patch_2">
    <path d="M 47.72 390.04 
L 709.2 390.04 
L 709.2 25.44 
L 47.72 25.44 
z
" style="fill:#ffffff;"/>
   </g>
   <g id="matplotlib.axis_1">
    <g id="xtick_1">
     <g id="line2d_1">
      <defs>
       <path d="M 0 0 
L 0 3.5 
" id="m9c2ccc67ec" style="stroke:#000000;stroke-width:0.8;"/>
      </defs>
      <g>
       <use style="stroke:#000000;stroke-width:0.8;" x="77.787273" xlink:href="#m9c2ccc67ec" y="390.04"/>
      </g>
     </g>
     <g id="text_1">
      <!-- 0 -->
      <g transform="translate(74.606023 404.638438)scale(0.1 -0.1)">
       <defs>
        <path d="M 31.78125 66.40625 
Q 24.171875 66.40625 20.328125 58.90625 
Q 16.5 51.421875 16.5 36.375 
Q 16.5 21.390625 20.328125 13.890625 
Q 24.171875 6.390625 31.78125 6.390625 
Q 39.453125 6.390625 43.28125 13.890625 
Q 47.125 21.390625 47.125 36.375 
Q 47.125 51.421875 43.28125 58.90625 
Q 39.453125 66.40625 31.78125 66.40625 
z
M 31.78125 74.21875 
Q 44.046875 74.21875 50.515625 64.515625 
Q 56.984375 54.828125 56.984375 36.375 
Q 56.984375 17.96875 50.515625 8.265625 
Q 44.046875 -1.421875 31.78125 -1.421875 
Q 19.53125 -1.421875 13.0625 8.265625 
Q 6.59375 17.96875 6.59375 36.375 
Q 6.59375 54.828125 13.0625 64.515625 
Q 19.53125 74.21875 31.78125 74.21875 
z
" id="DejaVuSans-48"/>
       </defs>
       <use xlink:href="#DejaVuSans-48"/>
      </g>
     </g>
    </g>
    <g id="xtick_2">
     <g id="line2d_2">
      <g>
       <use style="stroke:#000000;stroke-width:0.8;" x="178.044934" xlink:href="#m9c2ccc67ec" y="390.04"/>
      </g>
     </g>
     <g id="text_2">
      <!-- 500 -->
      <g transform="translate(168.501184 404.638438)scale(0.1 -0.1)">
       <defs>
        <path d="M 10.796875 72.90625 
L 49.515625 72.90625 
L 49.515625 64.59375 
L 19.828125 64.59375 
L 19.828125 46.734375 
Q 21.96875 47.46875 24.109375 47.828125 
Q 26.265625 48.1875 28.421875 48.1875 
Q 40.625 48.1875 47.75 41.5 
Q 54.890625 34.8125 54.890625 23.390625 
Q 54.890625 11.625 47.5625 5.09375 
Q 40.234375 -1.421875 26.90625 -1.421875 
Q 22.3125 -1.421875 17.546875 -0.640625 
Q 12.796875 0.140625 7.71875 1.703125 
L 7.71875 11.625 
Q 12.109375 9.234375 16.796875 8.0625 
Q 21.484375 6.890625 26.703125 6.890625 
Q 35.15625 6.890625 40.078125 11.328125 
Q 45.015625 15.765625 45.015625 23.390625 
Q 45.015625 31 40.078125 35.4375 
Q 35.15625 39.890625 26.703125 39.890625 
Q 22.75 39.890625 18.8125 39.015625 
Q 14.890625 38.140625 10.796875 36.28125 
z
" id="DejaVuSans-53"/>
       </defs>
       <use xlink:href="#DejaVuSans-53"/>
       <use x="63.623047" xlink:href="#DejaVuSans-48"/>
       <use x="127.246094" xlink:href="#DejaVuSans-48"/>
      </g>
     </g>
    </g>
    <g id="xtick_3">
     <g id="line2d_3">
      <g>
       <use style="stroke:#000000;stroke-width:0.8;" x="278.302596" xlink:href="#m9c2ccc67ec" y="390.04"/>
      </g>
     </g>
     <g id="text_3">
      <!-- 1000 -->
      <g transform="translate(265.577596 404.638438)scale(0.1 -0.1)">
       <defs>
        <path d="M 12.40625 8.296875 
L 28.515625 8.296875 
L 28.515625 63.921875 
L 10.984375 60.40625 
L 10.984375 69.390625 
L 28.421875 72.90625 
L 38.28125 72.90625 
L 38.28125 8.296875 
L 54.390625 8.296875 
L 54.390625 0 
L 12.40625 0 
z
" id="DejaVuSans-49"/>
       </defs>
       <use xlink:href="#DejaVuSans-49"/>
       <use x="63.623047" xlink:href="#DejaVuSans-48"/>
       <use x="127.246094" xlink:href="#DejaVuSans-48"/>
       <use x="190.869141" xlink:href="#DejaVuSans-48"/>
      </g>
     </g>
    </g>
    <g id="xtick_4">
     <g id="line2d_4">
      <g>
       <use style="stroke:#000000;stroke-width:0.8;" x="378.560258" xlink:href="#m9c2ccc67ec" y="390.04"/>
      </g>
     </g>
     <g id="text_4">
      <!-- 1500 -->
      <g transform="translate(365.835258 404.638438)scale(0.1 -0.1)">
       <use xlink:href="#DejaVuSans-49"/>
       <use x="63.623047" xlink:href="#DejaVuSans-53"/>
       <use x="127.246094" xlink:href="#DejaVuSans-48"/>
       <use x="190.869141" xlink:href="#DejaVuSans-48"/>
      </g>
     </g>
    </g>
    <g id="xtick_5">
     <g id="line2d_5">
      <g>
       <use style="stroke:#000000;stroke-width:0.8;" x="478.817919" xlink:href="#m9c2ccc67ec" y="390.04"/>
      </g>
     </g>
     <g id="text_5">
      <!-- 2000 -->
      <g transform="translate(466.092919 404.638438)scale(0.1 -0.1)">
       <defs>
        <path d="M 19.1875 8.296875 
L 53.609375 8.296875 
L 53.609375 0 
L 7.328125 0 
L 7.328125 8.296875 
Q 12.9375 14.109375 22.625 23.890625 
Q 32.328125 33.6875 34.8125 36.53125 
Q 39.546875 41.84375 41.421875 45.53125 
Q 43.3125 49.21875 43.3125 52.78125 
Q 43.3125 58.59375 39.234375 62.25 
Q 35.15625 65.921875 28.609375 65.921875 
Q 23.96875 65.921875 18.8125 64.3125 
Q 13.671875 62.703125 7.8125 59.421875 
L 7.8125 69.390625 
Q 13.765625 71.78125 18.9375 73 
Q 24.125 74.21875 28.421875 74.21875 
Q 39.75 74.21875 46.484375 68.546875 
Q 53.21875 62.890625 53.21875 53.421875 
Q 53.21875 48.921875 51.53125 44.890625 
Q 49.859375 40.875 45.40625 35.40625 
Q 44.1875 33.984375 37.640625 27.21875 
Q 31.109375 20.453125 19.1875 8.296875 
z
" id="DejaVuSans-50"/>
       </defs>
       <use xlink:href="#DejaVuSans-50"/>
       <use x="63.623047" xlink:href="#DejaVuSans-48"/>
       <use x="127.246094" xlink:href="#DejaVuSans-48"/>
       <use x="190.869141" xlink:href="#DejaVuSans-48"/>
      </g>
     </g>
    </g>
    <g id="xtick_6">
     <g id="line2d_6">
      <g>
       <use style="stroke:#000000;stroke-width:0.8;" x="579.075581" xlink:href="#m9c2ccc67ec" y="390.04"/>
      </g>
     </g>
     <g id="text_6">
      <!-- 2500 -->
      <g transform="translate(566.350581 404.638438)scale(0.1 -0.1)">
       <use xlink:href="#DejaVuSans-50"/>
       <use x="63.623047" xlink:href="#DejaVuSans-53"/>
       <use x="127.246094" xlink:href="#DejaVuSans-48"/>
       <use x="190.869141" xlink:href="#DejaVuSans-48"/>
      </g>
     </g>
    </g>
    <g id="xtick_7">
     <g id="line2d_7">
      <g>
       <use style="stroke:#000000;stroke-width:0.8;" x="679.333243" xlink:href="#m9c2ccc67ec" y="390.04"/>
      </g>
     </g>
     <g id="text_7">
      <!-- 3000 -->
      <g transform="translate(666.608243 404.638438)scale(0.1 -0.1)">
       <defs>
        <path d="M 40.578125 39.3125 
Q 47.65625 37.796875 51.625 33 
Q 55.609375 28.21875 55.609375 21.1875 
Q 55.609375 10.40625 48.1875 4.484375 
Q 40.765625 -1.421875 27.09375 -1.421875 
Q 22.515625 -1.421875 17.65625 -0.515625 
Q 12.796875 0.390625 7.625 2.203125 
L 7.625 11.71875 
Q 11.71875 9.328125 16.59375 8.109375 
Q 21.484375 6.890625 26.8125 6.890625 
Q 36.078125 6.890625 40.9375 10.546875 
Q 45.796875 14.203125 45.796875 21.1875 
Q 45.796875 27.640625 41.28125 31.265625 
Q 36.765625 34.90625 28.71875 34.90625 
L 20.21875 34.90625 
L 20.21875 43.015625 
L 29.109375 43.015625 
Q 36.375 43.015625 40.234375 45.921875 
Q 44.09375 48.828125 44.09375 54.296875 
Q 44.09375 59.90625 40.109375 62.90625 
Q 36.140625 65.921875 28.71875 65.921875 
Q 24.65625 65.921875 20.015625 65.03125 
Q 15.375 64.15625 9.8125 62.3125 
L 9.8125 71.09375 
Q 15.4375 72.65625 20.34375 73.4375 
Q 25.25 74.21875 29.59375 74.21875 
Q 40.828125 74.21875 47.359375 69.109375 
Q 53.90625 64.015625 53.90625 55.328125 
Q 53.90625 49.265625 50.4375 45.09375 
Q 46.96875 40.921875 40.578125 39.3125 
z
" id="DejaVuSans-51"/>
       </defs>
       <use xlink:href="#DejaVuSans-51"/>
       <use x="63.623047" xlink:href="#DejaVuSans-48"/>
       <use x="127.246094" xlink:href="#DejaVuSans-48"/>
       <use x="190.869141" xlink:href="#DejaVuSans-48"/>
      </g>
     </g>
    </g>
    <g id="text_8">
     <!-- Boosting Rounds -->
     <g transform="translate(336.599844 418.316562)scale(0.1 -0.1)">
      <defs>
       <path d="M 19.671875 34.8125 
L 19.671875 8.109375 
L 35.5 8.109375 
Q 43.453125 8.109375 47.28125 11.40625 
Q 51.125 14.703125 51.125 21.484375 
Q 51.125 28.328125 47.28125 31.5625 
Q 43.453125 34.8125 35.5 34.8125 
z
M 19.671875 64.796875 
L 19.671875 42.828125 
L 34.28125 42.828125 
Q 41.5 42.828125 45.03125 45.53125 
Q 48.578125 48.25 48.578125 53.8125 
Q 48.578125 59.328125 45.03125 62.0625 
Q 41.5 64.796875 34.28125 64.796875 
z
M 9.8125 72.90625 
L 35.015625 72.90625 
Q 46.296875 72.90625 52.390625 68.21875 
Q 58.5 63.53125 58.5 54.890625 
Q 58.5 48.1875 55.375 44.234375 
Q 52.25 40.28125 46.1875 39.3125 
Q 53.46875 37.75 57.5 32.78125 
Q 61.53125 27.828125 61.53125 20.40625 
Q 61.53125 10.640625 54.890625 5.3125 
Q 48.25 0 35.984375 0 
L 9.8125 0 
z
" id="DejaVuSans-66"/>
       <path d="M 30.609375 48.390625 
Q 23.390625 48.390625 19.1875 42.75 
Q 14.984375 37.109375 14.984375 27.296875 
Q 14.984375 17.484375 19.15625 11.84375 
Q 23.34375 6.203125 30.609375 6.203125 
Q 37.796875 6.203125 41.984375 11.859375 
Q 46.1875 17.53125 46.1875 27.296875 
Q 46.1875 37.015625 41.984375 42.703125 
Q 37.796875 48.390625 30.609375 48.390625 
z
M 30.609375 56 
Q 42.328125 56 49.015625 48.375 
Q 55.71875 40.765625 55.71875 27.296875 
Q 55.71875 13.875 49.015625 6.21875 
Q 42.328125 -1.421875 30.609375 -1.421875 
Q 18.84375 -1.421875 12.171875 6.21875 
Q 5.515625 13.875 5.515625 27.296875 
Q 5.515625 40.765625 12.171875 48.375 
Q 18.84375 56 30.609375 56 
z
" id="DejaVuSans-111"/>
       <path d="M 44.28125 53.078125 
L 44.28125 44.578125 
Q 40.484375 46.53125 36.375 47.5 
Q 32.28125 48.484375 27.875 48.484375 
Q 21.1875 48.484375 17.84375 46.4375 
Q 14.5 44.390625 14.5 40.28125 
Q 14.5 37.15625 16.890625 35.375 
Q 19.28125 33.59375 26.515625 31.984375 
L 29.59375 31.296875 
Q 39.15625 29.25 43.1875 25.515625 
Q 47.21875 21.78125 47.21875 15.09375 
Q 47.21875 7.46875 41.1875 3.015625 
Q 35.15625 -1.421875 24.609375 -1.421875 
Q 20.21875 -1.421875 15.453125 -0.5625 
Q 10.6875 0.296875 5.421875 2 
L 5.421875 11.28125 
Q 10.40625 8.6875 15.234375 7.390625 
Q 20.0625 6.109375 24.8125 6.109375 
Q 31.15625 6.109375 34.5625 8.28125 
Q 37.984375 10.453125 37.984375 14.40625 
Q 37.984375 18.0625 35.515625 20.015625 
Q 33.0625 21.96875 24.703125 23.78125 
L 21.578125 24.515625 
Q 13.234375 26.265625 9.515625 29.90625 
Q 5.8125 33.546875 5.8125 39.890625 
Q 5.8125 47.609375 11.28125 51.796875 
Q 16.75 56 26.8125 56 
Q 31.78125 56 36.171875 55.265625 
Q 40.578125 54.546875 44.28125 53.078125 
z
" id="DejaVuSans-115"/>
       <path d="M 18.3125 70.21875 
L 18.3125 54.6875 
L 36.8125 54.6875 
L 36.8125 47.703125 
L 18.3125 47.703125 
L 18.3125 18.015625 
Q 18.3125 11.328125 20.140625 9.421875 
Q 21.96875 7.515625 27.59375 7.515625 
L 36.8125 7.515625 
L 36.8125 0 
L 27.59375 0 
Q 17.1875 0 13.234375 3.875 
Q 9.28125 7.765625 9.28125 18.015625 
L 9.28125 47.703125 
L 2.6875 47.703125 
L 2.6875 54.6875 
L 9.28125 54.6875 
L 9.28125 70.21875 
z
" id="DejaVuSans-116"/>
       <path d="M 9.421875 54.6875 
L 18.40625 54.6875 
L 18.40625 0 
L 9.421875 0 
z
M 9.421875 75.984375 
L 18.40625 75.984375 
L 18.40625 64.59375 
L 9.421875 64.59375 
z
" id="DejaVuSans-105"/>
       <path d="M 54.890625 33.015625 
L 54.890625 0 
L 45.90625 0 
L 45.90625 32.71875 
Q 45.90625 40.484375 42.875 44.328125 
Q 39.84375 48.1875 33.796875 48.1875 
Q 26.515625 48.1875 22.3125 43.546875 
Q 18.109375 38.921875 18.109375 30.90625 
L 18.109375 0 
L 9.078125 0 
L 9.078125 54.6875 
L 18.109375 54.6875 
L 18.109375 46.1875 
Q 21.34375 51.125 25.703125 53.5625 
Q 30.078125 56 35.796875 56 
Q 45.21875 56 50.046875 50.171875 
Q 54.890625 44.34375 54.890625 33.015625 
z
" id="DejaVuSans-110"/>
       <path d="M 45.40625 27.984375 
Q 45.40625 37.75 41.375 43.109375 
Q 37.359375 48.484375 30.078125 48.484375 
Q 22.859375 48.484375 18.828125 43.109375 
Q 14.796875 37.75 14.796875 27.984375 
Q 14.796875 18.265625 18.828125 12.890625 
Q 22.859375 7.515625 30.078125 7.515625 
Q 37.359375 7.515625 41.375 12.890625 
Q 45.40625 18.265625 45.40625 27.984375 
z
M 54.390625 6.78125 
Q 54.390625 -7.171875 48.1875 -13.984375 
Q 42 -20.796875 29.203125 -20.796875 
Q 24.46875 -20.796875 20.265625 -20.09375 
Q 16.0625 -19.390625 12.109375 -17.921875 
L 12.109375 -9.1875 
Q 16.0625 -11.328125 19.921875 -12.34375 
Q 23.78125 -13.375 27.78125 -13.375 
Q 36.625 -13.375 41.015625 -8.765625 
Q 45.40625 -4.15625 45.40625 5.171875 
L 45.40625 9.625 
Q 42.625 4.78125 38.28125 2.390625 
Q 33.9375 0 27.875 0 
Q 17.828125 0 11.671875 7.65625 
Q 5.515625 15.328125 5.515625 27.984375 
Q 5.515625 40.671875 11.671875 48.328125 
Q 17.828125 56 27.875 56 
Q 33.9375 56 38.28125 53.609375 
Q 42.625 51.21875 45.40625 46.390625 
L 45.40625 54.6875 
L 54.390625 54.6875 
z
" id="DejaVuSans-103"/>
       <path id="DejaVuSans-32"/>
       <path d="M 44.390625 34.1875 
Q 47.5625 33.109375 50.5625 29.59375 
Q 53.5625 26.078125 56.59375 19.921875 
L 66.609375 0 
L 56 0 
L 46.6875 18.703125 
Q 43.0625 26.03125 39.671875 28.421875 
Q 36.28125 30.8125 30.421875 30.8125 
L 19.671875 30.8125 
L 19.671875 0 
L 9.8125 0 
L 9.8125 72.90625 
L 32.078125 72.90625 
Q 44.578125 72.90625 50.734375 67.671875 
Q 56.890625 62.453125 56.890625 51.90625 
Q 56.890625 45.015625 53.6875 40.46875 
Q 50.484375 35.9375 44.390625 34.1875 
z
M 19.671875 64.796875 
L 19.671875 38.921875 
L 32.078125 38.921875 
Q 39.203125 38.921875 42.84375 42.21875 
Q 46.484375 45.515625 46.484375 51.90625 
Q 46.484375 58.296875 42.84375 61.546875 
Q 39.203125 64.796875 32.078125 64.796875 
z
" id="DejaVuSans-82"/>
       <path d="M 8.5 21.578125 
L 8.5 54.6875 
L 17.484375 54.6875 
L 17.484375 21.921875 
Q 17.484375 14.15625 20.5 10.265625 
Q 23.53125 6.390625 29.59375 6.390625 
Q 36.859375 6.390625 41.078125 11.03125 
Q 45.3125 15.671875 45.3125 23.6875 
L 45.3125 54.6875 
L 54.296875 54.6875 
L 54.296875 0 
L 45.3125 0 
L 45.3125 8.40625 
Q 42.046875 3.421875 37.71875 1 
Q 33.40625 -1.421875 27.6875 -1.421875 
Q 18.265625 -1.421875 13.375 4.4375 
Q 8.5 10.296875 8.5 21.578125 
z
M 31.109375 56 
z
" id="DejaVuSans-117"/>
       <path d="M 45.40625 46.390625 
L 45.40625 75.984375 
L 54.390625 75.984375 
L 54.390625 0 
L 45.40625 0 
L 45.40625 8.203125 
Q 42.578125 3.328125 38.25 0.953125 
Q 33.9375 -1.421875 27.875 -1.421875 
Q 17.96875 -1.421875 11.734375 6.484375 
Q 5.515625 14.40625 5.515625 27.296875 
Q 5.515625 40.1875 11.734375 48.09375 
Q 17.96875 56 27.875 56 
Q 33.9375 56 38.25 53.625 
Q 42.578125 51.265625 45.40625 46.390625 
z
M 14.796875 27.296875 
Q 14.796875 17.390625 18.875 11.75 
Q 22.953125 6.109375 30.078125 6.109375 
Q 37.203125 6.109375 41.296875 11.75 
Q 45.40625 17.390625 45.40625 27.296875 
Q 45.40625 37.203125 41.296875 42.84375 
Q 37.203125 48.484375 30.078125 48.484375 
Q 22.953125 48.484375 18.875 42.84375 
Q 14.796875 37.203125 14.796875 27.296875 
z
" id="DejaVuSans-100"/>
      </defs>
      <use xlink:href="#DejaVuSans-66"/>
      <use x="68.603516" xlink:href="#DejaVuSans-111"/>
      <use x="129.785156" xlink:href="#DejaVuSans-111"/>
      <use x="190.966797" xlink:href="#DejaVuSans-115"/>
      <use x="243.066406" xlink:href="#DejaVuSans-116"/>
      <use x="282.275391" xlink:href="#DejaVuSans-105"/>
      <use x="310.058594" xlink:href="#DejaVuSans-110"/>
      <use x="373.4375" xlink:href="#DejaVuSans-103"/>
      <use x="436.914062" xlink:href="#DejaVuSans-32"/>
      <use x="468.701172" xlink:href="#DejaVuSans-82"/>
      <use x="533.683594" xlink:href="#DejaVuSans-111"/>
      <use x="594.865234" xlink:href="#DejaVuSans-117"/>
      <use x="658.244141" xlink:href="#DejaVuSans-110"/>
      <use x="721.623047" xlink:href="#DejaVuSans-100"/>
      <use x="785.099609" xlink:href="#DejaVuSans-115"/>
     </g>
    </g>
   </g>
   <g id="matplotlib.axis_2">
    <g id="ytick_1">
     <g id="line2d_8">
      <defs>
       <path d="M 0 0 
L -3.5 0 
" id="mafad2782ac" style="stroke:#000000;stroke-width:0.8;"/>
      </defs>
      <g>
       <use style="stroke:#000000;stroke-width:0.8;" x="47.72" xlink:href="#mafad2782ac" y="373.942237"/>
      </g>
     </g>
     <g id="text_9">
      <!-- 0.0 -->
      <g transform="translate(24.816875 377.741456)scale(0.1 -0.1)">
       <defs>
        <path d="M 10.6875 12.40625 
L 21 12.40625 
L 21 0 
L 10.6875 0 
z
" id="DejaVuSans-46"/>
       </defs>
       <use xlink:href="#DejaVuSans-48"/>
       <use x="63.623047" xlink:href="#DejaVuSans-46"/>
       <use x="95.410156" xlink:href="#DejaVuSans-48"/>
      </g>
     </g>
    </g>
    <g id="ytick_2">
     <g id="line2d_9">
      <g>
       <use style="stroke:#000000;stroke-width:0.8;" x="47.72" xlink:href="#mafad2782ac" y="297.795937"/>
      </g>
     </g>
     <g id="text_10">
      <!-- 0.1 -->
      <g transform="translate(24.816875 301.595155)scale(0.1 -0.1)">
       <use xlink:href="#DejaVuSans-48"/>
       <use x="63.623047" xlink:href="#DejaVuSans-46"/>
       <use x="95.410156" xlink:href="#DejaVuSans-49"/>
      </g>
     </g>
    </g>
    <g id="ytick_3">
     <g id="line2d_10">
      <g>
       <use style="stroke:#000000;stroke-width:0.8;" x="47.72" xlink:href="#mafad2782ac" y="221.649636"/>
      </g>
     </g>
     <g id="text_11">
      <!-- 0.2 -->
      <g transform="translate(24.816875 225.448855)scale(0.1 -0.1)">
       <use xlink:href="#DejaVuSans-48"/>
       <use x="63.623047" xlink:href="#DejaVuSans-46"/>
       <use x="95.410156" xlink:href="#DejaVuSans-50"/>
      </g>
     </g>
    </g>
    <g id="ytick_4">
     <g id="line2d_11">
      <g>
       <use style="stroke:#000000;stroke-width:0.8;" x="47.72" xlink:href="#mafad2782ac" y="145.503335"/>
      </g>
     </g>
     <g id="text_12">
      <!-- 0.3 -->
      <g transform="translate(24.816875 149.302554)scale(0.1 -0.1)">
       <use xlink:href="#DejaVuSans-48"/>
       <use x="63.623047" xlink:href="#DejaVuSans-46"/>
       <use x="95.410156" xlink:href="#DejaVuSans-51"/>
      </g>
     </g>
    </g>
    <g id="ytick_5">
     <g id="line2d_12">
      <g>
       <use style="stroke:#000000;stroke-width:0.8;" x="47.72" xlink:href="#mafad2782ac" y="69.357035"/>
      </g>
     </g>
     <g id="text_13">
      <!-- 0.4 -->
      <g transform="translate(24.816875 73.156253)scale(0.1 -0.1)">
       <defs>
        <path d="M 37.796875 64.3125 
L 12.890625 25.390625 
L 37.796875 25.390625 
z
M 35.203125 72.90625 
L 47.609375 72.90625 
L 47.609375 25.390625 
L 58.015625 25.390625 
L 58.015625 17.1875 
L 47.609375 17.1875 
L 47.609375 0 
L 37.796875 0 
L 37.796875 17.1875 
L 4.890625 17.1875 
L 4.890625 26.703125 
z
" id="DejaVuSans-52"/>
       </defs>
       <use xlink:href="#DejaVuSans-48"/>
       <use x="63.623047" xlink:href="#DejaVuSans-46"/>
       <use x="95.410156" xlink:href="#DejaVuSans-52"/>
      </g>
     </g>
    </g>
    <g id="text_14">
     <!-- Error Rate -->
     <g transform="translate(18.737188 232.976719)rotate(-90)scale(0.1 -0.1)">
      <defs>
       <path d="M 9.8125 72.90625 
L 55.90625 72.90625 
L 55.90625 64.59375 
L 19.671875 64.59375 
L 19.671875 43.015625 
L 54.390625 43.015625 
L 54.390625 34.71875 
L 19.671875 34.71875 
L 19.671875 8.296875 
L 56.78125 8.296875 
L 56.78125 0 
L 9.8125 0 
z
" id="DejaVuSans-69"/>
       <path d="M 41.109375 46.296875 
Q 39.59375 47.171875 37.8125 47.578125 
Q 36.03125 48 33.890625 48 
Q 26.265625 48 22.1875 43.046875 
Q 18.109375 38.09375 18.109375 28.8125 
L 18.109375 0 
L 9.078125 0 
L 9.078125 54.6875 
L 18.109375 54.6875 
L 18.109375 46.1875 
Q 20.953125 51.171875 25.484375 53.578125 
Q 30.03125 56 36.53125 56 
Q 37.453125 56 38.578125 55.875 
Q 39.703125 55.765625 41.0625 55.515625 
z
" id="DejaVuSans-114"/>
       <path d="M 34.28125 27.484375 
Q 23.390625 27.484375 19.1875 25 
Q 14.984375 22.515625 14.984375 16.5 
Q 14.984375 11.71875 18.140625 8.90625 
Q 21.296875 6.109375 26.703125 6.109375 
Q 34.1875 6.109375 38.703125 11.40625 
Q 43.21875 16.703125 43.21875 25.484375 
L 43.21875 27.484375 
z
M 52.203125 31.203125 
L 52.203125 0 
L 43.21875 0 
L 43.21875 8.296875 
Q 40.140625 3.328125 35.546875 0.953125 
Q 30.953125 -1.421875 24.3125 -1.421875 
Q 15.921875 -1.421875 10.953125 3.296875 
Q 6 8.015625 6 15.921875 
Q 6 25.140625 12.171875 29.828125 
Q 18.359375 34.515625 30.609375 34.515625 
L 43.21875 34.515625 
L 43.21875 35.40625 
Q 43.21875 41.609375 39.140625 45 
Q 35.0625 48.390625 27.6875 48.390625 
Q 23 48.390625 18.546875 47.265625 
Q 14.109375 46.140625 10.015625 43.890625 
L 10.015625 52.203125 
Q 14.9375 54.109375 19.578125 55.046875 
Q 24.21875 56 28.609375 56 
Q 40.484375 56 46.34375 49.84375 
Q 52.203125 43.703125 52.203125 31.203125 
z
" id="DejaVuSans-97"/>
       <path d="M 56.203125 29.59375 
L 56.203125 25.203125 
L 14.890625 25.203125 
Q 15.484375 15.921875 20.484375 11.0625 
Q 25.484375 6.203125 34.421875 6.203125 
Q 39.59375 6.203125 44.453125 7.46875 
Q 49.3125 8.734375 54.109375 11.28125 
L 54.109375 2.78125 
Q 49.265625 0.734375 44.1875 -0.34375 
Q 39.109375 -1.421875 33.890625 -1.421875 
Q 20.796875 -1.421875 13.15625 6.1875 
Q 5.515625 13.8125 5.515625 26.8125 
Q 5.515625 40.234375 12.765625 48.109375 
Q 20.015625 56 32.328125 56 
Q 43.359375 56 49.78125 48.890625 
Q 56.203125 41.796875 56.203125 29.59375 
z
M 47.21875 32.234375 
Q 47.125 39.59375 43.09375 43.984375 
Q 39.0625 48.390625 32.421875 48.390625 
Q 24.90625 48.390625 20.390625 44.140625 
Q 15.875 39.890625 15.1875 32.171875 
z
" id="DejaVuSans-101"/>
      </defs>
      <use xlink:href="#DejaVuSans-69"/>
      <use x="63.183594" xlink:href="#DejaVuSans-114"/>
      <use x="102.546875" xlink:href="#DejaVuSans-114"/>
      <use x="141.410156" xlink:href="#DejaVuSans-111"/>
      <use x="202.591797" xlink:href="#DejaVuSans-114"/>
      <use x="243.705078" xlink:href="#DejaVuSans-32"/>
      <use x="275.492188" xlink:href="#DejaVuSans-82"/>
      <use x="342.724609" xlink:href="#DejaVuSans-97"/>
      <use x="404.003906" xlink:href="#DejaVuSans-116"/>
      <use x="443.212891" xlink:href="#DejaVuSans-101"/>
     </g>
    </g>
   </g>
   <g id="line2d_13">
    <path clip-path="url(#p162a2cb38b)" d="M 77.787273 86.303766 
L 77.987788 115.086612 
L 78.188303 109.10206 
L 78.589334 104.82738 
L 78.990365 114.896626 
L 79.19088 112.426811 
L 79.992941 127.055716 
L 80.193457 126.390766 
L 80.393972 127.055716 
L 80.995518 131.900353 
L 81.396549 131.045417 
L 81.797579 133.135261 
L 81.998095 131.900353 
L 82.19861 135.890055 
L 82.399125 137.599927 
L 82.59964 136.175034 
L 83.000671 140.259728 
L 83.401702 141.30465 
L 83.602217 144.059443 
L 83.802732 144.344422 
L 84.003248 145.959301 
L 84.404278 146.054294 
L 84.604794 147.859159 
L 84.805309 148.049145 
L 85.005824 150.423967 
L 85.406855 151.18391 
L 85.60737 153.938704 
L 85.807886 153.748718 
L 86.008401 154.508661 
L 86.208916 155.933555 
L 86.409432 155.648576 
L 86.810462 158.878334 
L 87.010978 158.973327 
L 87.211493 159.353299 
L 87.412008 161.063171 
L 87.813039 161.728121 
L 88.013554 163.817965 
L 88.21407 163.817965 
L 88.414585 163.627979 
L 88.815616 167.427694 
L 89.417161 170.942431 
L 89.617677 170.847438 
L 90.018707 173.982204 
L 90.219223 173.982204 
L 90.419738 175.50209 
L 90.820769 176.83199 
L 91.021284 177.781919 
L 91.221799 177.876912 
L 91.62283 180.631706 
L 91.823345 180.726699 
L 92.023861 181.676628 
L 92.625407 185.951308 
L 93.226953 189.846016 
L 93.427468 189.846016 
L 93.627983 190.415974 
L 93.828499 191.745874 
L 94.029014 191.93586 
L 94.229529 191.840867 
L 94.430045 193.075775 
L 94.63056 193.360753 
L 94.831075 194.310682 
L 95.232106 195.260611 
L 95.833652 198.395376 
L 96.034167 198.680355 
L 96.234682 198.585362 
L 96.435198 200.675206 
L 97.237259 201.055177 
L 97.437774 202.290085 
L 97.838805 202.575064 
L 98.03932 203.050028 
L 98.239836 202.765049 
L 99.041897 206.184793 
L 99.643443 208.274637 
L 99.843958 208.084651 
L 100.044474 208.274637 
L 100.445504 209.414552 
L 100.846535 209.984509 
L 101.247566 209.984509 
L 102.450657 213.119274 
L 102.651173 213.404253 
L 103.052203 215.399104 
L 103.252719 215.684082 
L 103.453234 216.349033 
L 103.653749 216.349033 
L 104.255295 218.913841 
L 104.455811 219.293812 
L 104.656326 219.388805 
L 104.856841 221.098677 
L 105.057357 221.19367 
L 105.257872 221.85862 
L 105.458387 223.568492 
L 105.658903 224.233443 
L 106.059933 224.518421 
L 106.260449 225.088379 
L 106.460964 225.278364 
L 106.861995 226.703258 
L 107.06251 227.558194 
L 107.263025 227.653187 
L 107.463541 228.888094 
L 107.664056 228.983087 
L 108.065087 230.882945 
L 108.466117 231.072931 
L 108.867148 232.402831 
L 109.067663 232.497824 
L 109.468694 233.922717 
L 109.669209 233.827724 
L 109.869724 234.01771 
L 110.07024 234.777653 
L 110.47127 234.68266 
L 110.872301 235.062632 
L 111.273332 234.967639 
L 111.674362 237.152476 
L 111.874878 237.247468 
L 112.075393 237.532447 
L 112.275908 237.342461 
L 112.676939 237.247468 
L 112.877454 237.152476 
L 113.278485 237.437454 
L 113.479 237.62744 
L 113.880031 237.722433 
L 114.080546 238.197397 
L 114.481577 240.192248 
L 114.882608 240.857198 
L 115.283638 243.611992 
L 115.484154 244.466928 
L 115.684669 244.656914 
L 115.885184 245.321864 
L 116.085699 244.751907 
L 116.286215 245.036885 
L 116.48673 244.941893 
L 116.687245 245.606843 
L 116.887761 245.51185 
L 117.088276 246.081807 
L 117.288791 247.886672 
L 117.489307 247.886672 
L 117.689822 248.266644 
L 117.890337 248.266644 
L 118.291368 248.836601 
L 118.491883 248.836601 
L 118.892914 249.691537 
L 119.293945 249.976516 
L 119.49446 251.11643 
L 119.694975 251.496402 
L 119.895491 251.306416 
L 120.296521 251.591395 
L 120.497037 252.351338 
L 120.697552 252.351338 
L 121.098583 252.921295 
L 121.299098 253.206274 
L 121.499613 254.536174 
L 121.700129 254.536174 
L 121.900644 254.821153 
L 122.101159 256.816004 
L 122.301674 257.480954 
L 122.702705 257.765933 
L 123.504766 257.860926 
L 123.705282 258.715862 
L 123.905797 258.905847 
L 124.106312 258.145904 
L 124.306828 258.430883 
L 124.507343 258.430883 
L 124.707858 260.045762 
L 124.908374 260.235748 
L 125.91095 264.035463 
L 126.713012 265.080385 
L 126.913527 264.890399 
L 127.114042 265.270371 
L 127.515073 265.460357 
L 127.916104 264.795407 
L 128.116619 265.365364 
L 128.51765 265.55535 
L 128.91868 266.600271 
L 129.319711 266.88525 
L 129.720741 267.835179 
L 129.921257 267.930172 
L 130.121772 267.645193 
L 130.923833 267.5502 
L 131.124349 268.310144 
L 131.324864 268.500129 
L 131.525379 268.880101 
L 131.725895 268.880101 
L 131.92641 269.070087 
L 133.129502 268.975094 
L 133.330017 269.545051 
L 133.530533 269.640044 
L 133.731048 271.254923 
L 133.931563 271.82488 
L 134.132079 271.919873 
L 134.733625 275.054639 
L 134.93414 275.054639 
L 135.134655 275.814582 
L 135.335171 275.909575 
L 135.535686 276.194553 
L 135.936716 276.289546 
L 136.538262 277.904425 
L 137.139808 278.094411 
L 137.340324 278.474383 
L 137.540839 278.474383 
L 137.741354 278.664369 
L 137.94187 278.569376 
L 138.142385 278.759361 
L 138.543416 280.279248 
L 138.944446 280.374241 
L 139.345477 281.324169 
L 139.545992 281.229177 
L 139.947023 281.609148 
L 140.548569 281.609148 
L 140.9496 282.274098 
L 141.35063 282.939049 
L 141.751661 282.939049 
L 141.952176 282.65407 
L 142.152692 283.129034 
L 142.353207 283.034041 
L 142.553722 282.749063 
L 142.754237 282.749063 
L 142.954753 284.458935 
L 143.556299 284.648921 
L 143.756814 284.553928 
L 144.558875 286.073814 
L 144.759391 286.073814 
L 145.160421 286.453785 
L 145.761967 287.878679 
L 145.962483 287.973672 
L 146.764544 289.87353 
L 146.965059 289.968522 
L 147.165575 290.253501 
L 147.36609 290.253501 
L 147.767121 291.108437 
L 147.967636 291.108437 
L 148.168151 291.963373 
L 148.368667 292.058366 
L 148.569182 292.723316 
L 148.769697 292.818309 
L 148.970212 293.293274 
L 149.170728 293.293274 
L 149.371243 293.578252 
L 149.571758 293.578252 
L 150.173304 294.908153 
L 150.37382 295.098138 
L 150.574335 295.003146 
L 150.77485 295.668096 
L 151.977942 295.668096 
L 152.579488 296.14306 
L 153.38155 296.238053 
L 153.582065 296.428039 
L 154.183611 296.523032 
L 154.384126 296.618025 
L 154.584642 296.903003 
L 154.985672 296.713018 
L 155.186188 297.662947 
L 155.386703 297.947925 
L 155.787733 299.277826 
L 155.988249 298.802861 
L 156.188764 299.562804 
L 156.589795 299.657797 
L 156.990825 299.75279 
L 157.592371 299.562804 
L 157.792887 299.657797 
L 157.993402 300.132762 
L 158.193917 300.227755 
L 158.594948 300.132762 
L 158.995979 300.132762 
L 159.397009 300.702719 
L 159.79804 300.987698 
L 160.199071 301.082691 
L 160.800617 301.747641 
L 161.001132 301.747641 
L 161.201647 302.032619 
L 162.80577 302.127612 
L 163.006285 302.792563 
L 163.2068 302.507584 
L 163.607831 302.887555 
L 163.808346 303.077541 
L 165.011438 303.077541 
L 165.412469 303.837484 
L 166.415046 303.457513 
L 166.615561 303.647499 
L 166.816076 303.647499 
L 167.417622 304.407442 
L 167.818653 304.312449 
L 168.019168 305.262378 
L 168.219684 304.977399 
L 168.620714 305.357371 
L 168.82123 306.497285 
L 169.021745 306.402292 
L 169.422775 306.782264 
L 169.823806 307.447214 
L 170.024321 307.447214 
L 170.224837 307.067243 
L 170.425352 307.162236 
L 170.625867 307.542207 
L 170.826383 307.542207 
L 171.026898 308.397143 
L 171.427929 308.492136 
L 172.631021 308.492136 
L 172.831536 308.207157 
L 173.032051 308.30215 
L 173.433082 308.207157 
L 173.633597 308.207157 
L 174.034628 309.442065 
L 174.235143 309.347072 
L 175.23772 310.58198 
L 175.63875 310.486987 
L 175.839266 311.24693 
L 176.641327 311.341923 
L 176.841842 311.531908 
L 177.042358 312.57683 
L 177.242873 312.481837 
L 177.844419 312.671823 
L 178.24545 312.291852 
L 178.64648 312.386844 
L 178.846996 312.291852 
L 179.248026 312.671823 
L 180.250603 312.671823 
L 180.451118 312.861809 
L 181.052664 312.861809 
L 182.055241 314.191709 
L 182.857302 314.286702 
L 183.659363 315.046645 
L 183.859879 315.046645 
L 184.060394 314.761667 
L 184.260909 315.806589 
L 185.062971 317.136489 
L 185.263486 316.85151 
L 185.464001 317.041496 
L 185.865032 318.086418 
L 186.065547 318.181411 
L 186.266063 318.086418 
L 186.466578 318.751368 
L 186.867609 318.941354 
L 187.068124 319.511311 
L 187.268639 319.606304 
L 187.469155 319.891283 
L 187.66967 319.891283 
L 187.870185 319.701297 
L 188.070701 319.891283 
L 188.271216 319.701297 
L 188.872762 320.176261 
L 189.073277 319.986276 
L 189.273792 319.986276 
L 189.474308 320.176261 
L 189.674823 320.651226 
L 190.476884 320.746219 
L 190.877915 321.221183 
L 191.07843 320.936205 
L 191.479461 321.506162 
L 191.679976 321.411169 
L 192.081007 321.696148 
L 192.281522 321.981126 
L 192.482038 321.981126 
L 192.682553 322.456091 
L 192.883068 322.551084 
L 193.083584 323.311027 
L 193.484614 323.311027 
L 194.08616 324.07097 
L 194.687706 324.07097 
L 194.888222 324.640927 
L 195.088737 325.590856 
L 195.289252 325.590856 
L 196.091313 326.255806 
L 196.492344 325.970828 
L 196.692859 326.540785 
L 197.294405 326.920757 
L 197.494921 326.730771 
L 197.895951 327.110742 
L 198.296982 327.395721 
L 198.497497 327.300728 
L 199.099043 327.490714 
L 199.500074 327.395721 
L 199.700589 327.6807 
L 199.901105 327.6807 
L 200.302135 327.965678 
L 200.502651 328.060671 
L 200.703166 327.870686 
L 200.903681 328.250657 
L 201.104197 328.250657 
L 201.304712 328.535636 
L 201.505227 328.440643 
L 201.705743 328.725622 
L 201.906258 329.295579 
L 202.307288 329.390572 
L 203.309865 329.485565 
L 203.51038 329.580558 
L 203.710896 329.485565 
L 204.111926 329.580558 
L 204.512957 329.580558 
L 204.713472 329.0106 
L 205.114503 329.295579 
L 206.11708 329.295579 
L 206.51811 329.67555 
L 207.921718 330.340501 
L 208.322748 330.815465 
L 208.924294 331.005451 
L 209.124809 331.005451 
L 209.325325 331.195437 
L 210.728932 331.195437 
L 211.129963 330.815465 
L 211.330478 330.910458 
L 211.530993 330.815465 
L 211.731509 331.100444 
L 211.932024 330.815465 
L 212.734085 331.670401 
L 213.135116 332.145366 
L 213.937177 332.240358 
L 214.338208 332.525337 
L 214.538723 332.905309 
L 214.939754 332.810316 
L 215.741815 332.905309 
L 215.94233 333.190287 
L 216.744392 333.095294 
L 216.944907 333.000302 
L 217.345938 333.28528 
L 217.546453 333.28528 
L 218.147999 334.045223 
L 218.749545 333.95023 
L 218.95006 333.570259 
L 221.155729 333.570259 
L 221.55676 334.045223 
L 221.757275 334.425195 
L 221.95779 334.330202 
L 222.158305 334.520188 
L 222.358821 335.185138 
L 222.759851 335.56511 
L 223.361397 335.660103 
L 224.765005 336.325053 
L 224.96552 336.23006 
L 225.166035 336.610031 
L 225.968097 336.610031 
L 226.369127 336.990003 
L 226.770158 337.084996 
L 227.171189 336.990003 
L 227.572219 337.084996 
L 228.374281 337.55996 
L 228.574796 337.939932 
L 228.775311 338.034925 
L 228.975826 338.319903 
L 229.376857 338.224911 
L 229.777888 338.604882 
L 229.978403 338.604882 
L 230.178918 338.794868 
L 230.379434 338.794868 
L 231.38201 339.744797 
L 231.783041 339.744797 
L 231.983556 340.029775 
L 233.98871 340.124768 
L 234.38974 340.219761 
L 235.392317 340.124768 
L 235.793347 340.029775 
L 236.194378 340.029775 
L 236.394893 340.314754 
L 238.199531 340.409747 
L 238.600562 341.074697 
L 238.801077 341.264683 
L 239.001593 341.264683 
L 239.603139 341.739647 
L 239.803654 341.739647 
L 240.204685 342.024626 
L 240.4052 342.119619 
L 240.806231 342.499591 
L 241.608292 342.784569 
L 243.011899 342.879562 
L 243.41293 342.974555 
L 244.415506 343.069548 
L 245.017052 343.259534 
L 245.418083 343.354527 
L 245.819114 343.734498 
L 247.222721 343.639505 
L 247.623752 343.544512 
L 248.225298 343.639505 
L 248.425813 343.829491 
L 248.626328 343.734498 
L 249.027359 344.304456 
L 249.227874 344.11447 
L 249.628905 344.209463 
L 249.82942 344.209463 
L 250.029935 344.77942 
L 250.230451 344.969406 
L 251.032512 344.969406 
L 251.233027 345.159392 
L 251.433543 345.159392 
L 251.634058 345.634356 
L 252.436119 345.729349 
L 253.037665 346.394299 
L 253.238181 346.394299 
L 253.438696 346.204313 
L 253.839727 346.204313 
L 254.240757 346.489292 
L 255.644364 346.394299 
L 255.84488 346.204313 
L 257.649518 346.299306 
L 257.850033 346.489292 
L 259.454156 346.584285 
L 259.855186 346.679278 
L 260.857763 346.584285 
L 261.058278 346.489292 
L 261.258794 346.679278 
L 261.659824 346.774271 
L 262.060855 346.869264 
L 262.662401 346.869264 
L 263.063431 347.154242 
L 263.263947 347.059249 
L 263.464462 347.249235 
L 263.664977 347.249235 
L 264.266523 347.914185 
L 264.467039 348.294157 
L 264.868069 348.199164 
L 265.068585 348.484143 
L 265.2691 348.38915 
L 265.670131 348.484143 
L 266.071161 348.38915 
L 270.683014 348.484143 
L 271.084044 348.579136 
L 272.086621 348.579136 
L 272.287136 348.199164 
L 272.487652 348.199164 
L 272.688167 348.674128 
L 272.888682 348.674128 
L 273.089198 348.484143 
L 273.490228 348.579136 
L 273.690744 349.0541 
L 273.891259 348.864114 
L 274.091774 348.864114 
L 274.69332 349.339079 
L 275.094351 349.529064 
L 275.294866 349.434072 
L 275.695897 349.71905 
L 276.698473 349.71905 
L 276.898989 349.909036 
L 277.70105 350.004029 
L 278.904142 350.478993 
L 279.706203 350.573986 
L 279.906719 350.668979 
L 280.307749 350.573986 
L 280.909295 350.763972 
L 281.310326 350.668979 
L 281.510841 350.478993 
L 281.911872 350.573986 
L 282.713933 350.668979 
L 282.914448 350.763972 
L 283.315479 350.573986 
L 283.71651 351.048951 
L 284.518571 350.953958 
L 284.719086 350.858965 
L 284.919602 350.953958 
L 285.120117 351.238936 
L 285.922178 351.333929 
L 286.122694 351.523915 
L 287.12527 351.618908 
L 287.325786 351.713901 
L 287.526301 352.188865 
L 288.127847 352.093872 
L 288.528878 351.99888 
L 288.729393 352.473844 
L 289.130423 352.568837 
L 289.330939 352.853816 
L 289.731969 352.853816 
L 290.133 353.138794 
L 290.534031 353.233787 
L 292.539184 353.32878 
L 292.940215 353.803745 
L 293.14073 353.803745 
L 293.341245 353.613759 
L 293.742276 353.898737 
L 294.544337 354.183716 
L 295.346398 354.183716 
L 295.546914 354.373702 
L 296.14846 354.373702 
L 296.750006 354.848666 
L 297.151036 354.943659 
L 298.354128 354.943659 
L 298.554644 355.133645 
L 298.755159 354.848666 
L 299.15619 354.943659 
L 299.757736 355.038652 
L 300.158766 355.133645 
L 300.359282 355.038652 
L 300.559797 355.228638 
L 300.760312 355.038652 
L 301.161343 355.133645 
L 302.163919 355.228638 
L 302.56495 355.323631 
L 302.965981 355.228638 
L 303.166496 355.228638 
L 303.367011 355.608609 
L 303.567527 355.513617 
L 303.768042 355.608609 
L 303.968557 355.893588 
L 305.372165 355.988581 
L 305.57268 356.083574 
L 305.973711 355.988581 
L 308.379895 356.083574 
L 308.780925 356.368553 
L 309.181956 356.653531 
L 309.382471 356.653531 
L 309.783502 357.033503 
L 309.984017 357.033503 
L 310.184532 357.223489 
L 310.986594 357.318481 
L 311.187109 357.508467 
L 311.788655 357.318481 
L 312.590716 357.318481 
L 312.791232 357.508467 
L 313.593293 357.508467 
L 314.194839 357.983432 
L 314.59587 357.698453 
L 314.796385 357.888439 
L 314.9969 357.793446 
L 315.197416 357.983432 
L 315.598446 358.078425 
L 316.400507 358.363403 
L 316.601023 358.26841 
L 317.403084 358.553389 
L 318.606176 358.458396 
L 318.806691 358.26841 
L 320.410814 358.363403 
L 320.811845 358.458396 
L 321.01236 358.933361 
L 321.413391 358.838368 
L 323.017513 358.743375 
L 323.218028 359.028353 
L 323.819574 358.648382 
L 324.220605 358.933361 
L 326.626789 358.933361 
L 326.827304 359.123346 
L 328.431427 359.123346 
L 328.631942 359.313332 
L 333.644825 359.408325 
L 334.246371 359.598311 
L 335.649978 359.693304 
L 335.850494 359.883289 
L 336.45204 359.788297 
L 336.85307 359.693304 
L 337.254101 359.788297 
L 337.855647 359.788297 
L 338.056162 359.978282 
L 339.8608 360.073275 
L 340.061316 360.358254 
L 341.063892 360.263261 
L 341.264408 360.54824 
L 342.467499 360.54824 
L 342.668015 360.738225 
L 343.670591 360.833218 
L 343.871107 361.118197 
L 345.87626 361.21319 
L 346.076775 361.403176 
L 346.277291 361.308183 
L 346.678321 361.403176 
L 346.878837 361.403176 
L 347.079352 361.593161 
L 347.279867 361.403176 
L 347.680898 361.403176 
L 347.881413 361.593161 
L 349.28502 361.688154 
L 349.485536 361.87814 
L 351.89172 361.973133 
L 352.29275 362.068126 
L 353.696358 361.973133 
L 353.896873 362.258112 
L 354.498419 362.353105 
L 354.698934 362.068126 
L 354.89945 362.068126 
L 355.099965 362.448097 
L 355.30048 362.54309 
L 355.500995 362.353105 
L 356.303057 362.638083 
L 356.704087 362.448097 
L 357.105118 362.733076 
L 358.107695 362.828069 
L 358.909756 363.113048 
L 359.110271 363.018055 
L 359.310787 363.113048 
L 359.511302 363.398026 
L 360.714394 363.303033 
L 360.914909 363.208041 
L 361.31594 363.303033 
L 361.716971 363.208041 
L 362.318516 363.113048 
L 362.519032 363.398026 
L 362.719547 363.303033 
L 362.920062 363.398026 
L 363.120578 363.303033 
L 363.521608 363.493019 
L 363.922639 363.398026 
L 364.524185 363.588012 
L 365.727277 363.683005 
L 365.927792 363.777998 
L 366.328823 363.398026 
L 366.529338 363.683005 
L 369.336553 363.777998 
L 369.537068 363.872991 
L 369.938099 363.777998 
L 370.940675 363.872991 
L 371.141191 363.967984 
L 371.341706 363.872991 
L 371.742737 363.967984 
L 371.943252 363.777998 
L 372.143767 363.777998 
L 372.344283 364.15797 
L 372.745313 364.062977 
L 373.146344 364.15797 
L 374.349436 364.252962 
L 374.549951 364.442948 
L 378.359742 364.537941 
L 378.760773 364.632934 
L 379.76335 364.727927 
L 380.364896 364.917913 
L 381.567988 364.917913 
L 381.969018 365.297884 
L 382.169533 365.202891 
L 382.370049 365.392877 
L 385.177263 365.48787 
L 385.778809 365.677856 
L 388.786539 365.582863 
L 388.987054 365.48787 
L 389.5886 365.677856 
L 389.789116 365.677856 
L 389.989631 365.867842 
L 390.390662 365.867842 
L 390.791692 366.15282 
L 391.393238 366.247813 
L 391.994784 366.437799 
L 392.796846 366.437799 
L 392.997361 366.247813 
L 393.598907 366.437799 
L 393.999938 366.437799 
L 394.200453 366.247813 
L 394.400968 366.342806 
L 395.002514 366.15282 
L 395.203029 366.15282 
L 395.403545 366.342806 
L 396.005091 366.437799 
L 396.406121 366.722778 
L 398.411275 366.627785 
L 398.61179 366.912763 
L 398.812305 366.81777 
L 399.012821 367.102749 
L 401.820035 367.197742 
L 402.221066 367.292735 
L 402.421581 367.197742 
L 403.223642 367.482721 
L 404.025704 367.482721 
L 404.226219 367.672706 
L 405.228796 367.577714 
L 405.429311 367.482721 
L 406.030857 367.672706 
L 410.041163 367.767699 
L 410.241679 367.957685 
L 415.054047 368.052678 
L 415.455077 368.147671 
L 417.861261 368.147671 
L 418.061776 368.337657 
L 418.863838 368.43265 
L 419.264868 368.527642 
L 425.079813 368.622635 
L 425.280328 368.812621 
L 426.082389 368.812621 
L 426.282905 369.002607 
L 426.48342 368.812621 
L 428.488573 368.907614 
L 428.889604 369.002607 
L 431.295788 369.002607 
L 431.496303 369.192593 
L 432.097849 369.192593 
L 432.298364 369.477571 
L 432.49888 369.477571 
L 432.699395 369.287586 
L 433.501456 369.382578 
L 433.902487 369.477571 
L 435.506609 369.477571 
L 435.707125 369.667557 
L 436.108155 369.76255 
L 436.509186 369.857543 
L 448.33959 369.952536 
L 448.740621 370.047529 
L 452.349897 370.142522 
L 452.750927 370.237514 
L 457.162264 370.332507 
L 457.563295 370.4275 
L 457.76381 370.332507 
L 457.964326 370.4275 
L 458.365356 370.332507 
L 461.774117 370.4275 
L 462.175147 370.522493 
L 463.177724 370.617486 
L 463.578755 370.712479 
L 463.979785 370.617486 
L 476.010705 370.617486 
L 476.21122 370.807472 
L 480.221527 370.807472 
L 480.422042 370.997458 
L 491.249869 371.09245 
L 491.6509 371.187443 
L 501.476151 371.282436 
L 501.877181 371.377429 
L 515.311708 371.472422 
L 515.712739 371.567415 
L 522.329744 371.472422 
L 522.730775 371.377429 
L 524.535413 371.472422 
L 525.136959 371.662408 
L 527.342628 371.757401 
L 527.743658 371.852394 
L 544.787461 371.947386 
L 545.589522 372.232365 
L 560.227141 372.327358 
L 560.628171 372.422351 
L 575.66682 372.517344 
L 576.067851 372.612337 
L 582.484341 372.70733 
L 582.885372 372.802322 
L 601.533297 372.897315 
L 602.134843 373.087301 
L 641.034816 373.182294 
L 641.435846 373.277287 
L 673.718814 373.37228 
L 674.119844 373.467273 
L 679.132727 373.467273 
L 679.132727 373.467273 
" style="fill:none;stroke:#1f77b4;stroke-linecap:square;stroke-width:1.5;"/>
   </g>
   <g id="line2d_14">
    <path clip-path="url(#p162a2cb38b)" d="M 77.787273 42.012727 
L 77.987788 62.90074 
L 78.589334 50.367932 
L 78.789849 49.608368 
L 78.990365 60.622048 
L 79.19088 60.622048 
L 79.391395 58.343355 
L 79.591911 60.622048 
L 79.992941 68.597471 
L 80.393972 67.837907 
L 80.795003 71.635727 
L 80.995518 69.736817 
L 81.196033 69.357035 
L 81.396549 66.69856 
L 81.597064 66.69856 
L 81.998095 69.736817 
L 82.19861 70.116599 
L 82.399125 67.837907 
L 82.59964 68.217689 
L 82.800156 72.015509 
L 83.000671 69.736817 
L 83.201186 68.977253 
L 83.401702 68.977253 
L 83.802732 70.116599 
L 84.003248 70.496381 
L 84.203763 69.736817 
L 84.404278 69.736817 
L 84.604794 73.154855 
L 84.805309 72.395291 
L 85.005824 74.294201 
L 85.20634 74.673983 
L 85.406855 74.673983 
L 85.807886 76.952676 
L 86.208916 78.851586 
L 86.409432 78.092022 
L 86.609947 81.51006 
L 87.010978 81.51006 
L 87.211493 81.889842 
L 87.412008 79.61115 
L 87.612524 78.851586 
L 88.013554 80.370714 
L 88.21407 80.370714 
L 88.414585 80.750496 
L 88.815616 83.029188 
L 89.016131 83.40897 
L 89.417161 82.269624 
L 89.617677 83.029188 
L 89.818192 81.51006 
L 90.018707 83.029188 
L 90.219223 83.029188 
L 90.419738 85.307881 
L 90.620253 84.928099 
L 90.820769 85.307881 
L 91.021284 83.788753 
L 91.221799 83.788753 
L 91.422315 84.928099 
L 91.62283 85.307881 
L 91.823345 85.307881 
L 92.023861 84.548317 
L 92.424891 91.004611 
L 92.625407 91.384394 
L 92.825922 90.624829 
L 93.026437 92.52374 
L 93.427468 91.764176 
L 93.627983 92.143958 
L 93.828499 89.865265 
L 94.029014 90.624829 
L 94.229529 90.245047 
L 94.430045 91.384394 
L 94.63056 91.384394 
L 94.831075 91.004611 
L 95.232106 92.52374 
L 95.432621 94.042868 
L 95.633137 93.283304 
L 95.833652 93.283304 
L 96.034167 94.042868 
L 96.234682 94.042868 
L 96.435198 95.182214 
L 96.635713 95.561996 
L 96.836228 97.081124 
L 97.036744 97.460906 
L 97.237259 97.460906 
L 97.838805 96.32156 
L 98.03932 97.460906 
L 98.239836 96.32156 
L 98.440351 95.941778 
L 98.640866 97.460906 
L 98.841382 97.840688 
L 99.041897 97.081124 
L 99.242412 97.460906 
L 99.442928 97.460906 
L 99.643443 98.22047 
L 99.843958 97.840688 
L 100.044474 97.840688 
L 100.64602 100.878945 
L 100.846535 99.739599 
L 101.04705 99.739599 
L 101.247566 99.359817 
L 101.648596 100.878945 
L 101.849112 100.878945 
L 102.049627 100.499163 
L 102.651173 100.499163 
L 103.052203 101.258727 
L 103.252719 100.499163 
L 103.453234 102.398073 
L 103.653749 101.638509 
L 103.854265 103.157637 
L 104.255295 103.917201 
L 104.455811 103.157637 
L 104.656326 104.676765 
L 104.856841 103.917201 
L 105.057357 103.917201 
L 105.458387 105.056547 
L 105.859418 103.917201 
L 106.059933 104.296983 
L 106.260449 104.296983 
L 106.460964 101.638509 
L 106.661479 101.638509 
L 106.861995 102.777855 
L 107.06251 101.638509 
L 107.463541 103.917201 
L 107.664056 103.917201 
L 108.065087 102.777855 
L 108.466117 102.777855 
L 108.666633 103.157637 
L 108.867148 103.917201 
L 109.268178 103.917201 
L 109.669209 103.157637 
L 109.869724 103.157637 
L 110.07024 103.537419 
L 110.47127 104.676765 
L 110.671786 104.296983 
L 110.872301 105.056547 
L 111.273332 105.056547 
L 111.473847 104.676765 
L 111.674362 106.575675 
L 111.874878 106.195893 
L 112.476424 106.195893 
L 112.676939 106.575675 
L 113.07797 108.094804 
L 113.278485 108.094804 
L 113.479 108.854368 
L 113.679516 108.854368 
L 114.080546 110.753278 
L 114.281062 110.373496 
L 114.481577 110.753278 
L 114.682092 110.373496 
L 114.882608 110.753278 
L 115.083123 111.512842 
L 115.283638 113.03197 
L 115.484154 113.411752 
L 115.684669 112.652188 
L 115.885184 113.03197 
L 116.286215 113.03197 
L 116.48673 113.411752 
L 116.887761 113.411752 
L 117.088276 113.791534 
L 117.288791 112.272406 
L 117.890337 112.272406 
L 118.090853 111.892624 
L 118.491883 111.892624 
L 118.892914 111.13306 
L 119.093429 111.512842 
L 119.49446 111.512842 
L 119.694975 113.03197 
L 119.895491 113.03197 
L 120.296521 113.791534 
L 120.497037 113.411752 
L 120.697552 113.411752 
L 120.898067 113.03197 
L 121.299098 111.892624 
L 121.700129 113.411752 
L 121.900644 112.652188 
L 122.101159 113.411752 
L 122.301674 114.93088 
L 122.50219 115.310663 
L 122.702705 114.93088 
L 122.90322 114.93088 
L 123.103736 114.551098 
L 123.504766 114.551098 
L 123.705282 114.93088 
L 123.905797 114.551098 
L 124.106312 116.070227 
L 124.507343 115.310663 
L 124.707858 115.690445 
L 124.908374 115.310663 
L 125.108889 115.690445 
L 125.309404 115.310663 
L 125.50992 116.450009 
L 125.710435 116.070227 
L 125.91095 116.450009 
L 126.111466 115.690445 
L 126.311981 115.690445 
L 126.512496 116.070227 
L 127.314558 116.070227 
L 127.515073 116.450009 
L 127.715588 117.209573 
L 127.916104 117.209573 
L 128.116619 117.969137 
L 128.317134 117.969137 
L 128.51765 117.589355 
L 128.91868 116.450009 
L 129.119195 116.829791 
L 129.520226 116.829791 
L 129.720741 118.728701 
L 129.921257 118.728701 
L 130.121772 118.348919 
L 130.322287 118.728701 
L 130.522803 118.728701 
L 130.923833 119.488265 
L 131.324864 117.969137 
L 131.725895 117.969137 
L 131.92641 118.348919 
L 132.327441 118.348919 
L 132.527956 118.728701 
L 132.928987 118.728701 
L 133.330017 119.868047 
L 133.530533 120.247829 
L 133.731048 119.868047 
L 133.931563 121.007393 
L 134.132079 120.247829 
L 134.332594 117.209573 
L 134.533109 116.450009 
L 134.733625 116.450009 
L 135.134655 117.969137 
L 135.335171 117.969137 
L 135.535686 118.348919 
L 135.936716 119.488265 
L 136.337747 119.488265 
L 136.538262 119.868047 
L 136.939293 119.868047 
L 137.139808 120.247829 
L 137.340324 119.868047 
L 137.540839 119.868047 
L 137.741354 119.108483 
L 137.94187 119.108483 
L 138.142385 118.728701 
L 138.543416 121.007393 
L 138.743931 121.007393 
L 139.345477 118.728701 
L 139.947023 120.627611 
L 140.147538 120.627611 
L 140.548569 119.868047 
L 140.749084 120.247829 
L 140.9496 121.387175 
L 141.150115 121.766957 
L 141.551146 121.007393 
L 142.353207 121.007393 
L 142.553722 121.387175 
L 142.754237 121.007393 
L 143.155268 121.766957 
L 143.355783 122.526521 
L 143.756814 122.526521 
L 143.957329 122.146739 
L 144.157845 122.526521 
L 144.35836 121.387175 
L 144.759391 121.387175 
L 145.761967 124.805214 
L 145.962483 125.184996 
L 146.162998 123.665868 
L 146.363513 123.665868 
L 146.564029 124.04565 
L 146.764544 126.324342 
L 146.965059 125.94456 
L 147.165575 124.805214 
L 147.36609 124.805214 
L 147.566605 123.665868 
L 148.168151 124.805214 
L 148.368667 125.94456 
L 148.970212 125.94456 
L 149.170728 125.564778 
L 149.371243 125.94456 
L 149.571758 125.184996 
L 149.972789 127.463688 
L 150.173304 127.463688 
L 150.37382 128.603034 
L 150.574335 128.603034 
L 150.77485 128.982816 
L 150.975366 130.501944 
L 151.175881 130.881726 
L 151.576912 129.74238 
L 151.777427 130.122162 
L 151.977942 130.122162 
L 152.178458 129.74238 
L 152.378973 130.501944 
L 152.579488 130.501944 
L 152.780004 131.261509 
L 153.181034 130.501944 
L 153.38155 129.362598 
L 153.582065 129.74238 
L 153.983096 129.74238 
L 154.183611 130.122162 
L 154.384126 129.74238 
L 154.584642 128.982816 
L 154.985672 128.982816 
L 155.186188 129.74238 
L 155.386703 129.362598 
L 155.587218 129.74238 
L 155.787733 130.881726 
L 155.988249 130.501944 
L 156.188764 131.261509 
L 156.389279 131.261509 
L 156.79031 132.021073 
L 157.592371 132.021073 
L 157.993402 131.261509 
L 158.193917 131.261509 
L 158.394433 130.881726 
L 158.594948 130.881726 
L 158.795463 132.021073 
L 158.995979 132.021073 
L 159.196494 130.881726 
L 159.397009 131.261509 
L 159.79804 131.261509 
L 159.998555 130.122162 
L 160.199071 130.881726 
L 160.399586 130.501944 
L 160.600101 129.74238 
L 161.001132 129.74238 
L 161.201647 128.982816 
L 161.402163 129.74238 
L 161.602678 131.641291 
L 162.003709 131.641291 
L 162.204224 132.400855 
L 162.404739 132.400855 
L 162.605254 132.780637 
L 163.2068 131.641291 
L 163.407316 132.400855 
L 163.607831 132.021073 
L 163.808346 132.400855 
L 164.209377 131.641291 
L 164.610408 131.641291 
L 164.810923 132.021073 
L 165.011438 132.021073 
L 165.211954 132.780637 
L 165.612984 132.780637 
L 165.8135 133.160419 
L 166.014015 133.160419 
L 166.21453 132.780637 
L 166.415046 132.780637 
L 166.615561 133.160419 
L 166.816076 132.780637 
L 167.016592 133.160419 
L 167.618138 135.059329 
L 167.818653 135.439111 
L 168.019168 134.679547 
L 168.219684 134.679547 
L 168.82123 132.400855 
L 169.021745 132.780637 
L 169.22226 132.780637 
L 169.422775 133.160419 
L 169.623291 132.780637 
L 169.823806 133.160419 
L 170.024321 132.780637 
L 170.224837 133.919983 
L 170.826383 135.059329 
L 171.026898 136.198675 
L 171.227413 135.439111 
L 171.427929 135.439111 
L 171.828959 136.198675 
L 172.22999 136.198675 
L 172.430505 135.439111 
L 172.831536 135.439111 
L 173.032051 135.818893 
L 173.433082 135.818893 
L 174.034628 134.679547 
L 174.235143 135.059329 
L 174.435659 134.299765 
L 174.636174 132.400855 
L 174.836689 132.780637 
L 175.037205 132.400855 
L 175.63875 132.400855 
L 176.039781 133.160419 
L 176.841842 133.160419 
L 177.242873 134.299765 
L 177.443388 134.679547 
L 177.643904 133.919983 
L 177.844419 134.299765 
L 178.044934 134.299765 
L 178.445965 135.439111 
L 178.64648 135.439111 
L 178.846996 135.059329 
L 179.047511 135.439111 
L 179.248026 135.059329 
L 179.448542 135.059329 
L 179.649057 135.439111 
L 180.250603 135.439111 
L 180.651634 136.198675 
L 180.852149 135.439111 
L 181.65421 135.439111 
L 181.854726 136.198675 
L 182.255756 135.439111 
L 182.456271 135.818893 
L 182.857302 136.958239 
L 183.258333 135.818893 
L 183.859879 135.818893 
L 184.060394 136.198675 
L 184.260909 135.439111 
L 184.461425 133.919983 
L 184.66194 134.679547 
L 185.062971 133.540201 
L 185.263486 133.540201 
L 185.464001 134.299765 
L 185.664517 134.299765 
L 186.065547 135.059329 
L 186.266063 135.059329 
L 186.466578 134.679547 
L 186.667093 135.439111 
L 186.867609 135.439111 
L 187.068124 135.059329 
L 187.268639 135.059329 
L 187.469155 135.439111 
L 187.66967 135.439111 
L 187.870185 137.338021 
L 188.070701 136.578457 
L 188.271216 136.958239 
L 188.471731 136.578457 
L 188.672247 136.578457 
L 188.872762 136.958239 
L 189.073277 136.958239 
L 189.273792 136.198675 
L 189.474308 136.198675 
L 190.075854 137.338021 
L 190.476884 136.198675 
L 190.6774 135.818893 
L 190.877915 136.958239 
L 191.07843 136.958239 
L 191.278946 137.717803 
L 191.679976 137.717803 
L 192.081007 138.477367 
L 192.281522 138.477367 
L 192.482038 137.338021 
L 192.682553 136.958239 
L 193.885645 136.958239 
L 194.08616 137.338021 
L 194.286676 137.338021 
L 194.487191 136.578457 
L 194.687706 136.578457 
L 195.088737 137.338021 
L 195.289252 136.578457 
L 195.690283 136.578457 
L 195.890798 137.717803 
L 196.091313 138.097585 
L 196.692859 136.958239 
L 196.893375 136.958239 
L 197.09389 136.578457 
L 197.294405 136.578457 
L 197.494921 136.198675 
L 197.695436 136.958239 
L 197.895951 136.578457 
L 198.096467 136.578457 
L 198.296982 136.198675 
L 198.497497 136.198675 
L 198.698013 135.439111 
L 198.898528 135.818893 
L 199.500074 135.818893 
L 199.700589 136.578457 
L 199.901105 136.578457 
L 200.10162 136.198675 
L 200.302135 135.439111 
L 200.502651 136.198675 
L 200.703166 135.818893 
L 201.104197 135.818893 
L 201.304712 135.439111 
L 202.307288 138.857149 
L 202.507804 139.236932 
L 202.708319 139.236932 
L 202.908834 138.857149 
L 203.10935 138.857149 
L 203.309865 138.477367 
L 203.51038 138.857149 
L 204.312442 138.857149 
L 204.512957 138.477367 
L 204.713472 138.857149 
L 204.913988 138.477367 
L 205.716049 138.477367 
L 205.916564 138.097585 
L 206.317595 138.097585 
L 206.51811 137.717803 
L 206.718626 138.857149 
L 206.919141 138.097585 
L 207.119656 138.477367 
L 207.320172 139.236932 
L 207.921718 139.236932 
L 208.322748 137.717803 
L 208.523264 137.717803 
L 208.723779 137.338021 
L 208.924294 138.477367 
L 209.124809 138.857149 
L 209.325325 138.857149 
L 209.726355 139.996496 
L 209.926871 140.376278 
L 210.127386 139.996496 
L 210.327901 139.236932 
L 210.528417 139.236932 
L 210.728932 139.616714 
L 210.929447 138.477367 
L 211.530993 138.477367 
L 211.731509 138.097585 
L 211.932024 138.477367 
L 212.132539 139.236932 
L 212.333055 139.236932 
L 212.53357 138.857149 
L 212.734085 138.857149 
L 213.135116 137.717803 
L 214.538723 137.717803 
L 214.739239 136.578457 
L 215.340785 136.578457 
L 216.142846 139.236932 
L 216.343361 138.857149 
L 216.744392 138.857149 
L 216.944907 138.477367 
L 217.546453 138.477367 
L 217.746968 139.616714 
L 218.749545 139.616714 
L 218.95006 138.857149 
L 219.150576 138.857149 
L 219.351091 139.236932 
L 219.551606 139.236932 
L 219.752122 139.616714 
L 220.554183 139.616714 
L 220.754698 139.236932 
L 220.955214 139.236932 
L 221.356244 139.996496 
L 221.55676 141.515624 
L 222.358821 139.996496 
L 222.559336 139.996496 
L 222.759851 140.376278 
L 222.960367 140.376278 
L 223.160882 139.996496 
L 223.361397 139.996496 
L 223.561913 139.616714 
L 223.762428 140.376278 
L 223.962943 140.376278 
L 224.363974 138.477367 
L 224.564489 138.477367 
L 224.765005 138.857149 
L 224.96552 138.857149 
L 225.366551 139.996496 
L 225.767581 139.236932 
L 226.168612 139.236932 
L 226.569643 138.477367 
L 227.371704 139.996496 
L 227.572219 138.857149 
L 227.772735 138.857149 
L 227.97325 139.616714 
L 228.374281 139.616714 
L 228.574796 140.376278 
L 228.775311 140.376278 
L 228.975826 140.75606 
L 229.176342 141.515624 
L 229.577372 140.75606 
L 229.777888 141.895406 
L 230.178918 141.895406 
L 230.379434 141.515624 
L 230.780464 140.376278 
L 230.98098 140.75606 
L 231.181495 139.996496 
L 231.38201 139.996496 
L 231.582526 140.376278 
L 231.783041 141.135842 
L 231.983556 139.996496 
L 232.184072 140.376278 
L 232.384587 139.996496 
L 232.585102 140.75606 
L 232.785618 139.616714 
L 232.986133 139.616714 
L 233.387164 140.376278 
L 234.790771 140.376278 
L 234.991286 139.996496 
L 235.191802 140.75606 
L 235.392317 140.75606 
L 235.592832 139.996496 
L 236.194378 139.996496 
L 236.595409 141.135842 
L 236.795924 140.75606 
L 237.999016 140.75606 
L 238.199531 141.135842 
L 238.400047 141.895406 
L 238.600562 141.895406 
L 239.001593 141.135842 
L 239.202108 141.135842 
L 239.402623 141.895406 
L 239.603139 141.515624 
L 239.803654 141.515624 
L 240.004169 142.275188 
L 240.204685 142.275188 
L 240.4052 141.895406 
L 240.605715 142.275188 
L 240.806231 142.275188 
L 241.207261 143.414534 
L 241.608292 142.65497 
L 241.808807 142.65497 
L 242.209838 143.414534 
L 243.011899 143.414534 
L 243.212414 143.794316 
L 243.41293 143.794316 
L 243.613445 143.414534 
L 244.014476 144.174098 
L 244.214991 144.174098 
L 244.415506 143.794316 
L 244.616022 143.794316 
L 244.816537 144.174098 
L 245.017052 144.174098 
L 245.418083 144.933662 
L 246.82169 144.933662 
L 247.022206 145.693226 
L 247.222721 145.693226 
L 247.423236 145.313444 
L 248.024782 145.313444 
L 248.225298 144.933662 
L 248.626328 145.693226 
L 248.826843 145.313444 
L 249.027359 145.313444 
L 249.227874 145.693226 
L 250.029935 145.693226 
L 250.230451 146.073008 
L 250.430966 146.073008 
L 250.831997 145.313444 
L 251.032512 145.313444 
L 251.233027 145.693226 
L 251.433543 145.693226 
L 251.634058 146.073008 
L 252.035089 146.073008 
L 252.436119 146.832573 
L 252.636635 146.832573 
L 253.037665 145.693226 
L 253.238181 145.313444 
L 253.639211 145.313444 
L 253.839727 145.693226 
L 254.040242 145.313444 
L 254.441273 145.313444 
L 254.842303 144.55388 
L 255.243334 144.55388 
L 255.644364 145.313444 
L 256.446426 145.313444 
L 256.646941 145.693226 
L 257.649518 145.693226 
L 257.850033 145.313444 
L 258.050548 144.174098 
L 258.251064 144.55388 
L 259.855186 144.55388 
L 260.055702 144.933662 
L 260.657248 144.933662 
L 261.058278 145.693226 
L 261.258794 146.45279 
L 261.459309 146.073008 
L 261.659824 146.073008 
L 261.86034 145.693226 
L 262.060855 145.693226 
L 262.26137 144.933662 
L 262.662401 144.933662 
L 262.862916 145.693226 
L 263.263947 144.174098 
L 263.464462 144.55388 
L 263.865493 144.55388 
L 264.066008 144.933662 
L 264.266523 144.55388 
L 264.467039 144.55388 
L 264.667554 144.174098 
L 264.868069 144.174098 
L 265.068585 144.55388 
L 265.2691 145.313444 
L 265.670131 145.313444 
L 265.870646 144.933662 
L 266.271677 144.933662 
L 266.472192 144.55388 
L 266.873223 144.55388 
L 267.073738 144.933662 
L 267.274253 144.55388 
L 267.875799 144.55388 
L 268.076315 144.933662 
L 268.878376 144.933662 
L 269.078891 145.313444 
L 271.886106 145.313444 
L 272.086621 145.693226 
L 272.487652 145.693226 
L 272.688167 146.073008 
L 273.089198 146.073008 
L 273.490228 145.313444 
L 273.690744 146.073008 
L 273.891259 146.073008 
L 274.091774 146.832573 
L 274.69332 146.832573 
L 274.893836 146.073008 
L 275.094351 147.592137 
L 275.294866 147.592137 
L 275.695897 148.731483 
L 275.896412 148.731483 
L 276.297443 147.971919 
L 276.698473 147.971919 
L 276.898989 147.592137 
L 277.300019 147.592137 
L 277.500535 148.351701 
L 277.70105 148.351701 
L 278.102081 147.592137 
L 278.302596 147.971919 
L 278.503111 148.731483 
L 278.703627 148.351701 
L 278.904142 148.731483 
L 279.505688 148.731483 
L 279.906719 147.971919 
L 280.107234 147.971919 
L 280.307749 147.592137 
L 281.109811 147.592137 
L 281.310326 147.212355 
L 281.510841 147.971919 
L 281.711357 147.971919 
L 281.911872 147.592137 
L 282.112387 147.592137 
L 282.312902 147.971919 
L 282.713933 147.971919 
L 282.914448 148.351701 
L 283.114964 147.971919 
L 283.315479 147.971919 
L 283.515994 147.592137 
L 283.71651 147.592137 
L 283.917025 147.212355 
L 284.11754 147.212355 
L 284.518571 146.45279 
L 284.719086 145.693226 
L 284.919602 146.073008 
L 285.120117 145.693226 
L 285.521148 146.45279 
L 285.721663 146.45279 
L 285.922178 146.073008 
L 286.122694 146.45279 
L 286.523724 146.45279 
L 286.72424 146.073008 
L 287.325786 146.073008 
L 287.726816 146.832573 
L 288.127847 146.832573 
L 288.328362 146.073008 
L 288.528878 146.073008 
L 288.729393 145.693226 
L 288.929908 145.693226 
L 289.330939 146.45279 
L 289.731969 145.313444 
L 289.932485 146.073008 
L 290.333515 146.073008 
L 290.734546 146.832573 
L 290.935061 146.832573 
L 291.135577 146.45279 
L 291.536607 146.45279 
L 291.737123 147.212355 
L 291.937638 146.832573 
L 292.338669 146.832573 
L 292.539184 145.693226 
L 292.739699 145.693226 
L 292.940215 144.933662 
L 293.14073 144.933662 
L 293.341245 144.55388 
L 293.541761 144.933662 
L 293.742276 144.933662 
L 293.942791 146.073008 
L 294.343822 146.073008 
L 294.544337 146.45279 
L 294.945368 146.45279 
L 295.346398 147.212355 
L 296.14846 147.212355 
L 296.348975 147.592137 
L 296.54949 146.832573 
L 296.750006 147.212355 
L 296.950521 147.212355 
L 297.151036 147.592137 
L 297.351552 147.592137 
L 297.552067 147.971919 
L 297.752582 147.592137 
L 297.953098 147.971919 
L 298.153613 147.971919 
L 298.354128 148.351701 
L 298.554644 147.971919 
L 298.955674 148.731483 
L 299.15619 148.731483 
L 299.55722 147.971919 
L 299.757736 149.491047 
L 300.559797 149.491047 
L 300.760312 149.870829 
L 300.960828 149.870829 
L 301.361858 149.111265 
L 301.562374 149.111265 
L 301.762889 148.731483 
L 302.163919 148.731483 
L 302.364435 148.351701 
L 302.765465 146.832573 
L 303.166496 146.832573 
L 303.367011 147.592137 
L 303.567527 147.212355 
L 303.768042 147.212355 
L 303.968557 147.592137 
L 304.169073 147.212355 
L 304.369588 147.212355 
L 304.570103 147.592137 
L 304.971134 147.592137 
L 305.171649 147.212355 
L 305.372165 147.592137 
L 305.57268 147.592137 
L 305.773195 149.491047 
L 306.575257 147.971919 
L 306.976287 147.971919 
L 307.176803 148.351701 
L 307.978864 148.351701 
L 308.179379 148.731483 
L 308.379895 147.971919 
L 308.780925 147.971919 
L 308.98144 149.111265 
L 309.181956 149.491047 
L 309.382471 149.491047 
L 309.582986 149.111265 
L 309.783502 149.491047 
L 309.984017 149.491047 
L 310.184532 149.870829 
L 310.385048 148.351701 
L 310.986594 148.351701 
L 311.187109 149.111265 
L 311.788655 149.111265 
L 311.98917 148.731483 
L 312.390201 148.731483 
L 312.590716 148.351701 
L 312.791232 149.870829 
L 312.991747 150.250611 
L 313.192262 149.111265 
L 313.392778 149.111265 
L 313.593293 148.731483 
L 313.793808 149.111265 
L 313.994324 148.731483 
L 314.194839 149.111265 
L 314.59587 147.971919 
L 314.796385 148.351701 
L 315.197416 147.592137 
L 315.397931 147.592137 
L 315.598446 146.832573 
L 315.999477 147.971919 
L 316.601023 147.971919 
L 316.801538 148.351701 
L 317.002053 147.971919 
L 317.202569 148.351701 
L 317.804115 148.351701 
L 318.00463 147.971919 
L 318.405661 149.111265 
L 319.608753 149.111265 
L 319.809268 148.731483 
L 320.611329 148.731483 
L 320.811845 149.111265 
L 322.415967 149.111265 
L 322.616482 149.491047 
L 322.816998 149.111265 
L 323.017513 149.491047 
L 323.218028 149.491047 
L 323.619059 148.731483 
L 324.42112 148.731483 
L 324.621636 148.351701 
L 325.022666 148.351701 
L 325.223182 149.491047 
L 325.423697 149.111265 
L 325.624212 148.351701 
L 325.824728 148.731483 
L 326.025243 148.731483 
L 326.426274 149.491047 
L 327.228335 149.491047 
L 327.42885 150.250611 
L 328.431427 150.250611 
L 328.631942 149.491047 
L 328.832457 149.870829 
L 329.032973 149.491047 
L 329.233488 149.870829 
L 329.634519 149.870829 
L 329.835034 150.250611 
L 330.236065 150.250611 
L 330.43658 150.630393 
L 331.038126 150.630393 
L 331.238641 151.010175 
L 331.439157 151.010175 
L 331.639672 150.630393 
L 332.040703 150.630393 
L 332.241218 150.250611 
L 332.642249 150.250611 
L 332.842764 150.630393 
L 333.043279 151.389957 
L 333.243795 150.630393 
L 333.845341 150.630393 
L 334.045856 151.010175 
L 334.246371 150.630393 
L 334.446887 150.630393 
L 334.647402 151.389957 
L 334.847917 150.250611 
L 335.048433 149.870829 
L 335.248948 150.250611 
L 335.649978 150.250611 
L 335.850494 151.389957 
L 336.051009 151.010175 
L 336.251524 151.010175 
L 336.652555 151.769739 
L 337.053586 151.769739 
L 337.254101 152.149521 
L 337.655132 152.149521 
L 337.855647 152.529303 
L 338.256678 151.389957 
L 338.858224 151.389957 
L 339.259254 152.149521 
L 339.45977 152.149521 
L 339.660285 152.529303 
L 339.8608 151.769739 
L 340.061316 152.529303 
L 340.462346 152.529303 
L 340.662862 152.149521 
L 341.063892 152.149521 
L 341.264408 152.909085 
L 342.266984 152.909085 
L 342.467499 153.288867 
L 342.86853 153.288867 
L 343.069045 152.909085 
L 343.269561 153.288867 
L 343.470076 153.288867 
L 343.670591 153.668649 
L 344.673168 153.668649 
L 344.873683 153.288867 
L 345.074199 153.668649 
L 345.274714 153.668649 
L 345.475229 154.048431 
L 345.87626 154.048431 
L 346.076775 153.668649 
L 346.477806 153.668649 
L 346.678321 152.909085 
L 346.878837 152.909085 
L 347.079352 152.529303 
L 347.279867 152.529303 
L 347.480383 154.428213 
L 348.081929 152.149521 
L 348.282444 152.529303 
L 348.482959 152.149521 
L 348.683474 152.149521 
L 348.88399 152.909085 
L 349.084505 152.909085 
L 349.28502 152.529303 
L 349.485536 152.909085 
L 350.287597 152.909085 
L 350.488112 153.288867 
L 350.688628 153.288867 
L 350.889143 152.909085 
L 351.089658 152.909085 
L 351.290174 152.149521 
L 352.493266 152.149521 
L 352.693781 151.769739 
L 352.894296 151.769739 
L 353.094812 152.149521 
L 354.498419 152.149521 
L 354.698934 151.769739 
L 354.89945 152.149521 
L 355.099965 151.769739 
L 355.30048 151.769739 
L 355.500995 151.010175 
L 355.701511 151.010175 
L 355.902026 150.630393 
L 356.102541 151.010175 
L 356.303057 150.250611 
L 357.105118 151.769739 
L 357.305633 152.529303 
L 357.706664 151.769739 
L 357.907179 151.769739 
L 358.107695 151.389957 
L 358.30821 152.149521 
L 358.508725 151.769739 
L 359.310787 151.769739 
L 359.511302 152.149521 
L 361.115425 152.149521 
L 361.31594 151.769739 
L 362.118001 151.769739 
L 362.318516 152.149521 
L 362.519032 151.769739 
L 363.321093 151.769739 
L 363.722124 152.529303 
L 364.32367 152.529303 
L 364.524185 151.769739 
L 365.727277 151.769739 
L 365.927792 152.529303 
L 366.529338 152.529303 
L 366.729854 152.149521 
L 367.73243 152.149521 
L 367.932946 152.529303 
L 368.133461 152.529303 
L 368.333976 152.909085 
L 368.935522 152.909085 
L 369.136037 152.529303 
L 369.336553 152.529303 
L 369.537068 152.909085 
L 370.138614 152.909085 
L 370.339129 152.529303 
L 370.539645 153.288867 
L 371.141191 153.288867 
L 371.341706 153.668649 
L 371.542221 153.288867 
L 371.742737 153.668649 
L 371.943252 153.288867 
L 372.143767 153.288867 
L 372.344283 154.428213 
L 372.544798 154.807996 
L 372.745313 154.428213 
L 373.346859 154.428213 
L 373.547375 154.807996 
L 373.74789 154.048431 
L 373.948405 154.048431 
L 374.148921 154.428213 
L 374.349436 154.048431 
L 374.549951 154.807996 
L 375.151497 154.807996 
L 375.352012 154.048431 
L 375.552528 154.048431 
L 375.753043 154.807996 
L 376.75562 154.807996 
L 376.956135 155.187778 
L 378.560258 155.187778 
L 378.760773 155.56756 
L 379.161804 155.56756 
L 379.362319 155.187778 
L 379.562834 155.56756 
L 381.367472 155.56756 
L 381.768503 156.327124 
L 382.370049 156.327124 
L 382.570564 155.947342 
L 382.971595 155.947342 
L 383.17211 155.56756 
L 383.372625 155.947342 
L 383.773656 155.947342 
L 383.974171 156.327124 
L 385.377779 156.327124 
L 385.778809 157.086688 
L 385.979325 156.706906 
L 386.17984 156.706906 
L 386.380355 156.327124 
L 386.580871 156.706906 
L 387.182417 156.706906 
L 387.382932 156.327124 
L 388.184993 156.327124 
L 388.586024 157.086688 
L 388.786539 156.706906 
L 389.5886 156.706906 
L 389.789116 156.327124 
L 391.393238 156.327124 
L 391.593754 156.706906 
L 391.994784 156.706906 
L 392.1953 157.846252 
L 392.395815 157.846252 
L 392.59633 157.086688 
L 392.796846 157.46647 
L 393.398392 157.46647 
L 393.598907 157.086688 
L 393.999938 157.086688 
L 394.200453 156.706906 
L 394.601484 156.706906 
L 394.801999 157.086688 
L 395.002514 156.706906 
L 395.203029 157.086688 
L 395.403545 157.846252 
L 395.60406 157.46647 
L 396.406121 157.46647 
L 396.606637 157.086688 
L 397.007667 157.086688 
L 397.208183 157.46647 
L 397.609213 157.46647 
L 397.809729 157.086688 
L 398.010244 157.46647 
L 398.210759 157.086688 
L 398.812305 157.086688 
L 399.012821 157.46647 
L 399.413851 157.46647 
L 399.614367 156.706906 
L 399.814882 156.706906 
L 400.015397 157.46647 
L 400.215913 157.086688 
L 400.416428 156.327124 
L 400.616943 156.327124 
L 400.817459 155.947342 
L 401.218489 155.947342 
L 401.419005 155.56756 
L 401.61952 155.947342 
L 402.221066 155.947342 
L 402.622096 156.706906 
L 403.023127 156.706906 
L 403.223642 156.327124 
L 403.424158 156.706906 
L 404.62725 156.706906 
L 404.827765 157.086688 
L 405.228796 157.086688 
L 405.429311 156.706906 
L 405.629826 157.086688 
L 406.030857 156.327124 
L 406.632403 156.327124 
L 406.832918 156.706906 
L 407.233949 156.706906 
L 407.434464 155.947342 
L 407.63498 156.706906 
L 407.835495 156.706906 
L 408.03601 157.086688 
L 408.838071 157.086688 
L 409.038587 156.327124 
L 409.239102 156.327124 
L 409.439617 156.706906 
L 409.640133 156.706906 
L 409.840648 157.086688 
L 410.041163 156.706906 
L 410.442194 156.706906 
L 410.642709 157.086688 
L 411.244255 157.086688 
L 411.444771 157.46647 
L 411.645286 157.086688 
L 411.845801 157.086688 
L 412.246832 157.846252 
L 413.048893 157.846252 
L 413.249409 158.226034 
L 414.452501 158.226034 
L 414.653016 157.846252 
L 416.056623 157.846252 
L 416.257138 158.226034 
L 416.457654 158.226034 
L 416.658169 158.605816 
L 416.858684 158.605816 
L 417.0592 158.226034 
L 417.46023 158.226034 
L 417.660746 158.985598 
L 417.861261 158.985598 
L 418.262292 157.846252 
L 418.462807 158.226034 
L 418.663322 158.226034 
L 418.863838 157.846252 
L 419.866414 157.846252 
L 420.06693 157.46647 
L 420.267445 157.846252 
L 420.668476 157.086688 
L 420.868991 157.46647 
L 421.069506 157.086688 
L 422.473113 157.086688 
L 422.673629 157.46647 
L 423.074659 157.46647 
L 423.275175 157.086688 
L 423.47569 157.086688 
L 423.676205 157.46647 
L 424.077236 156.706906 
L 425.079813 156.706906 
L 425.280328 157.086688 
L 425.480843 157.086688 
L 425.681359 156.706906 
L 426.082389 156.706906 
L 426.282905 157.086688 
L 426.884451 157.086688 
L 427.084966 157.46647 
L 427.485997 157.46647 
L 427.686512 157.846252 
L 427.887027 157.846252 
L 428.087543 157.46647 
L 428.288058 157.846252 
L 428.488573 157.46647 
L 428.689088 157.46647 
L 428.889604 157.086688 
L 429.090119 157.846252 
L 429.49115 157.846252 
L 429.691665 158.226034 
L 429.89218 158.985598 
L 430.293211 158.985598 
L 430.493726 159.36538 
L 431.295788 159.36538 
L 431.496303 158.985598 
L 431.696818 158.985598 
L 431.897334 160.124944 
L 432.298364 159.36538 
L 432.49888 159.745162 
L 432.699395 159.36538 
L 433.300941 159.36538 
L 433.501456 159.745162 
L 434.103002 159.745162 
L 434.303518 160.124944 
L 434.704548 159.36538 
L 435.105579 159.36538 
L 435.306094 159.745162 
L 437.511763 159.745162 
L 437.712278 159.36538 
L 437.912793 159.745162 
L 439.316401 159.745162 
L 439.516916 158.985598 
L 439.717431 159.36538 
L 439.917947 158.985598 
L 440.920523 158.985598 
L 441.121039 159.36538 
L 442.925676 159.36538 
L 443.126192 159.745162 
L 443.326707 158.985598 
L 444.529799 158.985598 
L 444.730314 159.36538 
L 445.131345 159.36538 
L 445.33186 158.985598 
L 446.935983 158.985598 
L 447.136498 158.605816 
L 447.337014 158.605816 
L 447.537529 158.985598 
L 447.738044 158.985598 
L 447.93856 158.605816 
L 448.139075 158.985598 
L 448.33959 158.985598 
L 448.740621 158.226034 
L 448.941136 158.985598 
L 449.542682 158.985598 
L 449.743197 158.605816 
L 449.943713 157.846252 
L 450.144228 157.846252 
L 450.344743 158.226034 
L 450.946289 158.226034 
L 451.146805 158.605816 
L 451.34732 158.605816 
L 451.547835 158.226034 
L 452.149381 158.226034 
L 452.349897 158.605816 
L 452.951443 158.605816 
L 453.151958 158.226034 
L 453.352473 158.226034 
L 453.552989 158.605816 
L 453.954019 158.605816 
L 454.154535 158.226034 
L 454.555565 158.226034 
L 454.756081 158.605816 
L 455.357626 158.605816 
L 455.558142 158.985598 
L 455.758657 158.985598 
L 455.959172 158.605816 
L 456.360203 158.605816 
L 456.560718 158.226034 
L 456.761234 158.985598 
L 457.162264 158.985598 
L 457.36278 158.605816 
L 457.964326 158.605816 
L 458.164841 158.985598 
L 460.169994 158.985598 
L 460.571025 159.745162 
L 460.77154 159.36538 
L 460.972056 159.36538 
L 461.172571 158.985598 
L 461.373086 159.36538 
L 461.573602 159.36538 
L 461.774117 159.745162 
L 461.974632 158.985598 
L 462.375663 158.985598 
L 462.776693 159.745162 
L 463.378239 159.745162 
L 463.578755 159.36538 
L 463.77927 159.36538 
L 463.979785 160.124944 
L 464.180301 160.124944 
L 464.380816 159.745162 
L 464.581331 158.985598 
L 464.781847 160.124944 
L 464.982362 159.36538 
L 465.182877 159.36538 
L 465.383393 159.745162 
L 465.583908 159.36538 
L 466.185454 159.36538 
L 466.385969 158.985598 
L 466.586485 158.985598 
L 466.787 159.36538 
L 466.987515 159.36538 
L 467.188031 160.504726 
L 467.388546 160.124944 
L 467.589061 160.124944 
L 467.789577 159.745162 
L 467.990092 160.124944 
L 468.190607 159.36538 
L 468.391122 159.36538 
L 468.591638 158.985598 
L 471.799883 158.985598 
L 472.000398 160.504726 
L 472.601944 160.504726 
L 472.80246 160.884508 
L 473.20349 160.884508 
L 473.404006 160.504726 
L 473.604521 160.884508 
L 474.807613 160.884508 
L 475.208643 161.644072 
L 475.409159 161.26429 
L 475.609674 161.26429 
L 475.810189 162.023854 
L 476.010705 162.023854 
L 476.21122 163.163201 
L 476.612251 163.163201 
L 476.812766 162.783419 
L 477.013281 162.783419 
L 477.213797 162.403636 
L 477.414312 162.403636 
L 477.614827 162.783419 
L 477.815343 162.783419 
L 478.216373 163.922765 
L 478.416889 163.542983 
L 478.817919 164.302547 
L 479.018435 163.922765 
L 479.619981 163.922765 
L 479.820496 163.542983 
L 480.021011 163.542983 
L 480.422042 162.783419 
L 480.823073 162.783419 
L 481.224103 163.542983 
L 481.424619 163.163201 
L 481.625134 163.163201 
L 481.825649 162.403636 
L 482.026164 162.403636 
L 482.22668 163.163201 
L 482.62771 163.163201 
L 482.828226 162.403636 
L 484.231833 162.403636 
L 484.432348 161.644072 
L 485.434925 161.644072 
L 485.63544 162.023854 
L 485.835956 162.023854 
L 486.036471 162.403636 
L 486.236986 162.403636 
L 486.638017 161.644072 
L 487.440078 161.644072 
L 487.640594 162.023854 
L 487.841109 162.023854 
L 488.041624 162.403636 
L 488.442655 162.403636 
L 488.843685 161.644072 
L 489.044201 162.023854 
L 489.445231 161.26429 
L 490.247293 161.26429 
L 490.447808 161.644072 
L 490.848839 161.644072 
L 491.049354 161.26429 
L 492.452961 161.26429 
L 492.653477 161.644072 
L 492.853992 161.26429 
L 493.255023 161.26429 
L 493.656053 162.403636 
L 493.856569 162.403636 
L 494.057084 162.023854 
L 494.257599 163.542983 
L 494.458115 163.922765 
L 494.65863 163.542983 
L 494.859145 163.542983 
L 495.05966 163.922765 
L 495.260176 163.922765 
L 495.460691 163.542983 
L 495.661206 163.922765 
L 496.463268 163.922765 
L 496.663783 163.542983 
L 497.265329 163.542983 
L 497.465844 163.922765 
L 498.468421 163.922765 
L 498.668936 163.542983 
L 498.869452 163.922765 
L 499.069967 163.922765 
L 499.270482 163.163201 
L 499.470998 163.163201 
L 499.671513 163.922765 
L 500.072544 163.922765 
L 500.273059 163.542983 
L 500.473574 163.542983 
L 500.67409 163.922765 
L 500.874605 163.542983 
L 501.676666 163.542983 
L 501.877181 163.163201 
L 503.681819 163.163201 
L 503.882335 162.783419 
L 504.283365 163.542983 
L 504.483881 164.302547 
L 504.884911 164.302547 
L 505.085427 163.922765 
L 505.285942 163.922765 
L 505.486457 164.682329 
L 505.686973 164.302547 
L 505.887488 164.302547 
L 506.088003 164.682329 
L 506.288519 164.682329 
L 506.489034 164.302547 
L 506.890065 164.302547 
L 507.09058 163.922765 
L 507.291095 162.783419 
L 507.491611 163.163201 
L 507.692126 163.163201 
L 507.892641 162.783419 
L 508.093157 163.542983 
L 508.293672 163.542983 
L 508.694702 164.302547 
L 509.697279 164.302547 
L 509.897794 163.922765 
L 510.09831 163.922765 
L 510.298825 163.542983 
L 510.49934 163.922765 
L 510.699856 163.542983 
L 510.900371 163.542983 
L 511.100886 163.163201 
L 511.301402 162.403636 
L 511.501917 162.783419 
L 511.702432 162.783419 
L 511.902948 163.163201 
L 512.103463 162.783419 
L 513.10604 162.783419 
L 513.306555 163.542983 
L 514.108616 163.542983 
L 514.309132 163.163201 
L 514.509647 163.542983 
L 515.712739 163.542983 
L 515.913254 163.163201 
L 516.314285 163.163201 
L 516.5148 162.783419 
L 517.116346 162.783419 
L 517.517377 163.922765 
L 517.717892 163.922765 
L 517.918407 163.542983 
L 518.118923 164.302547 
L 518.319438 163.922765 
L 518.519953 164.302547 
L 518.920984 164.302547 
L 519.121499 163.922765 
L 520.124076 163.922765 
L 520.324591 164.302547 
L 520.725622 164.302547 
L 520.926137 163.922765 
L 521.126653 163.922765 
L 521.327168 163.542983 
L 522.129229 163.542983 
L 522.329744 163.163201 
L 522.53026 163.163201 
L 522.93129 163.922765 
L 523.532836 163.922765 
L 523.733352 163.542983 
L 524.134382 163.542983 
L 524.334898 163.163201 
L 524.535413 163.163201 
L 524.735928 163.542983 
L 525.53799 163.542983 
L 525.738505 163.922765 
L 525.93902 163.542983 
L 526.139536 163.542983 
L 526.340051 163.922765 
L 527.142112 163.922765 
L 527.342628 164.682329 
L 527.543143 164.682329 
L 527.743658 164.302547 
L 527.944174 164.302547 
L 528.144689 163.922765 
L 528.345204 163.922765 
L 528.545719 164.682329 
L 528.746235 164.302547 
L 528.94675 164.682329 
L 530.149842 164.682329 
L 530.350357 165.062111 
L 530.550873 165.062111 
L 530.751388 165.441893 
L 530.951903 164.682329 
L 531.152419 165.062111 
L 531.352934 164.302547 
L 531.753965 164.302547 
L 531.95448 163.922765 
L 532.154995 163.922765 
L 532.556026 164.682329 
L 533.157572 164.682329 
L 533.558603 165.821675 
L 534.360664 165.821675 
L 534.561179 166.201457 
L 534.96221 166.201457 
L 535.162725 166.581239 
L 535.964786 166.581239 
L 536.165302 165.821675 
L 537.568909 165.821675 
L 537.769424 166.201457 
L 538.170455 166.201457 
L 538.37097 166.581239 
L 538.772001 166.581239 
L 538.972516 166.201457 
L 539.173032 166.581239 
L 539.373547 166.201457 
L 539.975093 166.201457 
L 540.175608 166.961021 
L 540.376124 166.581239 
L 540.576639 166.581239 
L 540.777154 166.961021 
L 540.97767 166.961021 
L 541.178185 166.581239 
L 541.779731 166.581239 
L 541.980246 166.961021 
L 542.381277 166.961021 
L 542.581792 167.340803 
L 542.782307 166.961021 
L 543.183338 166.961021 
L 543.383853 167.340803 
L 543.584369 166.961021 
L 544.38643 166.961021 
L 544.586945 167.340803 
L 544.787461 166.581239 
L 545.188491 167.340803 
L 547.39416 167.340803 
L 547.594675 166.961021 
L 548.196221 166.961021 
L 548.396736 166.581239 
L 549.198798 166.581239 
L 549.599828 165.821675 
L 551.404466 165.821675 
L 551.604982 166.201457 
L 551.805497 166.201457 
L 552.006012 165.821675 
L 552.808074 165.821675 
L 553.008589 165.441893 
L 553.209104 165.441893 
L 553.40962 165.821675 
L 554.211681 165.821675 
L 554.612712 166.581239 
L 556.417349 166.581239 
L 556.617865 167.340803 
L 558.623018 167.340803 
L 558.823533 166.961021 
L 559.82611 166.961021 
L 560.026625 167.340803 
L 560.427656 167.340803 
L 560.628171 167.720585 
L 563.034355 167.720585 
L 563.23487 167.340803 
L 563.435386 167.340803 
L 563.635901 167.720585 
L 563.836416 167.720585 
L 564.036932 167.340803 
L 564.237447 167.340803 
L 564.437962 166.961021 
L 564.838993 166.961021 
L 565.039508 167.340803 
L 566.643631 167.340803 
L 566.844146 166.961021 
L 569.450845 166.961021 
L 570.052391 168.100367 
L 571.255483 168.100367 
L 571.455999 168.480149 
L 571.656514 168.480149 
L 571.857029 168.100367 
L 574.263213 168.100367 
L 574.463729 167.720585 
L 575.66682 167.720585 
L 575.867336 167.340803 
L 576.067851 167.340803 
L 576.268366 166.961021 
L 576.468882 167.720585 
L 576.669397 167.340803 
L 577.471458 167.340803 
L 577.872489 166.581239 
L 578.073004 166.581239 
L 578.27352 166.961021 
L 578.67455 166.961021 
L 578.875066 166.581239 
L 581.28125 166.581239 
L 581.481765 166.201457 
L 582.083311 166.201457 
L 582.283826 166.581239 
L 582.484341 166.201457 
L 583.887949 166.201457 
L 584.088464 166.581239 
L 584.69001 166.581239 
L 584.890525 167.340803 
L 585.492071 167.340803 
L 585.692587 166.961021 
L 585.893102 167.720585 
L 586.093617 167.720585 
L 586.294133 167.340803 
L 586.494648 167.340803 
L 586.695163 166.961021 
L 587.096194 166.961021 
L 587.497225 166.201457 
L 587.69774 166.201457 
L 587.898255 166.581239 
L 589.903408 166.581239 
L 590.103924 166.201457 
L 590.304439 166.201457 
L 590.504954 166.581239 
L 590.70547 166.581239 
L 590.905985 166.961021 
L 591.908562 166.961021 
L 592.109077 166.201457 
L 592.710623 166.201457 
L 592.911138 166.581239 
L 593.7132 166.581239 
L 593.913715 166.961021 
L 598.926598 166.961021 
L 599.127113 167.340803 
L 599.327629 166.961021 
L 599.528144 166.961021 
L 599.929175 166.201457 
L 601.332782 166.201457 
L 601.533297 165.821675 
L 601.733812 166.201457 
L 602.335358 166.201457 
L 602.535874 165.821675 
L 602.736389 166.201457 
L 603.53845 166.201457 
L 603.738966 165.821675 
L 603.939481 166.201457 
L 604.942058 166.201457 
L 605.142573 165.441893 
L 605.343088 165.821675 
L 605.543604 165.821675 
L 605.744119 165.441893 
L 605.944634 165.441893 
L 606.14515 165.062111 
L 606.345665 165.062111 
L 606.54618 165.441893 
L 606.746696 165.062111 
L 606.947211 165.062111 
L 607.147726 164.682329 
L 607.348242 165.062111 
L 608.350818 165.062111 
L 608.551333 165.441893 
L 608.751849 165.062111 
L 609.152879 165.062111 
L 609.353395 164.682329 
L 609.55391 164.682329 
L 609.754425 165.441893 
L 610.155456 164.682329 
L 610.757002 164.682329 
L 610.957517 165.062111 
L 611.158033 165.062111 
L 611.358548 164.682329 
L 611.759579 164.682329 
L 611.960094 164.302547 
L 612.160609 164.302547 
L 612.361125 163.922765 
L 612.762155 163.922765 
L 613.163186 163.163201 
L 613.965247 163.163201 
L 614.165763 163.542983 
L 615.56937 163.542983 
L 615.9704 164.302547 
L 617.775038 164.302547 
L 617.975554 163.922765 
L 618.176069 163.922765 
L 618.376584 164.302547 
L 619.780192 164.302547 
L 620.181222 163.542983 
L 620.782768 163.542983 
L 620.983284 163.922765 
L 622.386891 163.922765 
L 622.587406 163.542983 
L 622.787921 163.922765 
L 623.188952 163.922765 
L 623.389467 163.542983 
L 625.194105 163.542983 
L 625.394621 163.163201 
L 625.795651 163.163201 
L 625.996167 163.542983 
L 626.196682 163.163201 
L 626.798228 163.163201 
L 626.998743 162.783419 
L 627.600289 162.783419 
L 627.800805 163.163201 
L 629.605442 163.163201 
L 629.805958 162.783419 
L 630.206988 162.783419 
L 630.407504 162.403636 
L 631.00905 162.403636 
L 631.209565 162.783419 
L 631.41008 162.783419 
L 631.610596 163.163201 
L 631.811111 163.163201 
L 632.412657 164.302547 
L 633.214718 164.302547 
L 633.415234 163.922765 
L 633.816264 163.922765 
L 634.01678 164.302547 
L 634.41781 164.302547 
L 634.618326 165.062111 
L 635.821417 165.062111 
L 636.021933 165.441893 
L 637.225025 165.441893 
L 637.42554 165.062111 
L 637.626055 165.821675 
L 639.230178 165.821675 
L 639.430693 165.441893 
L 639.831724 165.441893 
L 640.032239 165.821675 
L 642.237908 165.821675 
L 642.438423 165.441893 
L 642.638938 165.441893 
L 642.839454 165.821675 
L 643.240484 165.062111 
L 643.641515 165.062111 
L 644.243061 166.201457 
L 644.443576 166.201457 
L 644.644092 166.581239 
L 644.844607 166.201457 
L 645.045122 166.581239 
L 645.245638 166.201457 
L 645.646668 166.201457 
L 645.847184 166.581239 
L 646.047699 166.581239 
L 646.248214 166.201457 
L 646.44873 166.201457 
L 646.649245 165.821675 
L 646.84976 165.821675 
L 647.050276 165.441893 
L 647.250791 165.441893 
L 647.451306 165.821675 
L 649.656975 165.821675 
L 649.85749 166.201457 
L 650.659551 166.201457 
L 650.860067 166.581239 
L 651.461613 166.581239 
L 651.862643 167.340803 
L 652.063159 167.340803 
L 652.263674 167.720585 
L 652.464189 167.720585 
L 652.664705 167.340803 
L 653.667281 167.340803 
L 653.867797 167.720585 
L 654.068312 167.340803 
L 654.268827 167.720585 
L 654.469343 167.720585 
L 654.669858 168.100367 
L 655.672434 168.100367 
L 655.87295 167.720585 
L 656.27398 167.720585 
L 656.474496 168.100367 
L 656.675011 167.720585 
L 657.477072 167.720585 
L 657.677588 167.340803 
L 657.878103 167.340803 
L 658.078618 167.720585 
L 658.680164 167.720585 
L 658.88068 168.100367 
L 659.682741 168.100367 
L 659.883256 167.720585 
L 661.286863 167.720585 
L 661.487379 167.340803 
L 661.687894 167.340803 
L 661.888409 167.720585 
L 662.088925 167.340803 
L 662.28944 167.340803 
L 662.489955 166.581239 
L 662.890986 166.581239 
L 663.091501 167.340803 
L 663.292017 167.340803 
L 663.492532 166.581239 
L 663.693047 167.720585 
L 664.094078 167.720585 
L 664.294593 167.340803 
L 665.698201 167.340803 
L 665.898716 167.720585 
L 666.099231 167.340803 
L 666.500262 167.340803 
L 666.700777 167.720585 
L 667.302323 167.720585 
L 667.502839 167.340803 
L 667.703354 167.720585 
L 667.903869 166.581239 
L 668.104384 166.581239 
L 668.3049 166.961021 
L 668.505415 166.961021 
L 668.70593 166.581239 
L 668.906446 166.961021 
L 669.909022 166.961021 
L 670.310053 165.821675 
L 670.711084 165.821675 
L 670.911599 166.581239 
L 672.114691 166.581239 
L 672.315206 167.340803 
L 672.916752 167.340803 
L 673.117268 166.581239 
L 673.518298 166.581239 
L 673.718814 166.201457 
L 674.32036 166.201457 
L 674.520875 165.821675 
L 674.72139 166.581239 
L 674.921905 166.201457 
L 675.122421 165.441893 
L 676.124997 165.441893 
L 676.325513 166.201457 
L 677.929635 166.201457 
L 678.130151 166.581239 
L 678.932212 166.581239 
L 679.132727 166.201457 
L 679.132727 166.201457 
" style="fill:none;stroke:#ff7f0e;stroke-linecap:square;stroke-width:1.5;"/>
   </g>
   <g id="patch_3">
    <path d="M 47.72 390.04 
L 47.72 25.44 
" style="fill:none;stroke:#000000;stroke-linecap:square;stroke-linejoin:miter;stroke-width:0.8;"/>
   </g>
   <g id="patch_4">
    <path d="M 709.2 390.04 
L 709.2 25.44 
" style="fill:none;stroke:#000000;stroke-linecap:square;stroke-linejoin:miter;stroke-width:0.8;"/>
   </g>
   <g id="patch_5">
    <path d="M 47.72 390.04 
L 709.2 390.04 
" style="fill:none;stroke:#000000;stroke-linecap:square;stroke-linejoin:miter;stroke-width:0.8;"/>
   </g>
   <g id="patch_6">
    <path d="M 47.72 25.44 
L 709.2 25.44 
" style="fill:none;stroke:#000000;stroke-linecap:square;stroke-linejoin:miter;stroke-width:0.8;"/>
   </g>
   <g id="text_15">
    <!-- Training and Testing Error over Boosting Rounds -->
    <g transform="translate(234.638125 19.44)scale(0.12 -0.12)">
     <defs>
      <path d="M -0.296875 72.90625 
L 61.375 72.90625 
L 61.375 64.59375 
L 35.5 64.59375 
L 35.5 0 
L 25.59375 0 
L 25.59375 64.59375 
L -0.296875 64.59375 
z
" id="DejaVuSans-84"/>
      <path d="M 2.984375 54.6875 
L 12.5 54.6875 
L 29.59375 8.796875 
L 46.6875 54.6875 
L 56.203125 54.6875 
L 35.6875 0 
L 23.484375 0 
z
" id="DejaVuSans-118"/>
     </defs>
     <use xlink:href="#DejaVuSans-84"/>
     <use x="46.333984" xlink:href="#DejaVuSans-114"/>
     <use x="87.447266" xlink:href="#DejaVuSans-97"/>
     <use x="148.726562" xlink:href="#DejaVuSans-105"/>
     <use x="176.509766" xlink:href="#DejaVuSans-110"/>
     <use x="239.888672" xlink:href="#DejaVuSans-105"/>
     <use x="267.671875" xlink:href="#DejaVuSans-110"/>
     <use x="331.050781" xlink:href="#DejaVuSans-103"/>
     <use x="394.527344" xlink:href="#DejaVuSans-32"/>
     <use x="426.314453" xlink:href="#DejaVuSans-97"/>
     <use x="487.59375" xlink:href="#DejaVuSans-110"/>
     <use x="550.972656" xlink:href="#DejaVuSans-100"/>
     <use x="614.449219" xlink:href="#DejaVuSans-32"/>
     <use x="646.236328" xlink:href="#DejaVuSans-84"/>
     <use x="690.320312" xlink:href="#DejaVuSans-101"/>
     <use x="751.84375" xlink:href="#DejaVuSans-115"/>
     <use x="803.943359" xlink:href="#DejaVuSans-116"/>
     <use x="843.152344" xlink:href="#DejaVuSans-105"/>
     <use x="870.935547" xlink:href="#DejaVuSans-110"/>
     <use x="934.314453" xlink:href="#DejaVuSans-103"/>
     <use x="997.791016" xlink:href="#DejaVuSans-32"/>
     <use x="1029.578125" xlink:href="#DejaVuSans-69"/>
     <use x="1092.761719" xlink:href="#DejaVuSans-114"/>
     <use x="1132.125" xlink:href="#DejaVuSans-114"/>
     <use x="1170.988281" xlink:href="#DejaVuSans-111"/>
     <use x="1232.169922" xlink:href="#DejaVuSans-114"/>
     <use x="1273.283203" xlink:href="#DejaVuSans-32"/>
     <use x="1305.070312" xlink:href="#DejaVuSans-111"/>
     <use x="1366.251953" xlink:href="#DejaVuSans-118"/>
     <use x="1425.431641" xlink:href="#DejaVuSans-101"/>
     <use x="1486.955078" xlink:href="#DejaVuSans-114"/>
     <use x="1528.068359" xlink:href="#DejaVuSans-32"/>
     <use x="1559.855469" xlink:href="#DejaVuSans-66"/>
     <use x="1628.458984" xlink:href="#DejaVuSans-111"/>
     <use x="1689.640625" xlink:href="#DejaVuSans-111"/>
     <use x="1750.822266" xlink:href="#DejaVuSans-115"/>
     <use x="1802.921875" xlink:href="#DejaVuSans-116"/>
     <use x="1842.130859" xlink:href="#DejaVuSans-105"/>
     <use x="1869.914062" xlink:href="#DejaVuSans-110"/>
     <use x="1933.292969" xlink:href="#DejaVuSans-103"/>
     <use x="1996.769531" xlink:href="#DejaVuSans-32"/>
     <use x="2028.556641" xlink:href="#DejaVuSans-82"/>
     <use x="2093.539062" xlink:href="#DejaVuSans-111"/>
     <use x="2154.720703" xlink:href="#DejaVuSans-117"/>
     <use x="2218.099609" xlink:href="#DejaVuSans-110"/>
     <use x="2281.478516" xlink:href="#DejaVuSans-100"/>
     <use x="2344.955078" xlink:href="#DejaVuSans-115"/>
    </g>
   </g>
   <g id="legend_1">
    <g id="patch_7">
     <path d="M 603.2 62.79625 
L 702.2 62.79625 
Q 704.2 62.79625 704.2 60.79625 
L 704.2 32.44 
Q 704.2 30.44 702.2 30.44 
L 603.2 30.44 
Q 601.2 30.44 601.2 32.44 
L 601.2 60.79625 
Q 601.2 62.79625 603.2 62.79625 
z
" style="fill:#ffffff;opacity:0.8;stroke:#cccccc;stroke-linejoin:miter;"/>
    </g>
    <g id="line2d_15">
     <path d="M 605.2 38.538437 
L 625.2 38.538437 
" style="fill:none;stroke:#1f77b4;stroke-linecap:square;stroke-width:1.5;"/>
    </g>
    <g id="line2d_16"/>
    <g id="text_16">
     <!-- Training Error -->
     <g transform="translate(633.2 42.038437)scale(0.1 -0.1)">
      <use xlink:href="#DejaVuSans-84"/>
      <use x="46.333984" xlink:href="#DejaVuSans-114"/>
      <use x="87.447266" xlink:href="#DejaVuSans-97"/>
      <use x="148.726562" xlink:href="#DejaVuSans-105"/>
      <use x="176.509766" xlink:href="#DejaVuSans-110"/>
      <use x="239.888672" xlink:href="#DejaVuSans-105"/>
      <use x="267.671875" xlink:href="#DejaVuSans-110"/>
      <use x="331.050781" xlink:href="#DejaVuSans-103"/>
      <use x="394.527344" xlink:href="#DejaVuSans-32"/>
      <use x="426.314453" xlink:href="#DejaVuSans-69"/>
      <use x="489.498047" xlink:href="#DejaVuSans-114"/>
      <use x="528.861328" xlink:href="#DejaVuSans-114"/>
      <use x="567.724609" xlink:href="#DejaVuSans-111"/>
      <use x="628.90625" xlink:href="#DejaVuSans-114"/>
     </g>
    </g>
    <g id="line2d_17">
     <path d="M 605.2 53.216563 
L 625.2 53.216563 
" style="fill:none;stroke:#ff7f0e;stroke-linecap:square;stroke-width:1.5;"/>
    </g>
    <g id="line2d_18"/>
    <g id="text_17">
     <!-- Testing Error -->
     <g transform="translate(633.2 56.716563)scale(0.1 -0.1)">
      <use xlink:href="#DejaVuSans-84"/>
      <use x="44.083984" xlink:href="#DejaVuSans-101"/>
      <use x="105.607422" xlink:href="#DejaVuSans-115"/>
      <use x="157.707031" xlink:href="#DejaVuSans-116"/>
      <use x="196.916016" xlink:href="#DejaVuSans-105"/>
      <use x="224.699219" xlink:href="#DejaVuSans-110"/>
      <use x="288.078125" xlink:href="#DejaVuSans-103"/>
      <use x="351.554688" xlink:href="#DejaVuSans-32"/>
      <use x="383.341797" xlink:href="#DejaVuSans-69"/>
      <use x="446.525391" xlink:href="#DejaVuSans-114"/>
      <use x="485.888672" xlink:href="#DejaVuSans-114"/>
      <use x="524.751953" xlink:href="#DejaVuSans-111"/>
      <use x="585.933594" xlink:href="#DejaVuSans-114"/>
     </g>
    </g>
   </g>
  </g>
 </g>
 <defs>
  <clipPath id="p162a2cb38b">
   <rect height="364.6" width="661.48" x="47.72" y="25.44"/>
  </clipPath>
 </defs>
</svg>
